<svg width="42" height="42" viewBox="0 0 42 42" fill="none" xmlns="http://www.w3.org/2000/svg">
<ellipse cx="20.565" cy="20.9683" rx="20.565" ry="20.9683" fill="#0A8ECD"/>
<path d="M21.5575 15.6578V10.8525H17.3408C16.7487 10.8525 16.1809 11.0923 15.7622 11.5192C15.3436 11.9461 15.1084 12.525 15.1084 13.1287V26.2798C15.1084 26.8835 15.3436 27.4625 15.7622 27.8893C16.1809 28.3162 16.7487 28.556 17.3408 28.556H26.2703C26.5635 28.556 26.8538 28.4971 27.1246 28.3827C27.3955 28.2684 27.6416 28.1007 27.8489 27.8893C28.0562 27.678 28.2206 27.427 28.3328 27.1509C28.445 26.8747 28.5027 26.5788 28.5027 26.2798V17.9339H23.7899C23.1978 17.9339 22.63 17.6941 22.2114 17.2673C21.7927 16.8404 21.5575 16.2614 21.5575 15.6578Z" fill="white"/>
<path d="M23.0457 15.6578V11.3584L28.0066 16.4165H23.7899C23.5925 16.4165 23.4032 16.3366 23.2637 16.1943C23.1241 16.052 23.0457 15.859 23.0457 15.6578ZM14.1192 13.5101C13.6832 13.6667 13.3056 13.9574 13.0385 14.3421C12.7714 14.7268 12.6279 15.1865 12.6279 15.6578V26.2839C12.6279 27.5584 13.1245 28.7806 14.0083 29.6817C14.8921 30.5829 16.0908 31.0892 17.3407 31.0892H23.7839C24.7562 31.0892 25.5827 30.4559 25.8893 29.5717H17.3407C16.4855 29.5717 15.6654 29.2253 15.0606 28.6088C14.4559 27.9922 14.1162 27.1559 14.1162 26.2839L14.1192 13.5101Z" fill="white"/>
</svg>
