<svg width="42" height="43" viewBox="0 0 42 43" fill="none" xmlns="http://www.w3.org/2000/svg">
<ellipse cx="20.565" cy="21.9048" rx="20.565" ry="20.9683" fill="#0A8ECD"/>
<path d="M17.2749 27.1236H23.7249C23.0791 30.5329 21.7853 32.8527 20.4999 32.8527C19.253 32.8527 17.9999 30.6715 17.3353 27.4319L17.2749 27.1257H23.7249H17.2749V27.1236ZM11.1936 27.1246H15.677C16.0572 29.2934 16.7009 31.1392 17.5447 32.4298C14.8963 31.6438 12.667 29.8408 11.3447 27.4152L11.1926 27.1246H11.1936ZM25.3218 27.1246H29.8061C29.1647 28.3949 28.2705 29.5207 27.1784 30.433C26.0863 31.3452 24.8193 32.0248 23.4551 32.4298C24.2416 31.2236 24.8551 29.5361 25.2416 27.5538L25.3207 27.1246H29.8061H25.3207H25.3218ZM25.6364 20.3538H30.7093C31.0606 22.0847 30.9685 23.8763 30.4416 25.5621H25.5416C25.7016 24.0594 25.7469 22.5467 25.677 21.0371L25.6353 20.3527H30.7082H25.6353L25.6364 20.3538ZM10.2895 20.3527H15.3624C15.2538 21.886 15.2656 23.4255 15.3978 24.9569L15.4572 25.5611H10.5582C10.0306 23.8755 9.93813 22.0837 10.2895 20.3527ZM16.9322 20.3527H24.0676C24.1866 21.8875 24.1737 23.4296 24.0291 24.9621L23.9645 25.5611H17.0353C16.8532 24.0014 16.8072 22.4288 16.8978 20.8611L16.9322 20.3527H24.0676H16.9322ZM23.5676 12.6194L23.4541 12.4423C25.0025 12.902 26.4231 13.7144 27.6045 14.8159C28.7858 15.9173 29.6956 17.2778 30.2624 18.7902H25.4791C25.1499 16.2736 24.4832 14.1111 23.5655 12.6204L23.453 12.4434L23.5655 12.6204L23.5676 12.6194ZM17.4186 12.4809L17.5457 12.4423C16.628 13.8496 15.9457 15.9111 15.5832 18.3319L15.5197 18.7902H10.7374C11.2963 17.2988 12.1889 15.9549 13.3469 14.8614C14.5049 13.7678 15.8977 12.9536 17.4186 12.4809L17.5457 12.4423L17.4186 12.4809ZM20.4999 12.0215C21.8739 12.0215 23.2561 14.6694 23.8478 18.4621L23.8968 18.7902H17.103C17.6666 14.8225 19.0864 12.0215 20.4999 12.0215Z" fill="white"/>
</svg>
