<svg width="19" height="20" viewBox="0 0 19 20" fill="none" xmlns="http://www.w3.org/2000/svg">
<path id="Icon" fill-rule="evenodd" clip-rule="evenodd" d="M3.84719 5.89291C4.9851 3.16026 7.65189 1.37715 10.6117 1.36924C13.8018 1.35244 16.6389 3.39595 17.6333 6.42734C18.6277 9.45874 17.5526 12.7855 14.9725 14.6618C12.3925 16.5381 8.89589 16.5353 6.31885 14.6549L4.0208 16.953C1.99041 18.8691 1.62819 18.7334 1.39456 18.5001C1.16123 18.2664 2.94165 16.3408 3.17499 16.1072L5.40123 13.8809C3.32192 11.7742 2.70927 8.62556 3.84719 5.89291ZM4.91415 11.0793C5.86957 13.3819 8.11901 14.8816 10.6117 14.8783V14.8464C13.9949 14.8421 16.7419 12.1096 16.7638 8.72623C16.7671 6.23326 15.2672 3.98412 12.9648 3.02861C10.6624 2.0731 8.01059 2.59962 6.24795 4.36242C4.48532 6.12522 3.95872 8.77671 4.91415 11.0793Z" fill="black" stroke="#1E4391" stroke-width="2"/>
</svg>
