<svg width="41" height="38" viewBox="0 0 41 38" fill="none" xmlns="http://www.w3.org/2000/svg">
<path d="M20.4993 14.2499V20.5832M20.4993 26.9165H20.5159M18.1915 6.16177L4.48332 28.6556C3.72298 29.9032 3.34281 30.5271 3.399 31.0391C3.44801 31.4856 3.69429 31.8914 4.07655 32.1555C4.51481 32.4582 5.27358 32.4582 6.79113 32.4582H34.2074C35.7249 32.4582 36.4837 32.4582 36.922 32.1555C37.3042 31.8914 37.5505 31.4856 37.5995 31.0391C37.6557 30.5271 37.2756 29.9032 36.5152 28.6556L22.8071 6.16177C22.0495 4.91859 21.6706 4.29701 21.1764 4.08824C20.7453 3.90613 20.2532 3.90613 19.8221 4.08824C19.3279 4.29701 18.9491 4.91859 18.1915 6.16177Z" stroke="#EA3029" stroke-width="3" stroke-linecap="round" stroke-linejoin="round"/>
</svg>
