<svg width="474" height="474" viewBox="0 0 474 474" fill="none" xmlns="http://www.w3.org/2000/svg">
<path fill-rule="evenodd" clip-rule="evenodd" d="M261.139 1.61191C300.153 5.85966 335.934 18.7418 367.636 39.9535C394.76 58.1018 415.825 79.2765 434.763 107.431C447.477 126.332 459.162 152.618 465.414 176.387C471.083 197.935 473.035 213.454 473.024 236.898C473.017 254.058 472.435 261.618 470.017 275.967C458.478 344.436 418.114 403.717 358.586 439.621C305.417 471.689 241.238 481.41 180.485 466.597C94.9297 445.736 28.0894 378.991 7.00628 293.365C-6.08317 240.205 -0.231737 183.662 23.4573 134.393C26.4036 128.265 28.2671 124.814 34.2925 114.325C34.8466 113.36 37.5813 109.188 40.3688 105.054C49.7476 91.1457 57.9612 81.2462 70.2635 69.0234C88.9483 50.4595 108.809 36.2628 132.143 24.7898C160.912 10.6446 189.712 3.0363 223.483 0.659091C229.604 0.228212 254.132 0.848841 261.139 1.61191ZM222.466 4.7293C179.775 7.6722 141.026 20.9531 105.896 44.6846C75.1567 65.4492 49.1278 94.375 31.5528 127.302C17.5174 153.596 9.1552 180.715 5.3657 212.226C4.07167 222.985 4.06709 250.654 5.35705 261.571C11.4054 312.752 31.8963 357.832 65.8465 394.646C82.2105 412.391 101.383 427.536 123.238 439.982C125.973 441.54 137.814 447.477 141.048 448.912C149.499 452.662 152.879 453.986 161.54 456.937C177.586 462.405 194.038 466.069 212.034 468.181C222.909 469.458 250.634 469.462 261.394 468.188C300.138 463.601 334.41 451.207 365.456 430.556C390.549 413.865 413.364 391.145 429.917 366.366C439.068 352.666 445.144 341.331 451.867 325.414C459.687 306.9 465.351 284.584 468.071 261.571C469.349 250.753 469.349 223.044 468.071 212.226C464.673 183.468 457.193 157.908 445.062 133.597C423.944 91.2765 392.042 57.7229 350.183 33.8063C348.92 33.0844 344.887 30.9961 341.221 29.1653C316.282 16.711 290.117 8.96534 261.903 5.68516C255.114 4.89564 229.171 4.26739 222.466 4.7293ZM288.618 98.5221C295.755 98.7871 303.655 99.1386 306.174 99.3029C318.283 100.093 331.99 101.191 340.522 102.054C349.846 102.997 349.996 103.032 356.296 105.689C362.704 108.391 391.883 122.934 401.331 128.134C404.13 129.674 408.141 131.856 410.246 132.983C421.496 139.004 450.886 155.283 451.368 155.759C451.798 156.185 450.279 158.062 448.729 159.02C447.255 159.931 446.216 160.081 441.471 160.068C438.425 160.06 433.071 159.845 429.573 159.591C426.074 159.338 419.262 158.967 414.434 158.768L405.656 158.407V166.592C405.656 174.015 405.756 174.947 406.734 176.603C408.004 178.755 408.563 184.072 407.742 186.182C407.228 187.503 407.007 187.598 404.779 187.454L402.372 187.299L401.959 185.01C401.368 181.726 401.957 177.69 403.273 176.019C404.285 174.733 404.39 173.977 404.453 167.557C404.49 163.68 404.398 160.036 404.247 159.46C403.98 158.44 403.75 158.419 395.782 158.711C391.277 158.876 385.645 159.257 383.266 159.558C380.887 159.859 370.926 161.021 361.131 162.141C351.335 163.26 338.397 164.746 332.38 165.444C326.363 166.142 318.208 166.857 314.259 167.035H307.527L305.818 166.265L305.163 166.015C303.865 164.818 288.614 149.235 288.614 149.465C288.614 149.694 300.004 162.713 302.799 166.015C305.163 168.062 306.451 168.379 309.892 168.379C311.444 168.573 314.621 168.283 315.586 168.127C315.477 168.879 315.587 167.935 315.586 168.127C315.584 168.488 314.912 171.91 314.09 176.107C312.556 183.951 309.964 200.028 310.024 201.324C310.043 201.724 311.183 196.558 312.559 189.843C313.934 183.128 315.584 175.461 316.227 172.806L317.394 167.979L324.251 167.111C328.022 166.634 336.375 165.666 342.812 164.96C349.249 164.254 360.333 162.982 367.444 162.134C374.554 161.285 381.04 160.592 381.857 160.592H383.343L383.023 165.297C381.922 181.513 379.313 193.14 375.206 200.14C373.533 202.993 372.955 203.517 369.527 205.291C365.406 207.423 360.091 209.276 353.243 210.967C350.864 211.555 348.574 212.17 348.155 212.336C347.735 212.501 347.162 212.683 346.882 212.74C345.355 213.049 344.084 213.678 344.084 214.122C344.084 214.401 345.209 216.491 346.584 218.768C358.079 237.803 365.324 257.145 367.469 274.53C368.246 280.832 368.121 293.578 367.223 299.601C366.19 306.534 364.228 313.791 362.557 316.859C360 321.556 349.616 330.576 331.617 343.734L328.564 345.967L330.083 343.957C330.919 342.852 334.668 338.181 338.415 333.578C342.161 328.974 345.619 324.281 346.099 323.149C348.895 316.558 350.396 288.369 348.729 273.78C347.266 260.987 344.957 250.237 341.189 238.679C338.962 231.844 333.708 218.88 331.949 215.875L331.108 214.438L319.557 214.723C309.039 214.981 307.719 214.917 304.8 214.011C294.6 210.845 274.379 194.682 270.381 186.501C268.225 182.086 267.414 176.526 268.21 171.615C268.916 167.27 272.966 149.941 274.313 145.507L275.264 142.378L273.926 141.396C268.8 137.635 244.959 121.706 231.116 112.792C226.219 109.639 221.793 106.661 221.283 106.175C220.772 105.689 220.228 104.353 220.074 103.207C219.821 101.325 219.911 101.097 221.003 100.848C224.52 100.048 240.381 98.8334 253.506 98.3598C263.032 98.0164 276.696 98.0795 288.618 98.5221ZM275.345 100.754C275.229 100.859 270.782 101.107 265.465 101.307C260.147 101.506 255.224 101.735 254.524 101.814C253.824 101.894 251.534 102.007 249.435 102.065C247.336 102.123 245.929 102.293 246.307 102.444C246.686 102.595 253.785 102.44 262.082 102.1C270.38 101.759 287.015 101.461 299.049 101.435C312.517 101.407 318.778 101.256 315.333 101.041C309.406 100.672 275.705 100.43 275.345 100.754ZM324.62 101.918C324.97 102.059 325.542 102.059 325.892 101.918C326.242 101.777 325.956 101.661 325.256 101.661C324.556 101.661 324.27 101.777 324.62 101.918ZM239.629 102.966C240.532 103.078 242.135 103.08 243.191 102.97C244.246 102.859 243.507 102.768 241.548 102.765C239.589 102.763 238.725 102.853 239.629 102.966ZM232.516 103.466C233.145 103.587 234.176 103.587 234.806 103.466C235.435 103.345 234.92 103.245 233.661 103.245C232.401 103.245 231.886 103.345 232.516 103.466ZM226.251 104.073C226.406 104.325 227.308 104.988 228.255 105.546C229.974 106.56 229.975 106.56 229.709 105.545C229.56 104.974 229.754 104.333 230.153 104.08C230.62 103.784 230.027 103.629 228.415 103.623C227.069 103.619 226.095 103.822 226.251 104.073ZM230.607 106.787C230.607 106.907 231.809 107.776 233.279 108.718C234.749 109.66 238.24 111.952 241.039 113.81C243.838 115.669 248.418 118.703 251.216 120.552C256.858 124.281 256.656 124.143 271.317 134.246C287.487 145.389 300.106 154.921 305.818 160.308C307.021 161.443 308.395 162.526 308.871 162.713C310.202 163.239 319.039 162.415 345.356 159.311C362.402 157.3 390.063 154.588 397.26 154.223C400.898 154.038 403.983 153.78 404.115 153.65C404.898 152.88 402.065 152.599 395.042 152.753C387.511 152.919 381.17 153.561 340.267 158.302C331.591 159.308 321.391 160.267 317.601 160.432L310.709 160.734L307.169 157.568C297.317 148.755 274.192 133.083 243.075 114.129C230.693 106.588 230.607 106.537 230.607 106.787ZM328.598 124.529C329.455 125.915 333.24 127.125 337.166 127.268C340.822 127.401 342.907 127.967 355.727 132.305C363.67 134.992 370.254 137.191 370.357 137.191C370.46 137.191 370.545 136.973 370.545 136.706C370.545 136.439 369.801 136 368.891 135.73C367.981 135.46 363.974 134.086 359.986 132.675C355.998 131.265 352.731 130.273 352.727 130.471C352.722 130.67 352.551 130.58 352.345 130.272C352.14 129.964 349.681 128.965 346.882 128.052C344.084 127.139 341.565 126.12 341.285 125.788C340.893 125.323 340.496 125.327 339.554 125.804C337.986 126.6 334.056 126.245 330.821 125.016C329.44 124.491 328.439 124.273 328.598 124.529ZM150.482 129.322C153.862 130.19 160.092 133.073 161.657 134.494C163.248 135.938 167.425 140.92 173.085 148.128C175.941 151.765 178.801 154.946 179.44 155.197C180.228 155.506 183.368 155.203 189.194 154.257C193.92 153.49 198.473 152.76 199.312 152.637C200.152 152.513 196.145 153.887 190.407 155.69C184.67 157.493 179.603 159.118 179.147 159.302C178.21 159.679 170.503 169.1 165.191 176.362C162.209 180.437 156.505 188.991 151.962 196.201C147.349 203.521 139.975 218.39 135.993 228.402C124.634 256.96 121.504 283.635 125.804 315.24C127.043 324.345 126.093 322.556 136.468 335.334C140.557 340.37 144.092 344.805 144.325 345.19C144.886 346.117 122.778 329.462 119.178 326.245C113.123 320.835 109.95 315.815 108.04 308.627C106.074 301.222 105.681 297.463 105.704 286.243C105.723 277.24 105.926 274.21 106.851 269.108C109.783 252.945 116.348 236.303 126.299 219.807C128.27 216.54 129.819 213.815 129.74 213.752C129.662 213.689 127.229 212.429 124.333 210.952C113.945 205.652 108.533 198.628 106.14 187.34C105.053 182.216 105.079 158.539 106.175 154.356C108.523 145.399 115.789 137.86 127.362 132.375C134.983 128.762 143.782 127.601 150.482 129.322ZM371.053 137.079C371.053 137.671 374.172 138.736 374.789 138.355C375.083 138.174 374.534 137.741 373.57 137.393C371.423 136.617 371.053 136.571 371.053 137.079ZM375.461 138.55C375.262 138.749 377.201 139.672 379.77 140.601C382.34 141.53 384.559 142.173 384.702 142.03C385.079 141.653 384.941 141.585 380.483 139.95C378.252 139.132 376.291 138.401 376.126 138.325C375.96 138.249 375.661 138.35 375.461 138.55ZM385.302 142.276C385.302 142.502 386.023 142.938 386.904 143.245C388.826 143.915 388.864 143.918 388.864 143.381C388.864 143.148 388.062 142.711 387.083 142.411C386.103 142.111 385.302 142.05 385.302 142.276ZM389.372 143.804C389.372 144.084 389.615 144.313 389.911 144.313C390.208 144.313 390.309 144.084 390.136 143.804C389.963 143.524 389.721 143.295 389.597 143.295C389.473 143.295 389.372 143.524 389.372 143.804ZM391.408 144.821C392.404 145.466 393.078 145.466 392.68 144.821C392.507 144.542 391.978 144.316 391.505 144.32C390.764 144.328 390.75 144.397 391.408 144.821ZM393.443 145.346C393.443 145.617 393.787 145.839 394.207 145.839C394.627 145.839 394.97 145.749 394.97 145.639C394.97 145.529 394.627 145.307 394.207 145.146C393.787 144.985 393.443 145.075 393.443 145.346ZM396.205 146.613C396.744 147.021 397.31 147.23 397.462 147.078C397.782 146.759 396.489 145.851 395.733 145.863C395.453 145.867 395.666 146.205 396.205 146.613ZM398.396 147.428C398.742 147.776 399.152 147.932 399.309 147.776C399.465 147.619 399.183 147.335 398.681 147.143C397.956 146.868 397.897 146.926 398.396 147.428ZM400.313 148.382C400.486 148.662 400.935 148.891 401.311 148.891C401.687 148.891 402.708 149.75 403.578 150.799C405.069 152.595 405.11 152.612 404.28 151.097C403.795 150.212 402.783 149.125 402.031 148.681C400.464 147.755 399.86 147.65 400.313 148.382ZM406.467 153.393C406.187 153.845 415.584 154.532 420.413 154.414C422.259 154.368 420.961 154.122 416.597 153.691C408.481 152.889 406.809 152.839 406.467 153.393ZM426.392 154.824C426.742 154.965 427.315 154.965 427.664 154.824C428.014 154.683 427.728 154.567 427.028 154.567C426.329 154.567 426.043 154.683 426.392 154.824ZM444.33 154.996C443.651 155.434 443.651 155.494 444.33 155.539C444.749 155.566 445.604 155.646 446.229 155.716C447.123 155.815 447.245 155.698 446.803 155.165C446.141 154.367 445.383 154.315 444.33 154.996ZM407.153 191.75C407.137 193.499 406.961 195.845 406.761 196.964C406.455 198.679 406.2 199.005 405.137 199.033C402.822 199.096 402.747 198.925 402.802 193.631L402.854 188.571H405.019H407.183L407.153 191.75ZM406.873 201.416C407.008 202.325 407.713 218.178 408.439 236.644C409.166 255.11 409.983 275.828 410.255 282.682C410.909 299.158 411.256 330.798 410.807 333.045C410.229 335.943 409.743 323.902 409.725 306.231C409.717 297.499 409.499 289.83 409.242 289.189C408.869 288.26 408.766 288.592 408.737 290.822C408.636 298.397 407.69 327.259 407.406 331.426C406.801 340.295 406.447 335.57 406.505 319.408L406.563 303.285L405.903 316.512C405.54 323.786 405.221 330.954 405.195 332.439C405.165 334.119 404.953 335.02 404.633 334.822C404.3 334.616 404.205 330.791 404.365 323.982C405.165 289.865 405.023 282.284 403.925 300.487C402.84 318.491 401.926 329.837 401.507 330.501C401.186 331.011 401.104 330.282 401.26 328.306C401.431 326.142 401.312 325.277 400.817 325.088C400.276 324.88 400.129 321.74 400.085 309.478C399.996 284.807 401.788 201.184 402.428 200.144C402.557 199.934 403.555 199.762 404.646 199.762C406.492 199.762 406.644 199.875 406.873 201.416ZM209.802 218.582C213.668 219.296 215.342 221.185 215.342 224.835C215.342 230.636 211.31 240.81 206.226 247.836C204.809 249.794 200.776 255.456 197.265 260.417C190.364 270.167 187.993 272.485 183.588 273.795C176.421 275.924 170.203 271.277 168.892 262.812C167.859 256.138 169.179 252.445 176.611 241.222C182.696 232.034 191.257 223.543 197.889 220.12C201.328 218.345 205.559 217.799 209.802 218.582ZM275.911 220.479C280.162 222.595 288.476 229.959 292.487 235.16C297.149 241.207 302.327 249.28 303.472 252.287C306.094 259.176 305.005 266.828 300.801 271.049C297.204 274.662 292.915 275.282 287.814 272.927C284.403 271.352 282.109 268.683 272.641 255.271C262.965 241.565 260.721 237.466 259.05 230.438C257.374 223.388 257.676 221.498 260.79 219.552C262.181 218.683 263.137 218.56 267.514 218.689C272.078 218.823 272.964 219.012 275.911 220.479ZM232.233 283.528C235.946 284.326 236.448 284.323 241.008 283.464C245.049 282.704 246.453 282.646 249.548 283.111C255.6 284.02 258.399 285.048 259.667 286.829C260.788 288.402 260.789 288.414 259.821 290.214C258.026 293.552 252.392 298.665 245.619 303.104C241.981 305.489 238.393 307.592 237.646 307.778C234.308 308.61 219.252 298.172 215.105 292.152C211.722 287.242 213.014 285.218 220.483 283.724C226.54 282.513 227.437 282.498 232.233 283.528ZM406.714 295.188C406.738 295.781 406.859 295.901 407.021 295.496C407.168 295.129 407.15 294.69 406.981 294.521C406.812 294.352 406.692 294.652 406.714 295.188ZM406.714 297.223C406.738 297.816 406.859 297.936 407.021 297.531C407.168 297.163 407.15 296.724 406.981 296.556C406.812 296.387 406.692 296.687 406.714 297.223ZM401.924 302.383C401.339 312.489 400.928 324.906 401.178 324.906C401.506 324.906 402.798 297.46 402.484 297.147C402.35 297.013 402.098 299.369 401.924 302.383Z" fill="black"/>
</svg>
