<svg width="200" height="200" viewBox="0 0 200 200" fill="none" xmlns="http://www.w3.org/2000/svg">
<mask id="path-1-inside-1_1497_921" fill="white">
<path d="M200 100C200 155.228 155.228 200 100 200C44.7715 200 0 155.228 0 100C0 44.7715 44.7715 0 100 0C155.228 0 200 44.7715 200 100ZM35 100C35 135.899 64.1015 165 100 165C135.898 165 165 135.899 165 100C165 64.1015 135.898 35 100 35C64.1015 35 35 64.1015 35 100Z"/>
</mask>
<path d="M200 100C200 155.228 155.228 200 100 200C44.7715 200 0 155.228 0 100C0 44.7715 44.7715 0 100 0C155.228 0 200 44.7715 200 100ZM35 100C35 135.899 64.1015 165 100 165C135.898 165 165 135.899 165 100C165 64.1015 135.898 35 100 35C64.1015 35 35 64.1015 35 100Z" stroke="#1E4391" stroke-width="2" mask="url(#path-1-inside-1_1497_921)"/>
<path d="M100 0C113.132 1.566e-07 126.136 2.58658 138.268 7.61205C150.401 12.6375 161.425 20.0035 170.711 29.2893C179.997 38.5752 187.363 49.5991 192.388 61.7317C197.413 73.8642 200 86.8678 200 100C200 113.132 197.413 126.136 192.388 138.268C187.362 150.401 179.997 161.425 170.711 170.711C161.425 179.997 150.401 187.362 138.268 192.388C126.136 197.413 113.132 200 100 200L100 182.5L100 165C108.536 165 116.988 163.319 124.874 160.052C132.761 156.786 139.926 151.998 145.962 145.962C151.998 139.926 156.786 132.761 160.052 124.874C163.319 116.988 165 108.536 165 100C165 91.4641 163.319 83.0118 160.052 75.1256C156.786 67.2394 151.998 60.0739 145.962 54.0381C139.926 48.0023 132.761 43.2144 124.874 39.9478C116.988 36.6813 108.536 35 100 35V0Z" fill="url(#paint0_linear_1497_921)"/>
<defs>
<linearGradient id="paint0_linear_1497_921" x1="150" y1="0" x2="150" y2="200" gradientUnits="userSpaceOnUse">
<stop offset="0.525" stop-color="#0A7CCD"/>
<stop offset="1" stop-color="#5BB158"/>
</linearGradient>
</defs>
</svg>
