<svg width="40" height="40" viewBox="0 0 40 40" fill="none" xmlns="http://www.w3.org/2000/svg">
<path d="M20.773 6.03938L31.7577 8.96863C32.1954 9.08536 32.5 9.48181 32.5 9.93486V22.6222C32.5 24.6283 31.4974 26.5017 29.8282 27.6145L20.5547 33.7968C20.2188 34.0207 19.7812 34.0207 19.4453 33.7968L10.1718 27.6145C8.50261 26.5017 7.5 24.6283 7.5 22.6222V9.93486C7.5 9.48181 7.80458 9.08536 8.24234 8.96863L19.227 6.03938C19.7335 5.90432 20.2665 5.90432 20.773 6.03938Z" stroke="#1E4391" stroke-width="3" stroke-linecap="round"/>
<path d="M15.8333 19.1667L18.9899 22.3233C19.0875 22.4209 19.2458 22.4209 19.3434 22.3233L25 16.6667" stroke="#1E4391" stroke-width="3" stroke-linecap="round"/>
</svg>
