<svg width="217" height="263" viewBox="0 0 217 263" fill="none" xmlns="http://www.w3.org/2000/svg">
<path d="M54.2976 190.362L53.2981 193.11C51.5443 197.933 50.6472 203.026 50.6472 208.157V213.177L51.5969 215.432C53.3854 219.68 55.8527 223.609 58.9021 227.065C60.393 228.754 62.0158 230.323 63.7552 231.755L64.5315 232.395C67.4355 234.786 70.5766 236.874 73.9057 238.626L77.5685 240.554L86.2381 243.748L89.8885 245.573L98.558 246.486L107.228 247.399H115.897H126.392L136.43 246.486L145.1 245.573L151.848 242.874C154.95 241.634 157.951 240.155 160.825 238.452C166.133 235.307 171.006 231.376 175.215 226.865C178.234 222.639 180.489 217.917 181.879 212.913L182.06 212.264L181.674 207.825C181.323 203.795 180.634 199.802 179.613 195.888L178.409 191.274L175.215 179.411L160.158 184.43L138.712 188.993L130.262 190.356C126.471 190.967 122.638 191.274 118.798 191.274H109.509L99.5123 190.734C94.9321 190.487 90.386 189.802 85.936 188.689L81.6752 187.624L64.7923 183.061C60.8215 181.572 56.4133 183.712 55.1275 187.754L54.2976 190.362Z" fill="white"/>
<path d="M50.6472 213.177H44.9103C40.8332 213.177 36.7634 213.523 32.7449 214.212L22.8133 215.914L23.5625 216.114C27.5552 217.179 31.1963 219.278 34.1183 222.2C35.399 223.481 36.5273 224.905 37.4806 226.445L39.5925 229.857C41.1802 232.422 42.5655 235.106 43.7361 237.886L45.628 242.379L47.305 247.41C48.0076 249.518 48.3657 251.725 48.3657 253.947C48.3657 255.959 48.0721 257.96 47.494 259.887L46.9969 261.544C51.2279 260.939 55.3339 259.657 59.1567 257.745L63.4234 255.612L73.9182 250.593L83.5004 247.399L89.8885 245.573L86.2381 243.748L77.5685 240.554L73.9057 238.626C70.5766 236.874 67.4355 234.786 64.5315 232.395L63.7552 231.755C62.0158 230.323 60.393 228.754 58.9021 227.065C55.8527 223.609 53.3854 219.68 51.5969 215.432L50.6472 213.177Z" fill="#5D5260"/>
<path d="M22.8133 215.914L19.5622 219.63C17.5399 221.941 16.4252 224.908 16.4252 227.979C16.4252 229.947 16.8835 231.889 17.7637 233.649L19.3183 236.758C20.1253 238.372 21.0899 239.903 22.1978 241.327L23.7401 243.31C25.8549 246.029 28.2309 248.535 30.834 250.791L33.7643 253.33L41.9776 258.806L46.9969 261.544L47.494 259.887C48.0721 257.96 48.3657 255.959 48.3657 253.947C48.3657 251.725 48.0076 249.518 47.305 247.41L45.628 242.379L43.7361 237.886C42.5655 235.106 41.1802 232.422 39.5925 229.857L37.4806 226.445C36.5273 224.905 35.399 223.481 34.1183 222.2C31.1963 219.278 27.5552 217.179 23.5625 216.114L22.8133 215.914Z" fill="#3F3840"/>
<path d="M186.623 261.914C186.915 261.969 187.218 261.908 187.465 261.742L196.661 255.612L202.809 250.581C205.391 248.469 207.677 246.019 209.605 243.297L211.833 240.151C213.56 237.713 214.722 234.92 215.234 231.976L215.575 230.015C216.036 227.367 215.699 224.641 214.607 222.185L214.285 221.46C213.216 219.055 211.344 217.096 208.99 215.919L204.874 217.74L204.528 217.932C202.037 219.316 199.786 221.092 197.861 223.192C196.458 224.723 195.239 226.414 194.23 228.23L191.186 233.71L187.079 242.379L184.59 248.424C184.122 249.56 183.816 250.756 183.68 251.977L183.536 253.279C183.18 256.479 184.319 259.665 186.623 261.914Z" fill="#3E3645"/>
<path d="M145.1 245.573L156.507 250.136L168.827 255.612L173.448 257.73C177.652 259.657 182.077 261.062 186.623 261.914C184.319 259.665 183.18 256.479 183.536 253.279L183.68 251.977C183.816 250.756 184.122 249.56 184.59 248.424L187.079 242.379L191.186 233.71L194.23 228.23C195.239 226.414 196.458 224.723 197.861 223.192C199.786 221.092 202.037 219.316 204.528 217.932L204.874 217.74L208.99 215.919C208.38 215.614 207.724 215.409 207.049 215.312L203.626 214.823C202.331 214.638 201.024 214.545 199.715 214.545H197.76C192.492 214.545 187.25 213.791 182.196 212.304L182.06 212.264L181.879 212.913C180.489 217.917 178.234 222.639 175.215 226.865C171.006 231.376 166.133 235.307 160.825 238.452C157.951 240.155 154.95 241.634 151.848 242.874L145.1 245.573Z" fill="#5D5262"/>
<path d="M95.8244 13.4693C93.7286 14.8665 92.0337 16.7864 90.9073 19.0393L90.5477 19.7584C88.6519 23.55 85.4444 26.5246 81.5209 28.1296L77.5685 29.7465L67.9864 34.7657L66.2392 36.1018C62.2481 39.1538 58.6519 42.6901 55.5334 46.6294L54.929 47.3928C52.686 50.226 50.6596 53.224 48.8667 56.3614L46.9089 59.7877C45.1456 62.8735 43.6485 66.104 42.4339 69.4441L38.7836 79.4825L36.0458 100.472V118.403C36.0458 120.742 36.2502 123.076 36.6566 125.379C38.0431 133.236 41.7391 140.501 47.2729 146.248L47.6208 146.609C49.6329 148.698 51.8572 150.573 54.2575 152.202L63.4234 158.421L73.9182 162.984L86.2381 167.091L93.9078 168.718C98.8197 169.76 103.886 170.285 108.908 170.285C113.52 170.285 118.177 169.842 122.705 168.961L125.644 168.39C130.087 167.526 134.439 166.245 138.642 164.564L141.635 163.366C146.063 161.595 150.305 159.388 154.297 156.778L160.158 152.946L169.74 145.677L173.39 142.907L176.351 140.469C179.531 137.85 182.308 134.777 184.594 131.35C186.547 128.42 188.124 125.255 189.287 121.932L190.729 117.811L190.863 117.438C192.284 113.458 193.011 109.263 193.011 105.036C193.011 102.608 192.771 100.185 192.295 97.8042L192.223 97.4435C191.836 95.5105 191.309 93.6083 190.646 91.7519L189.36 88.1521L185.254 79.9388L181.147 71.2692L179.917 68.3477C178.307 64.5228 176.368 60.8443 174.124 57.3534L173.39 56.2115L166.09 46.1731L155.595 37.0472L147.381 31.4739L147.256 31.3886C144.302 29.3841 141.203 27.602 137.984 26.0572L131.411 22.9021L124.567 22.4458L123.233 22.165C118.356 21.1382 113.385 20.6206 108.4 20.6206H107.684L106.713 21.9156C106.469 22.2405 106.43 22.6753 106.611 23.0386C106.715 23.2462 106.884 23.4145 107.091 23.5183L107.385 23.6653C107.583 23.7642 107.764 23.8945 107.92 24.0509L108.212 24.3431C108.759 24.8897 109.121 25.5935 109.248 26.3559C109.415 27.3557 109.165 28.3801 108.557 29.1909L108.335 29.4865C108.205 29.6596 108.063 29.8233 107.91 29.9763L106.771 31.1154L105.738 32.1483C105.515 32.3714 105.32 32.6211 105.158 32.8917L104.288 34.3414C104.13 34.6047 103.846 34.7657 103.539 34.7657C103.056 34.7657 102.665 34.3744 102.665 33.8917V33.7391C102.665 33.5169 102.737 33.3008 102.87 33.1231L103.793 31.8924C103.953 31.6789 104.128 31.4769 104.317 31.2882L104.45 31.1548C105.081 30.5242 105.606 29.7962 106.005 28.9986L106.315 28.3776L106.93 27.1485C107.117 26.7733 107.117 26.3316 106.93 25.9564C106.826 25.749 106.67 25.5722 106.477 25.4435L105.939 25.0852C105.627 24.8771 105.211 24.9183 104.946 25.1836L104.382 25.7478C104.154 25.9757 103.992 26.2614 103.914 26.5741L103.688 27.477C103.623 27.7382 103.388 27.9213 103.119 27.9213C102.693 27.9213 102.409 27.4804 102.585 27.0921L104.356 23.1975C104.445 23.001 104.553 22.8137 104.678 22.6381L106.771 19.708V17.0114C106.771 16.0841 106.555 15.1696 106.141 14.3402L105.996 14.0516C105.073 12.205 103.186 11.0385 101.121 11.0385C100.045 11.0385 98.9928 11.357 98.0974 11.9539L95.8244 13.4693Z" fill="white"/>
<path fill-rule="evenodd" clip-rule="evenodd" d="M160.158 152.946L154.297 156.778C150.305 159.388 146.063 161.595 141.635 163.366L138.642 164.564C134.439 166.245 130.087 167.526 125.644 168.39L122.705 168.961C118.177 169.842 113.52 170.285 108.908 170.285C103.886 170.285 98.8197 169.76 93.9078 168.718L86.2381 167.091L73.9182 162.984L63.4234 158.421L63.2607 158.479C59.1192 159.959 54.8508 161.055 50.5092 161.755L48.5858 162.066C44.7948 162.677 40.961 162.984 37.1211 162.984H29.6577L17.6595 164.639C16.8377 164.753 16.0256 164.927 15.2298 165.161L10.6622 166.504C9.38439 166.88 8.30564 167.743 7.6588 168.908C6.86079 170.344 6.80789 172.078 7.51686 173.561L9.62053 177.959C10.7876 180.399 12.6131 182.465 14.8914 183.923L19.2144 186.69C21.6034 188.219 24.1821 189.429 26.8849 190.289L27.4144 190.457C31.0177 191.604 34.7764 192.187 38.5577 192.187H38.9058C41.5532 192.187 44.1917 191.881 46.7687 191.274L47.0939 191.198C49.4548 190.642 51.8721 190.362 54.2976 190.362L55.1275 187.754C56.4133 183.712 60.8215 181.572 64.7923 183.061L81.6752 187.624L85.936 188.689C90.386 189.802 94.9321 190.487 99.5123 190.734L109.509 191.274H118.798C122.638 191.274 126.471 190.967 130.262 190.356L138.712 188.993L160.158 184.43L175.215 179.411L176.045 179.046C183.052 175.963 189.523 171.782 195.213 166.66L195.749 166.178L196.903 164.831C201.579 159.376 205.348 153.207 208.069 146.558L210.148 138.931C210.586 137.326 210.899 135.688 211.082 134.034L211.53 130.003C211.655 128.881 211.579 127.745 211.305 126.65L210.703 124.242C210.206 122.256 208.638 120.715 206.643 120.255C204.957 119.866 203.186 120.301 201.873 121.427L197.574 125.112L189.36 132.413L182.972 138.344L179.795 140.789C177.966 142.196 175.967 143.367 173.846 144.276L169.74 145.677L160.158 152.946Z" fill="#5D5260"/>
<path d="M135.593 14.241C134.027 16.6612 132.739 19.2504 131.754 21.9595L131.411 22.9021L137.984 26.0572C141.203 27.602 144.302 29.3841 147.256 31.3886L147.381 31.4739L149.167 27.1929C150.097 24.9623 151.455 22.9354 153.164 21.2266L153.709 20.6812C154.956 19.4347 156.421 18.4283 158.032 17.7124C159.14 17.2196 160.307 16.8693 161.504 16.6699L164.729 16.1323C165.027 16.0826 165.329 16.0577 165.631 16.0577H167.915C168.202 16.0577 168.472 16.1929 168.645 16.4227C169.096 17.0243 168.667 17.8829 167.915 17.8829H167.002H163.608C163.444 17.8829 163.287 17.948 163.171 18.0639C162.84 18.3945 162.982 18.9584 163.43 19.0928L166.253 19.9395C166.739 20.0855 167.167 20.3837 167.472 20.7904L169.151 23.0296C169.543 23.5519 169.887 24.1085 170.179 24.6925L170.37 25.0759C171.456 27.2472 172.021 29.6415 172.021 32.0691V32.2087C172.021 34.2006 171.655 36.1754 170.94 38.0345L170.686 38.6939C170.058 40.3268 169.219 41.8705 168.19 43.2854L166.09 46.1731L173.39 56.2115L176.128 53.0175L177.755 51.0288C179.398 49.0203 180.725 46.7722 181.689 44.3626C182.541 42.2332 183.101 39.9985 183.354 37.719L183.885 32.9406V29.7746C183.885 26.4295 183.372 23.1041 182.365 19.9142L182.222 19.4627C181.508 17.2013 180.519 15.0363 179.276 13.0166L178.664 12.023C177.889 10.7626 176.968 9.59723 175.922 8.55071C174.249 6.87782 172.278 5.53255 170.11 4.58428L168.337 3.80838C166.841 3.15406 165.293 2.62617 163.71 2.23024L160.981 1.54813C159.525 1.18408 158.03 1 156.529 1C153.811 1 151.126 1.60359 148.67 2.7672L147.213 3.45739C144.905 4.5507 142.774 5.98419 140.891 7.70995L140.768 7.82281C139.1 9.35195 137.633 11.0875 136.404 12.9874L135.593 14.241Z" fill="#5E5260"/>
<path d="M155.595 37.0472L166.09 46.1731L168.19 43.2854C169.219 41.8705 170.058 40.3268 170.686 38.6939L170.94 38.0345C171.655 36.1754 172.021 34.2006 172.021 32.2087V32.0691C172.021 29.6415 171.456 27.2472 170.37 25.0759L170.179 24.6925C169.887 24.1085 169.543 23.5519 169.151 23.0296L167.472 20.7904C167.167 20.3837 166.739 20.0855 166.253 19.9395L163.43 19.0928C162.982 18.9584 162.84 18.3945 163.171 18.0639C163.287 17.948 163.444 17.8829 163.608 17.8829H167.002H167.915C168.667 17.8829 169.096 17.0243 168.645 16.4227C168.472 16.1929 168.202 16.0577 167.915 16.0577H165.631C165.329 16.0577 165.027 16.0826 164.729 16.1323L161.504 16.6699C160.307 16.8693 159.14 17.2196 158.032 17.7124C156.421 18.4283 154.956 19.4347 153.709 20.6812L153.164 21.2266C151.455 22.9354 150.097 24.9623 149.167 27.1929L147.381 31.4739L155.595 37.0472Z" fill="#3F3742"/>
<path d="M67.9864 34.7657L62.96 30.4574C59.9466 27.8745 56.4999 25.8451 52.7793 24.4632L48.4626 22.8599C44.5462 21.4052 40.2674 21.2396 36.2502 22.3874C34.0027 23.0296 31.8881 24.0684 30.0063 25.455L28.4639 26.5915C25.6437 28.6696 23.3129 31.3402 21.6354 34.4156C19.7136 37.9388 18.7066 41.8879 18.7066 45.9011V47.3844C18.7066 51.6968 19.6425 55.9578 21.4497 59.8733L23.1173 63.4865C23.8261 65.0223 24.6535 66.5006 25.5917 67.9081C28.2689 71.9239 31.8045 75.2951 35.9431 77.7783L38.7836 79.4825L42.4339 69.4441L37.9233 65.2804C36.978 64.4078 36.1191 63.4462 35.3584 62.4089L34.9106 61.7983C32.6836 58.7615 31.4829 55.0937 31.4829 51.3278V49.8294C31.4829 48.9188 31.6297 48.0141 31.9176 47.1503C32.2337 46.2021 32.715 45.3173 33.3394 44.5369L34.102 43.5835C34.1809 43.485 34.2695 43.3946 34.3665 43.3138L36.0235 41.9329C36.4315 41.5929 36.3078 40.937 35.8039 40.769C35.6647 40.7226 35.5143 40.7226 35.3751 40.769L33.4788 41.4011C33.0618 41.5401 32.6595 41.72 32.2779 41.9381L29.6577 43.4353C28.8601 43.7544 28.091 42.9185 28.4751 42.1501L28.5911 41.9181C28.6911 41.7182 28.8532 41.5561 29.053 41.4562L32.1939 39.8857C33.5323 39.2165 34.9879 38.8134 36.4799 38.6986L37.0622 38.6538C39.0995 38.4971 41.147 38.7713 43.0713 39.4585L44.4356 39.9458C45.8351 40.4456 47.1786 41.0902 48.4442 41.869L52.4724 44.3479L55.5334 46.6294C58.6519 42.6901 62.2481 39.1538 66.2392 36.1018L67.9864 34.7657Z" fill="#5E5260"/>
<path d="M42.4339 69.4441C43.6485 66.104 45.1456 62.8735 46.9089 59.7877L48.8667 56.3614C50.6596 53.224 52.686 50.226 54.929 47.3928L55.5334 46.6294L52.4724 44.3479L48.4442 41.869C47.1786 41.0902 45.8351 40.4456 44.4356 39.9458L43.0713 39.4585C41.147 38.7713 39.0995 38.4971 37.0622 38.6538L36.4799 38.6986C34.9879 38.8134 33.5323 39.2165 32.1939 39.8857L29.053 41.4562C28.8532 41.5561 28.6911 41.7182 28.5911 41.9181L28.4751 42.1501C28.091 42.9185 28.8601 43.7544 29.6577 43.4353L32.2779 41.9381C32.6595 41.72 33.0618 41.5401 33.4788 41.4011L35.3751 40.769C35.5143 40.7226 35.6647 40.7226 35.8039 40.769C36.3078 40.937 36.4315 41.5929 36.0235 41.9329L34.3665 43.3138C34.2695 43.3946 34.1809 43.485 34.102 43.5835L33.3394 44.5369C32.715 45.3173 32.2337 46.2021 31.9176 47.1503C31.6297 48.0141 31.4829 48.9188 31.4829 49.8294V51.3278C31.4829 55.0937 32.6836 58.7615 34.9106 61.7983L35.3584 62.4089C36.1191 63.4462 36.978 64.4078 37.9233 65.2804L42.4339 69.4441Z" fill="#3D363E"/>
<path d="M106.771 19.708L104.678 22.6381C104.553 22.8137 104.445 23.001 104.356 23.1975L102.585 27.0921C102.409 27.4804 102.693 27.9213 103.119 27.9213C103.388 27.9213 103.623 27.7382 103.688 27.477L103.914 26.5741C103.992 26.2614 104.154 25.9757 104.382 25.7478L104.946 25.1836C105.211 24.9183 105.627 24.8771 105.939 25.0852L106.477 25.4435C106.67 25.5722 106.826 25.749 106.93 25.9564C107.117 26.3316 107.117 26.7733 106.93 27.1485L106.315 28.3776L106.005 28.9986C105.606 29.7962 105.081 30.5242 104.45 31.1548L104.317 31.2882C104.128 31.4769 103.953 31.6789 103.793 31.8924L102.87 33.1231C102.737 33.3008 102.665 33.5169 102.665 33.7391V33.8917C102.665 34.3744 103.056 34.7657 103.539 34.7657C103.846 34.7657 104.13 34.6047 104.288 34.3414L105.158 32.8917C105.32 32.6211 105.515 32.3714 105.738 32.1483L106.771 31.1154L107.91 29.9763C108.063 29.8233 108.205 29.6596 108.335 29.4865L108.557 29.1909C109.165 28.3801 109.415 27.3557 109.248 26.3559C109.121 25.5935 108.759 24.8897 108.212 24.3431L107.92 24.0509C107.764 23.8945 107.583 23.7642 107.385 23.6653L107.091 23.5183C106.884 23.4145 106.715 23.2462 106.611 23.0386C106.43 22.6753 106.469 22.2405 106.713 21.9156L107.684 20.6206L106.771 19.708Z" fill="black"/>
<path d="M106.771 19.708V17.0114C106.771 16.0841 106.555 15.1696 106.141 14.3402L105.996 14.0516C105.073 12.205 103.186 11.0385 101.121 11.0385V11.0385C100.045 11.0385 98.9928 11.357 98.0974 11.9539L95.8244 13.4693C93.7286 14.8665 92.0337 16.7864 90.9073 19.0393L90.5477 19.7584C88.6519 23.55 85.4444 26.5246 81.5209 28.1296L77.5685 29.7465L67.9864 34.7657M106.771 19.708L104.678 22.6381C104.553 22.8137 104.445 23.001 104.356 23.1975L102.585 27.0921C102.409 27.4804 102.693 27.9213 103.119 27.9213V27.9213C103.388 27.9213 103.623 27.7382 103.688 27.477L103.914 26.5741C103.992 26.2614 104.154 25.9757 104.382 25.7478L104.946 25.1836V25.1836C105.211 24.9183 105.627 24.8771 105.939 25.0852L106.477 25.4435C106.67 25.5722 106.826 25.749 106.93 25.9564V25.9564C107.117 26.3316 107.117 26.7733 106.93 27.1485L106.315 28.3776L106.005 28.9986C105.606 29.7962 105.081 30.5242 104.45 31.1548L104.317 31.2882C104.128 31.4769 103.953 31.6789 103.793 31.8924L102.87 33.1231C102.737 33.3008 102.665 33.5169 102.665 33.7391V33.8917C102.665 34.3744 103.056 34.7657 103.539 34.7657V34.7657C103.846 34.7657 104.13 34.6047 104.288 34.3414L105.158 32.8917C105.32 32.6211 105.515 32.3714 105.738 32.1483L106.771 31.1154L107.91 29.9763C108.063 29.8233 108.205 29.6596 108.335 29.4865L108.557 29.1909C109.165 28.3801 109.415 27.3557 109.248 26.3559V26.3559C109.121 25.5935 108.759 24.8897 108.212 24.3431L107.92 24.0509C107.764 23.8945 107.583 23.7642 107.385 23.6653L107.091 23.5183C106.884 23.4145 106.715 23.2462 106.611 23.0386V23.0386C106.43 22.6753 106.469 22.2405 106.713 21.9156L107.684 20.6206M106.771 19.708L107.684 20.6206M107.684 20.6206H108.4C113.385 20.6206 118.356 21.1382 123.233 22.165L124.567 22.4458L131.411 22.9021M131.411 22.9021L131.754 21.9595C132.739 19.2504 134.027 16.6612 135.593 14.241L136.404 12.9874C137.633 11.0875 139.1 9.35195 140.768 7.82281L140.891 7.70995C142.774 5.98419 144.905 4.5507 147.213 3.45739L148.67 2.7672C151.126 1.60359 153.811 1 156.529 1V1C158.03 1 159.525 1.18408 160.981 1.54813L163.71 2.23024C165.293 2.62617 166.841 3.15406 168.337 3.80838L170.11 4.58428C172.278 5.53255 174.249 6.87782 175.922 8.55071V8.55071C176.968 9.59723 177.889 10.7626 178.664 12.023L179.276 13.0166C180.519 15.0363 181.508 17.2013 182.222 19.4627L182.365 19.9142C183.372 23.1041 183.885 26.4295 183.885 29.7746V32.9406L183.354 37.719C183.101 39.9985 182.541 42.2332 181.689 44.3626V44.3626C180.725 46.7722 179.398 49.0203 177.755 51.0288L176.128 53.0175L173.39 56.2115M131.411 22.9021L137.984 26.0572C141.203 27.602 144.302 29.3841 147.256 31.3886L147.381 31.4739M173.39 56.2115L174.124 57.3534C176.368 60.8444 178.307 64.5228 179.917 68.3477L181.147 71.2692L185.254 79.9388L189.36 88.1521L190.646 91.7519C191.309 93.6083 191.836 95.5105 192.223 97.4435L192.295 97.8042C192.771 100.185 193.011 102.608 193.011 105.036V105.036C193.011 109.263 192.284 113.458 190.863 117.438L190.729 117.811L189.287 121.932C188.124 125.255 186.547 128.42 184.594 131.35V131.35C182.308 134.777 179.531 137.85 176.351 140.469L173.39 142.907L169.74 145.677M173.39 56.2115L166.09 46.1731M63.4234 158.421L73.9182 162.984L86.2381 167.091L93.9078 168.718C98.8197 169.76 103.886 170.285 108.908 170.285V170.285C113.52 170.285 118.177 169.842 122.705 168.961L125.644 168.39C130.087 167.526 134.439 166.245 138.642 164.564L141.635 163.366C146.063 161.595 150.305 159.388 154.297 156.778L160.158 152.946L169.74 145.677M63.4234 158.421L63.2607 158.479C59.1192 159.959 54.8508 161.055 50.5092 161.755L48.5858 162.066C44.7948 162.677 40.961 162.984 37.1211 162.984H29.6577L17.6595 164.639C16.8377 164.753 16.0256 164.927 15.2298 165.161L10.6622 166.504C9.38439 166.88 8.30564 167.744 7.6588 168.908V168.908C6.86079 170.344 6.80789 172.078 7.51686 173.561L9.62053 177.959C10.7876 180.399 12.6131 182.465 14.8914 183.923L19.2144 186.69C21.6034 188.219 24.1821 189.429 26.8849 190.289L27.4144 190.457C31.0177 191.604 34.7764 192.187 38.5577 192.187H38.9058C41.5532 192.187 44.1917 191.881 46.7687 191.274L47.0939 191.198C49.4548 190.642 51.8721 190.362 54.2976 190.362V190.362M63.4234 158.421L54.2575 152.202C51.8572 150.573 49.6329 148.698 47.6208 146.609L47.2729 146.248C41.7391 140.501 38.0431 133.236 36.6566 125.379V125.379C36.2502 123.076 36.0458 120.742 36.0458 118.403V100.472L38.7836 79.4825M54.2976 190.362L53.2981 193.11C51.5443 197.933 50.6472 203.026 50.6472 208.157V208.157V213.177M54.2976 190.362L55.1275 187.754C56.4133 183.712 60.8215 181.572 64.7923 183.061V183.061L81.6752 187.624L85.936 188.689C90.386 189.802 94.9321 190.487 99.5123 190.734L109.509 191.274H118.798C122.638 191.274 126.471 190.967 130.262 190.356L138.712 188.993L160.158 184.43L175.215 179.411M50.6472 213.177H44.9103C40.8332 213.177 36.7634 213.523 32.7449 214.212L22.8133 215.914M50.6472 213.177L51.5969 215.432C53.3854 219.68 55.8527 223.609 58.9021 227.065V227.065C60.393 228.754 62.0158 230.323 63.7552 231.755L64.5315 232.395C67.4355 234.786 70.5766 236.874 73.9057 238.626L77.5685 240.554L86.2381 243.748L89.8885 245.573M22.8133 215.914L19.5622 219.63C17.5399 221.941 16.4252 224.908 16.4252 227.979V227.979C16.4252 229.947 16.8835 231.889 17.7637 233.649L19.3183 236.758C20.1253 238.372 21.0899 239.903 22.1978 241.327L23.7401 243.31C25.8549 246.029 28.2309 248.535 30.834 250.791L33.7643 253.33L41.9776 258.806L46.9969 261.544M22.8133 215.914L23.5625 216.114C27.5552 217.179 31.1963 219.278 34.1183 222.2V222.2C35.399 223.481 36.5273 224.905 37.4806 226.445L39.5925 229.857C41.1802 232.422 42.5655 235.106 43.7361 237.886L45.628 242.379L47.305 247.41C48.0076 249.518 48.3657 251.725 48.3657 253.947V253.947C48.3657 255.959 48.0721 257.96 47.494 259.887L46.9969 261.544M46.9969 261.544V261.544C51.2279 260.939 55.3339 259.657 59.1567 257.745L63.4234 255.612L73.9182 250.593L83.5004 247.399L89.8885 245.573M89.8885 245.573L98.558 246.486L107.228 247.399H115.897H126.392L136.43 246.486L145.1 245.573M145.1 245.573L156.507 250.136L168.827 255.612L173.448 257.73C177.652 259.657 182.077 261.062 186.623 261.914V261.914M145.1 245.573L151.848 242.874C154.95 241.634 157.951 240.155 160.825 238.452V238.452C166.133 235.307 171.006 231.376 175.215 226.865V226.865V226.865C178.234 222.639 180.489 217.917 181.879 212.913L182.06 212.264M182.06 212.264L182.196 212.304C187.25 213.791 192.492 214.545 197.76 214.545H199.715C201.024 214.545 202.331 214.638 203.626 214.823L207.049 215.312C207.724 215.409 208.38 215.614 208.99 215.919V215.919M182.06 212.264L181.674 207.825C181.323 203.795 180.634 199.802 179.613 195.888L178.409 191.274L175.215 179.411M175.215 179.411L176.045 179.046C183.052 175.963 189.523 171.782 195.213 166.66L195.749 166.178L196.903 164.831C201.579 159.376 205.348 153.207 208.069 146.558V146.558L210.148 138.931C210.586 137.326 210.899 135.688 211.082 134.034L211.53 130.003C211.655 128.881 211.579 127.745 211.305 126.65L210.703 124.242C210.206 122.256 208.638 120.715 206.643 120.255V120.255C204.957 119.866 203.186 120.301 201.873 121.427L197.574 125.112L189.36 132.413L182.972 138.344L179.795 140.789C177.966 142.196 175.967 143.367 173.846 144.276V144.276L169.74 145.677M186.623 261.914V261.914C186.915 261.969 187.218 261.908 187.465 261.742L196.661 255.612L202.809 250.581C205.391 248.469 207.677 246.019 209.605 243.297L211.833 240.151C213.56 237.713 214.722 234.92 215.234 231.976L215.575 230.015C216.036 227.367 215.699 224.641 214.607 222.185L214.285 221.46C213.216 219.055 211.344 217.096 208.99 215.919V215.919M186.623 261.914V261.914C184.319 259.665 183.18 256.479 183.536 253.279L183.68 251.977C183.816 250.756 184.122 249.56 184.59 248.424L187.079 242.379L191.186 233.71L194.23 228.23C195.239 226.414 196.458 224.723 197.861 223.192V223.192C199.786 221.092 202.037 219.316 204.528 217.932L204.874 217.74L208.99 215.919M67.9864 34.7657L62.96 30.4574C59.9466 27.8745 56.4999 25.8451 52.7793 24.4632L48.4626 22.8599C44.5462 21.4052 40.2674 21.2396 36.2502 22.3874V22.3874C34.0027 23.0296 31.8881 24.0684 30.0063 25.455L28.4639 26.5915C25.6437 28.6696 23.3129 31.3402 21.6354 34.4157V34.4157C19.7136 37.9388 18.7066 41.8879 18.7066 45.9011V47.3844C18.7066 51.6968 19.6425 55.9578 21.4497 59.8733L23.1173 63.4865C23.8261 65.0223 24.6534 66.5006 25.5917 67.908V67.908C28.2689 71.9239 31.8045 75.2951 35.9431 77.7783L38.7836 79.4825M67.9864 34.7657L66.2392 36.1018C62.2481 39.1538 58.6519 42.6901 55.5333 46.6294V46.6294M38.7836 79.4825L42.4339 69.4441M166.09 46.1731L155.595 37.0472L147.381 31.4739M166.09 46.1731L168.19 43.2854C169.219 41.8705 170.058 40.3268 170.686 38.6939L170.94 38.0345C171.655 36.1754 172.021 34.2006 172.021 32.2087V32.0691C172.021 29.6415 171.456 27.2472 170.37 25.0759L170.179 24.6925C169.887 24.1085 169.543 23.5519 169.151 23.0296L167.472 20.7904C167.167 20.3837 166.739 20.0855 166.253 19.9395L163.43 19.0928C162.982 18.9584 162.84 18.3945 163.171 18.0639V18.0639C163.287 17.948 163.444 17.8829 163.608 17.8829H167.002H167.915C168.667 17.8829 169.096 17.0243 168.645 16.4227V16.4227C168.472 16.1929 168.202 16.0577 167.915 16.0577H165.631C165.329 16.0577 165.027 16.0826 164.729 16.1323L161.504 16.6699C160.307 16.8693 159.14 17.2196 158.032 17.7124V17.7124C156.421 18.4283 154.956 19.4347 153.709 20.6812L153.164 21.2266C151.455 22.9354 150.097 24.9623 149.167 27.1929L147.381 31.4739M42.4339 69.4441V69.4441C43.6485 66.104 45.1456 62.8735 46.9089 59.7877L48.8668 56.3614C50.6596 53.224 52.686 50.226 54.929 47.3928L55.5333 46.6294M42.4339 69.4441L37.9233 65.2804C36.978 64.4078 36.1191 63.4462 35.3584 62.4089L34.9106 61.7983C32.6836 58.7615 31.4829 55.0937 31.4829 51.3278V49.8294C31.4829 48.9188 31.6297 48.0141 31.9176 47.1503V47.1503C32.2337 46.2021 32.715 45.3173 33.3394 44.5369L34.102 43.5835C34.1809 43.485 34.2695 43.3946 34.3665 43.3138L36.0235 41.9329C36.4315 41.5929 36.3078 40.937 35.8039 40.769V40.769C35.6647 40.7226 35.5143 40.7226 35.3751 40.769L33.4788 41.4011C33.0618 41.5401 32.6595 41.72 32.2779 41.9381L29.6577 43.4353V43.4353C28.8601 43.7544 28.091 42.9185 28.4751 42.1501L28.5911 41.9181C28.6911 41.7182 28.8532 41.5561 29.053 41.4562L32.1939 39.8857C33.5323 39.2165 34.9879 38.8134 36.4799 38.6986L37.0622 38.6538C39.0995 38.4971 41.147 38.7713 43.0713 39.4585L44.4356 39.9458C45.8351 40.4456 47.1786 41.0902 48.4442 41.869L52.4724 44.3479L55.5333 46.6294" stroke="black"/>
<path d="M21.9023 188.082H30.1156L39.2415 186.257L47.4548 182.15L54.2992 177.587L60.231 170.287L58.4058 177.587L57.0369 182.15L54.2992 190.364L47.4548 192.189L39.2415 193.101L30.1156 192.189L21.9023 188.082Z" fill="#403541"/>
<path d="M156.51 154.317L173.849 141.997L176.587 139.715L177.499 138.803L178.868 137.89L182.518 133.783L186.17 127.852L180.694 130.589L159.705 141.997L145.559 147.928L129.667 152.733C127.187 153.483 124.643 154.002 122.067 154.283L100.843 156.598H86.6975L69.5369 154.31C67.2922 154.011 65.0754 153.53 62.9081 152.874L51.1057 149.297L62.0568 157.054L73.0087 162.986L85.7817 166.784C88.5145 167.596 91.323 168.128 94.1636 168.372L102.642 169.098C104.785 169.282 106.94 169.301 109.086 169.154L121.606 168.301C124.487 168.104 127.34 167.611 130.12 166.829L135.126 165.422C138.719 164.411 142.162 162.926 145.363 161.005L156.51 154.317Z" fill="#C9DBF1"/>
<path d="M73.0087 162.986L82.5671 168.721C85.3117 170.368 88.2356 171.696 91.2818 172.678L94.5551 173.734C98.7212 175.078 103.072 175.762 107.449 175.762H115.397C118.461 175.762 121.516 175.427 124.508 174.762L133.887 172.678C138.294 171.699 142.514 170.015 146.385 167.693L152.847 163.815C155.283 162.354 157.565 160.649 159.656 158.726L170.351 148.899C172.313 147.096 173.555 144.645 173.849 141.997L156.51 154.317L145.363 161.005C142.162 162.926 138.719 164.411 135.126 165.422L130.12 166.829C127.34 167.611 124.487 168.104 121.606 168.301L109.086 169.154C106.94 169.301 104.785 169.282 102.642 169.098L94.1636 168.372C91.323 168.128 88.5145 167.596 85.7817 166.784L73.0087 162.986Z" fill="#3F3544"/>
<path d="M175.119 179.19L174.197 179.497L173.275 179.804L179.094 172.277L181.57 168.59L182.324 167.76C183.867 166.063 185.546 164.495 187.345 163.073L192.044 159.356C193.601 158.124 195.069 156.783 196.437 155.343L200.26 151.319C202.117 149.364 203.782 147.235 205.231 144.961L210.142 137.253L209.835 138.482L209.527 139.711L208.913 141.862L207.684 146.163L206.762 148.621L205.534 151.386L204.476 153.5C203.544 155.365 202.474 157.158 201.275 158.863L199.082 161.985L197.802 163.498C196.404 165.15 194.881 166.691 193.247 168.108L191.094 169.973L187.1 173.045L184.642 174.581L181.877 176.117L179.112 177.346L176.962 178.268L175.733 178.882L175.119 179.19Z" fill="#3F3544"/>
<path d="M62.0577 229.605L63.197 230.649C66.0738 233.286 69.304 235.51 72.7945 237.255L73.9213 237.818L76.0305 239.049C78.2699 240.355 80.6255 241.451 83.067 242.323L85.785 243.294C88.5048 244.503 91.4024 245.263 94.3653 245.545L99.4738 246.032L107.231 246.944H117.726H126.851L139.258 245.672C142.836 245.305 146.352 244.48 149.72 243.217L152.261 242.264C154.482 241.431 156.628 240.412 158.676 239.217L161.073 237.818L162.132 237.214C165.662 235.196 168.848 232.628 171.568 229.605L161.986 231.887L151.491 234.624L137.376 237.158C134.928 237.597 132.444 237.818 129.956 237.818H112.706L92.9485 236.238C90.9133 236.075 88.8926 235.764 86.9027 235.307L62.0577 229.605Z" fill="#C8DCF3"/>
<path d="M205.334 236.449C205.334 237.962 206.56 239.187 208.072 239.187C209.584 239.187 210.809 237.962 210.809 236.449C210.809 234.937 209.584 233.712 208.072 233.712C206.56 233.712 205.334 234.937 205.334 236.449Z" fill="#2D252F"/>
<path d="M205.334 229.149C205.334 230.661 206.56 231.887 208.072 231.887C209.584 231.887 210.809 230.661 210.809 229.149C210.809 227.637 209.584 226.411 208.072 226.411C206.56 226.411 205.334 227.637 205.334 229.149Z" fill="#2D252F"/>
<path d="M197.121 230.974C197.121 232.486 198.346 233.712 199.858 233.712C201.37 233.712 202.596 232.486 202.596 230.974C202.596 229.462 201.37 228.236 199.858 228.236C198.346 228.236 197.121 229.462 197.121 230.974Z" fill="#2D252F"/>
<path d="M192.139 244.212C190.354 246.987 190.401 250.08 192.244 251.12C194.087 252.161 197.028 250.755 198.812 247.98C200.597 245.205 200.55 242.112 198.707 241.071C196.864 240.031 193.923 241.437 192.139 244.212Z" fill="#2D252F"/>
<path d="M40.3105 244.212C41.9825 246.987 41.9382 250.08 40.2114 251.12C38.4846 252.161 35.7293 250.755 34.0572 247.98C32.3852 245.205 32.4295 242.112 34.1563 241.071C35.8831 240.031 38.6384 241.437 40.3105 244.212Z" fill="#302A34"/>
<path d="M35.5926 230.974C35.5926 232.486 34.3669 233.712 32.8549 233.712C31.3428 233.712 30.1171 232.486 30.1171 230.974C30.1171 229.462 31.3428 228.236 32.8549 228.236C34.3669 228.236 35.5926 229.462 35.5926 230.974Z" fill="#302A34"/>
<path d="M28.2919 229.149C28.2919 230.661 27.0662 231.887 25.5542 231.887C24.0421 231.887 22.8164 230.661 22.8164 229.149C22.8164 227.637 24.0421 226.411 25.5542 226.411C27.0662 226.411 28.2919 227.637 28.2919 229.149Z" fill="#302A34"/>
<path d="M28.2919 236.449C28.2919 237.962 27.0662 239.187 25.5542 239.187C24.0421 239.187 22.8164 237.962 22.8164 236.449C22.8164 234.937 24.0421 233.712 25.5542 233.712C27.0662 233.712 28.2919 234.937 28.2919 236.449Z" fill="#302A34"/>
<path d="M22.476 160.181C30.2537 158.017 35.1413 150.169 33.5028 142.138C31.7902 133.742 23.5962 128.325 15.2009 130.038C6.80568 131.75 1.38834 139.944 3.10095 148.34C4.73942 156.371 12.3103 161.678 20.3142 160.622C20.6764 160.574 21.0394 160.514 21.4028 160.44C21.7662 160.365 22.1241 160.279 22.476 160.181Z" fill="#65BFFF"/>
<path d="M22.476 160.181L30.8604 191.11C30.9897 191.588 30.6893 192.075 30.205 192.174V192.174V192.174C29.7006 192.277 29.2023 191.973 29.0619 191.478L20.3142 160.622M22.476 160.181C30.2537 158.017 35.1413 150.169 33.5028 142.138M22.476 160.181C22.1241 160.279 21.7662 160.365 21.4028 160.44M20.3142 160.622C12.3103 161.678 4.73942 156.371 3.10095 148.34M20.3142 160.622C20.6764 160.574 21.0394 160.514 21.4028 160.44M33.5028 142.138C35.2154 150.533 29.7981 158.727 21.4028 160.44M33.5028 142.138C31.7902 133.742 23.5962 128.325 15.2009 130.038C6.80568 131.75 1.38834 139.944 3.10095 148.34M21.4028 160.44C13.0076 162.152 4.81355 156.735 3.10095 148.34" stroke="black" stroke-width="4"/>
<path d="M30.5744 170.287L26.924 171.656L22.8174 173.024L20.9922 173.937V176.218L22.8174 178.5L26.0114 179.869L29.2055 180.781L31.4869 181.694L31.9432 178.5L31.0306 174.393L30.5744 170.287Z" fill="#5D5260"/>
<path d="M23.1764 172.196L30.1995 170.245C30.5192 170.156 30.7928 170.488 30.6444 170.785C30.599 170.876 30.5193 170.945 30.423 170.977L29.2046 171.383L27.8357 171.84L26.0105 172.296L24.1854 172.752L23.0484 173.131C22.8945 173.183 22.7481 173.254 22.6131 173.344L22.2069 173.615C21.7325 173.931 21.4476 174.464 21.4476 175.034V175.647C21.4476 176.131 21.6399 176.595 21.9822 176.937L22.2013 177.156C22.3068 177.262 22.4249 177.354 22.5528 177.431L24.4698 178.581C24.584 178.649 24.7054 178.705 24.8317 178.747L27.3794 179.597L29.6609 180.509L31.1672 180.886C31.3546 180.933 31.4861 181.101 31.4861 181.294C31.4861 181.581 31.2046 181.784 30.9321 181.693L28.7483 180.966L24.8477 179.665C24.7108 179.62 24.5798 179.558 24.4575 179.482L21.7108 177.765C21.2546 177.48 20.9474 177.008 20.8713 176.475L20.6824 175.153C20.5911 174.514 20.8446 173.873 21.3491 173.47L22.5247 172.529C22.7172 172.375 22.9389 172.262 23.1764 172.196Z" fill="#3F3840" stroke="black"/>
<path d="M10.0424 140.169C10.0424 140.925 9.42958 141.538 8.67357 141.538C7.91756 141.538 7.30469 140.925 7.30469 140.169C7.30469 139.413 7.91756 138.801 8.67357 138.801C9.42958 138.801 10.0424 139.413 10.0424 140.169Z" fill="#91D0FE"/>
<path d="M84.8726 85.8709C87.3427 87.2006 87.1745 91.9066 85.7852 94.5405C82.7018 100.388 74.8789 94.2436 77.5719 88.1524C79.0108 84.8976 82.0521 84.3529 84.8726 85.8709Z" fill="#FCFCFA"/>
<path fill-rule="evenodd" clip-rule="evenodd" d="M86.4224 71.2694C107.027 83.3918 98.1031 115.399 74.8341 121.22C69.0629 122.664 64.6267 122.953 59.3592 118.868C54.7139 115.264 51.9838 110.146 50.4664 102.199C48.3349 91.0368 49.7597 80.1258 57.951 73.4325L61.81 70.6019C64.0765 68.9395 66.6928 67.8169 69.4593 67.3197C71.7143 66.9144 74.0251 66.9326 76.2734 67.3735L76.9953 67.515C78.8926 67.887 80.7337 68.5034 82.4726 69.3489L86.4224 71.2694ZM69.4825 88.9698C70.3839 86.8473 71.5665 85.5146 72.8714 84.5019C79.8307 79.1001 88.0588 82.3534 90.3481 91.4692C92.2362 98.9874 88.1368 104.09 80.7659 105.948C75.8824 107.179 72.878 105.969 70.7274 100.928C69.7053 98.5321 68.2864 96.3375 66.1645 95.453C64.4788 94.7513 62.7788 93.769 62.5141 92.7152C62.0682 90.9396 62.0204 91.2563 63.883 92.2589C66.7599 93.8073 67.6512 93.2845 69.4825 88.9698Z" fill="#5D5260"/>
<path fill-rule="evenodd" clip-rule="evenodd" d="M72.8714 84.5019C71.5665 85.5146 70.3839 86.8473 69.4825 88.9698C67.6512 93.2845 66.7599 93.8073 63.883 92.2589C62.0204 91.2563 62.0682 90.9396 62.5141 92.7152C62.7788 93.769 64.4788 94.7513 66.1645 95.453C68.2864 96.3375 69.7053 98.5321 70.7274 100.928C72.878 105.969 75.8824 107.179 80.7659 105.948C88.1368 104.09 92.2362 98.9874 90.3481 91.4692C88.0588 82.3534 79.8307 79.1001 72.8714 84.5019ZM85.7852 94.5405C87.1745 91.9066 87.3427 87.2006 84.8726 85.8709C82.0521 84.3529 79.0108 84.8976 77.5719 88.1524C74.8789 94.2436 82.7018 100.388 85.7852 94.5405Z" fill="#20201D"/>
<path d="M101.318 98.1908C101.727 99.8196 106.104 103.399 109.512 105.035C113.363 106.883 112.237 107.065 110.881 108.748C108.34 111.901 105.777 111.918 101.318 110.967L96.7362 109.598C97.3249 111.07 98.4322 112.268 99.9252 112.801C101.145 113.236 102.483 113.647 103.124 113.705L103.289 114.501C104.088 118.354 105.414 122.078 107.231 125.568L108.538 122.955C109.178 121.674 110.118 120.567 111.277 119.726C112.799 118.621 114.631 118.026 116.512 118.026L117.354 118.026C117.905 118.026 118.455 118.073 118.999 118.165C121.132 118.528 123.086 119.584 124.557 121.171L125.026 121.677L125.026 119.752C125.026 118.604 124.921 117.458 124.712 116.329L124.162 113.35C124.13 113.177 124.068 113.01 123.979 112.858C123.444 111.943 123.999 110.75 124.914 110.215C126.942 109.031 128.284 106.828 129.133 105.035C129.772 103.687 126.401 105.868 124.113 107.773C121.051 110.324 117.269 108.044 114.988 106.359C113.941 105.586 116 105.834 118.638 101.385C123.665 92.9051 122.95 92.4221 110.881 95.4531C105.299 96.8549 101.251 97.9212 101.318 98.1908Z" fill="#1D1B1E"/>
<path d="M109.212 127.771C109.803 128.428 110.487 128.997 111.242 129.459L111.329 129.511C112.71 130.356 114.297 130.803 115.915 130.803C116.813 130.803 117.705 130.665 118.561 130.395L119.945 129.958C121.465 129.479 122.786 128.512 123.703 127.208C124.564 125.984 125.026 124.524 125.026 123.027L125.026 121.677L124.557 121.171C123.086 119.584 121.132 118.528 118.999 118.165C118.455 118.073 117.905 118.026 117.354 118.026L116.512 118.026C114.631 118.026 112.799 118.621 111.277 119.726C110.118 120.567 109.178 121.674 108.538 122.955L107.231 125.568L109.212 127.771Z" fill="#DE4D66"/>
<path fill-rule="evenodd" clip-rule="evenodd" d="M151.295 54.2837C157.75 55.9685 165.457 62.6706 168.717 69.4346C171.299 74.7925 172.282 85.853 171.112 91.8202C169.576 99.6475 158.391 106.367 150.667 107.034C141.972 107.784 132.064 101.716 126.395 94.4022C120.423 86.6975 121.595 72.0111 126.395 63.5124C131.617 54.2693 140.905 51.5717 151.295 54.2837ZM132.486 91.8201C127.51 86.857 127.003 81.1726 131.415 75.0085C135.149 69.7891 139.274 69.4501 146.016 74.4636C149.361 76.9522 151.518 78.321 153.773 76.745C157.038 74.4641 158.204 72.8753 155.23 77.4248C153.925 79.4206 151.082 80.9178 151.295 81.7643C151.877 84.0828 151.489 89.2252 149.666 91.3464C147.433 93.9462 142.646 96.2996 138.972 94.9968C137.306 94.4066 134.072 93.4013 132.486 91.8201Z" fill="#5D5262"/>
<path fill-rule="evenodd" clip-rule="evenodd" d="M131.415 75.0085C127.003 81.1726 127.51 86.857 132.486 91.8201C134.072 93.4013 137.306 94.4066 138.972 94.9968C142.646 96.2996 147.433 93.9462 149.666 91.3464C151.489 89.2252 151.877 84.0828 151.295 81.7643C151.082 80.9178 153.925 79.4206 155.23 77.4248C158.204 72.8753 157.038 74.4641 153.773 76.745C151.518 78.321 149.361 76.9522 146.016 74.4636C139.274 69.4501 135.149 69.7891 131.415 75.0085ZM137.803 86.3272C141.707 85.3845 142.777 78.3356 138.972 76.2887C135.692 74.5229 131.844 76.2044 131.415 79.9391C130.99 83.6326 134.393 87.1504 137.803 86.3272Z" fill="#1D1B1C"/>
<path d="M138.972 76.2887C142.777 78.3356 141.707 85.3845 137.803 86.3272C134.393 87.1504 130.99 83.6326 131.415 79.9391C131.844 76.2044 135.692 74.5229 138.972 76.2887Z" fill="white"/>
<path d="M112.328 139.131C112.58 139.215 112.839 139.276 113.101 139.314L113.992 139.441C115.259 139.622 116.544 139.633 117.814 139.474L118.712 139.362C119.271 139.292 119.823 139.18 120.363 139.025L120.405 139.013C121.945 138.573 123.369 137.795 124.57 136.734L125.141 136.096C125.965 135.176 126.552 134.068 126.852 132.869L125.026 134.238L123.076 135.762C122.251 136.408 121.343 136.941 120.378 137.347L120.093 137.467C119.43 137.747 118.736 137.948 118.026 138.067C116.922 138.25 115.795 138.232 114.698 138.013L114.075 137.888C112.573 137.588 111.158 136.955 109.933 136.036L108.143 134.694L109.057 136.218C109.36 136.721 109.722 137.186 110.138 137.601L110.599 138.063C111.085 138.548 111.677 138.914 112.328 139.131Z" fill="#000002"/>
<path d="M111.27 109.062L111.27 109.062C109.941 110.711 108.566 111.583 106.909 111.888C105.288 112.187 103.446 111.932 101.214 111.456L101.194 111.452L101.175 111.446L97.7187 110.414C98.294 111.295 99.1045 111.977 100.093 112.33C100.697 112.546 101.326 112.753 101.881 112.914C102.446 113.078 102.901 113.182 103.17 113.207L103.539 113.24L103.614 113.603L103.779 114.399C104.501 117.884 105.66 121.263 107.228 124.456L108.091 122.731C108.767 121.379 109.759 120.209 110.983 119.321C112.591 118.155 114.526 117.526 116.512 117.526L117.354 117.526C117.933 117.526 118.511 117.575 119.083 117.672C121.137 118.021 123.033 118.983 124.526 120.425L124.526 119.752C124.526 118.635 124.424 117.519 124.221 116.42L123.67 113.441C123.649 113.324 123.607 113.213 123.547 113.11L123.979 112.858L123.547 113.11C123.187 112.495 123.207 111.803 123.436 111.213C123.664 110.627 124.107 110.107 124.661 109.784C126.36 108.791 127.572 107.01 128.409 105.374C128.277 105.443 128.131 105.524 127.973 105.616C126.954 106.213 125.562 107.217 124.433 108.157C122.74 109.568 120.843 109.628 119.12 109.135C117.417 108.648 115.842 107.612 114.691 106.761M111.27 109.062L114.988 106.359M111.27 109.062C111.431 108.863 111.589 108.684 111.741 108.516C111.768 108.486 111.795 108.457 111.821 108.427C111.942 108.293 112.061 108.162 112.164 108.038C112.395 107.762 112.677 107.384 112.648 106.922C112.618 106.441 112.273 106.073 111.837 105.755C111.382 105.422 110.694 105.048 109.729 104.584C108.069 103.788 106.157 102.508 104.61 101.225C103.837 100.585 103.166 99.9514 102.667 99.3864C102.321 98.9943 102.082 98.6616 101.941 98.3999C102.005 98.3753 102.079 98.3481 102.164 98.3184C102.605 98.1641 103.267 97.9653 104.116 97.728C105.81 97.2545 108.211 96.639 111.003 95.938C114.023 95.1796 116.307 94.6477 117.964 94.4034C118.793 94.2812 119.443 94.2346 119.938 94.2613C120.441 94.2886 120.721 94.3891 120.869 94.5011C120.987 94.591 121.069 94.7237 121.075 94.9934C121.082 95.2871 120.994 95.7037 120.777 96.2772C120.343 97.4206 119.468 99.0044 118.208 101.13M111.27 109.062L118.638 101.385M114.691 106.761L114.988 106.359M114.691 106.761C114.691 106.761 114.691 106.761 114.691 106.761L114.988 106.359M114.691 106.761C114.551 106.658 114.386 106.52 114.291 106.333C114.237 106.228 114.204 106.105 114.211 105.97C114.217 105.838 114.26 105.725 114.31 105.637C114.399 105.477 114.542 105.344 114.658 105.242C114.741 105.17 114.843 105.086 114.952 104.997C115.004 104.954 115.058 104.91 115.112 104.865C115.793 104.302 116.925 103.294 118.208 101.13M114.988 106.359C114.509 106.006 114.68 105.866 115.259 105.392C115.946 104.83 117.207 103.799 118.638 101.385M118.208 101.13L118.638 101.385M118.208 101.13C118.208 101.13 118.208 101.13 118.208 101.13L118.638 101.385M132.133 92.1742L132.133 92.1741C129.583 89.6308 128.139 86.8616 127.931 83.8997C127.724 80.9401 128.756 77.8648 131.008 74.7175C132.919 72.0467 135.007 70.52 137.564 70.3993C140.084 70.2803 142.919 71.5377 146.314 74.0623L146.314 74.0624C147.998 75.3154 149.316 76.2324 150.476 76.6593C151.045 76.8688 151.554 76.9512 152.032 76.9056C152.508 76.8604 152.984 76.6862 153.487 76.3352L153.487 76.3351C154.244 75.8063 154.887 75.3151 155.395 74.9262L155.493 74.8518C155.752 74.6537 155.98 74.4809 156.164 74.3504C156.328 74.2338 156.516 74.1069 156.677 74.0511C156.723 74.0352 156.797 74.0141 156.884 74.0125C156.974 74.0108 157.121 74.0301 157.252 74.1426C157.386 74.2566 157.427 74.4018 157.438 74.4972C157.449 74.5881 157.436 74.6666 157.425 74.7161C157.387 74.8907 157.274 75.108 157.151 75.325C156.884 75.7971 156.389 76.566 155.648 77.6984L155.23 77.4248L155.648 77.6984C154.983 78.7168 153.954 79.6009 153.14 80.3005C153.1 80.3356 153.059 80.3703 153.02 80.4045C152.589 80.775 152.241 81.0809 152.011 81.3411C151.896 81.4705 151.832 81.5661 151.801 81.6317C151.793 81.6481 151.788 81.6599 151.786 81.6676C152.092 82.9105 152.133 84.8314 151.878 86.6972C151.622 88.5629 151.054 90.4989 150.046 91.6722L132.133 92.1742ZM132.133 92.1742C132.996 93.0342 134.273 93.711 135.501 94.2394C136.491 94.665 137.491 95.0113 138.269 95.2811C138.294 95.2895 138.318 95.2978 138.341 95.306C138.341 95.306 138.341 95.3061 138.341 95.3061C138.508 95.3637 138.663 95.4177 138.805 95.4681C140.794 96.1732 143.039 95.8773 145.04 95.1013M132.133 92.1742L145.04 95.1013M149.287 91.0207L149.287 91.0205C150.102 90.0727 150.639 88.3769 150.887 86.5615C151.134 84.7588 151.08 82.9626 150.81 81.886C150.745 81.6282 150.809 81.3889 150.898 81.2016C150.987 81.0155 151.119 80.8397 151.262 80.6785C151.546 80.3575 151.95 80.0057 152.367 79.6467L152.452 79.5733C153.295 78.8485 154.226 78.0473 154.811 77.1513C155.067 76.7596 155.292 76.4154 155.485 76.1145C155.073 76.4264 154.594 76.7815 154.059 77.1549C153.434 77.5919 152.795 77.8376 152.127 77.9011C151.463 77.9644 150.8 77.8445 150.13 77.5978C148.811 77.1122 147.378 76.1004 145.717 74.8647C142.371 72.3759 139.773 71.2961 137.611 71.3982C135.487 71.4984 133.645 72.7509 131.821 75.2994L131.415 75.0085L131.821 75.2994C129.662 78.3163 128.742 81.1653 128.929 83.8297C129.116 86.4918 130.413 89.0463 132.839 91.466L149.287 91.0207ZM149.287 91.0207C148.229 92.2522 146.545 93.4452 144.679 94.1689C142.81 94.8937 140.825 95.1232 139.14 94.5255L139.139 94.5255M149.287 91.0207L139.139 94.5255M139.139 94.5255C138.967 94.4644 138.78 94.3995 138.581 94.3307M139.139 94.5255L138.581 94.3307M145.04 95.1013C147.045 94.324 148.87 93.0405 150.046 91.6723L145.04 95.1013ZM138.581 94.3307C137.803 94.0612 136.849 93.7303 135.897 93.3208M138.581 94.3307L135.897 93.3208M135.897 93.3208C134.695 92.8036 133.562 92.1872 132.839 91.4661L135.897 93.3208ZM85.1096 85.4306L85.1095 85.4306C83.6154 84.6264 82.0174 84.3446 80.5723 84.7395C79.1144 85.1379 77.8859 86.2054 77.1146 87.9502C75.6602 91.24 77.0512 94.5347 79.2045 96.2175C80.2841 97.0612 81.5983 97.5349 82.8889 97.3615C84.2002 97.1854 85.3943 96.3537 86.2274 94.7737C86.9677 93.3702 87.3731 91.4439 87.2754 89.6888C87.179 87.9561 86.5763 86.2202 85.1096 85.4306ZM85.3429 94.3072L85.3429 94.3073C84.6343 95.6512 83.6943 96.2443 82.7558 96.3704C81.7966 96.4992 80.7453 96.1525 79.8203 95.4296C77.9646 93.9793 76.7906 91.1561 78.0292 88.3546C78.6967 86.8446 79.7084 86.0123 80.8359 85.7042C81.9764 85.3925 83.3093 85.5973 84.6356 86.3112C85.6389 86.8513 86.1873 88.1333 86.2769 89.7444C86.3654 91.3332 85.9919 93.0768 85.3429 94.3072ZM50.9576 102.105L50.4664 102.199L50.9576 102.105C48.8408 91.0205 50.2852 80.3501 58.2573 73.8279L62.1057 71.0051C64.3108 69.3878 66.8562 68.2955 69.5478 67.8118C71.7417 67.4175 73.9898 67.4352 76.1772 67.8641L76.8991 68.0056C78.754 68.3693 80.554 68.972 82.2539 69.7986L86.1858 71.7103C96.2443 77.6382 99.1166 88.4149 96.5959 98.4866C94.0711 108.574 86.1472 117.875 74.7127 120.735C71.8416 121.454 69.3589 121.869 66.9593 121.62C64.5746 121.373 62.2352 120.465 59.6657 118.472C55.1476 114.968 52.4607 109.978 50.9576 102.105ZM69.0223 88.7744L69.0222 88.7745C68.5666 89.848 68.1791 90.6619 67.8129 91.261C67.4446 91.8636 67.1239 92.2043 66.8216 92.3818C66.2735 92.7037 65.5734 92.6009 64.12 91.8186C63.783 91.6372 63.5145 91.4814 63.2921 91.3524C63.2119 91.3058 63.1377 91.2628 63.0685 91.2233C62.9433 91.1519 62.8238 91.0859 62.7197 91.0389C62.6424 91.0039 62.4704 90.9279 62.2804 90.948C62.1586 90.9609 62.0202 91.0138 61.9118 91.1346C61.8133 91.2445 61.7795 91.3668 61.7666 91.4464C61.7432 91.5908 61.7672 91.7421 61.7864 91.8454C61.8165 92.0064 61.8738 92.2297 61.9429 92.4985C61.9702 92.6046 61.9993 92.7178 62.0292 92.837C62.2085 93.551 62.835 94.1497 63.521 94.6267C64.2305 95.12 65.1129 95.5568 65.9724 95.9146C67.9027 96.7193 69.2552 98.7512 70.2675 101.125L70.2675 101.125C71.3672 103.702 72.7223 105.389 74.5063 106.241C76.2875 107.092 78.3946 107.061 80.8881 106.433C84.652 105.484 87.6402 103.692 89.439 101.118C91.2457 98.5318 91.8062 95.2224 90.833 91.3474C89.6577 86.6673 86.9377 83.4255 83.5457 82.0768C80.1457 80.7249 76.1642 81.313 72.5648 84.1069C71.1988 85.1671 69.96 86.5664 69.0223 88.7744ZM73.178 84.8969L73.178 84.8969C76.5379 82.2889 80.1501 81.8028 83.1762 83.0061C86.2104 84.2125 88.7492 87.1553 89.8631 91.591C90.7781 95.2342 90.2329 98.2352 88.6192 100.545C86.9976 102.866 84.2507 104.554 80.6437 105.463C78.2537 106.065 76.4168 106.045 74.9373 105.339C73.4606 104.634 72.2382 103.195 71.1873 100.732C70.1555 98.3131 68.6702 95.9557 66.3569 94.9915L66.3566 94.9914C65.5304 94.6474 64.7199 94.2423 64.0919 93.8056C63.4402 93.3525 63.0844 92.9332 62.9991 92.5934C62.9716 92.4839 62.9462 92.3845 62.9231 92.2943C63.1231 92.41 63.3648 92.5478 63.646 92.6992L63.6461 92.6992C65.0695 93.4653 66.2535 93.8752 67.328 93.2441C67.8371 92.9452 68.2624 92.443 68.6662 91.7825C69.0721 91.1184 69.4827 90.249 69.9427 89.1653C70.8078 87.1283 71.9342 85.8622 73.178 84.8969ZM124.191 121.511L124.526 121.873L124.526 123.027C124.526 124.421 124.096 125.781 123.294 126.921C122.44 128.135 121.21 129.035 119.794 129.482L118.41 129.918C117.603 130.173 116.762 130.303 115.915 130.303C114.389 130.303 112.892 129.881 111.589 129.085L111.503 129.032C110.789 128.596 110.143 128.058 109.583 127.436L107.831 125.487L108.985 123.179C109.589 121.97 110.476 120.924 111.57 120.13C113.007 119.088 114.737 118.526 116.512 118.526L117.354 118.526C117.877 118.526 118.399 118.57 118.915 118.658C120.94 119.002 122.794 120.005 124.191 121.511ZM151.168 54.7675L151.295 54.2837L151.168 54.7675C154.298 55.5844 157.772 57.6321 160.876 60.3317C163.978 63.029 166.672 66.3434 168.267 69.6517C169.52 72.2534 170.404 76.2905 170.824 80.4492C171.244 84.6033 171.194 88.8065 170.621 91.724C169.89 95.4519 166.833 98.9913 162.925 101.701C159.027 104.404 154.381 106.211 150.624 106.535C146.404 106.9 141.852 105.609 137.636 103.303C133.424 100.998 129.583 97.6979 126.79 94.0959C123.902 90.3697 122.711 84.9036 122.855 79.2679C123 73.6395 124.477 67.9258 126.831 63.7583C129.386 59.2356 132.92 56.3352 137.071 54.887C141.23 53.4362 146.046 53.4303 151.168 54.7675ZM138.735 76.729L138.736 76.729C140.387 77.6175 141.047 79.6379 140.782 81.6571C140.517 83.6844 139.356 85.4378 137.685 85.8412C136.189 86.2025 134.657 85.6195 133.526 84.4754C132.396 83.3314 131.719 81.6745 131.911 79.9963C132.106 78.3019 133.067 77.0973 134.336 76.5042C135.612 75.908 137.227 75.9172 138.735 76.729ZM130.918 79.8819L130.918 79.882C130.686 81.8973 131.498 83.8459 132.815 85.1784C134.132 86.5108 136.007 87.2751 137.92 86.8132C140.154 86.2739 141.48 84.0315 141.774 81.787C142.069 79.5344 141.362 77.0069 139.209 75.8485C137.437 74.8945 135.489 74.8615 133.913 75.5983C132.33 76.3381 131.153 77.8417 130.918 79.8819ZM113.172 138.819C112.939 138.785 112.71 138.731 112.486 138.657C111.908 138.464 111.384 138.14 110.953 137.709L110.491 137.248C110.318 137.074 110.155 136.892 110.002 136.701C111.199 137.522 112.551 138.093 113.977 138.379L114.6 138.503C115.756 138.734 116.945 138.754 118.108 138.56C118.857 138.435 119.588 138.223 120.287 137.928L120.572 137.808C121.578 137.384 122.524 136.829 123.384 136.156L125.326 134.638L125.334 134.632L125.78 134.298C125.507 134.825 125.167 135.317 124.768 135.763L124.217 136.379C123.076 137.38 121.727 138.115 120.267 138.533L120.226 138.544C119.71 138.692 119.183 138.799 118.65 138.866L117.752 138.978C116.526 139.131 115.285 139.121 114.062 138.946L113.172 138.819Z" stroke="black"/>
</svg>
