<svg width="302" height="372" viewBox="0 0 302 372" fill="none" xmlns="http://www.w3.org/2000/svg">
<path d="M67.1711 346.754V370.932H102.802V346.754H67.1711Z" fill="#EFCC32"/>
<path d="M67.1711 370.932V346.754H1V369.659L67.1711 370.932Z" fill="#CC1612"/>
<path d="M102.802 346.754V370.932H167.7V348.027L130.797 347.303L102.802 346.754Z" fill="#CD1512"/>
<path d="M223.055 370.932L226.872 227.137L192.514 222.164L178.517 220.138V370.932H223.055Z" fill="#EB2C23"/>
<path d="M226.872 227.137L223.055 370.932H250.414L256.14 230.318L246.597 229.281L226.872 227.137Z" fill="#EFCC32"/>
<path d="M256.14 230.318L250.414 370.932H281.591L290.498 234.772L256.14 230.318Z" fill="#EB2B24"/>
<path d="M67.1711 346.754H102.802L98.3478 230.318L65.8986 234.772L67.1711 346.754Z" fill="#CC1612"/>
<path d="M98.3478 230.318L102.802 346.754L130.797 347.303L128.888 227.137L117.436 228.33L98.3478 230.318Z" fill="#EFCC32"/>
<path d="M167.7 348.027V370.932H178.517V220.138L160.701 222.651L128.888 227.137L130.797 347.303L167.7 348.027Z" fill="#CC1612"/>
<path fill-rule="evenodd" clip-rule="evenodd" d="M82.0719 340.148L82.231 343.329L82.39 346.51L91.3416 346.753L94.5229 342.935L96.2185 340.271C98.0505 337.392 100.227 334.747 102.699 332.395L107.059 328.58C108.811 327.047 110.752 325.744 112.834 324.703L116.561 322.84C117.905 322.167 119.388 321.817 120.892 321.817H122.945C125.355 321.817 127.558 323.179 128.636 325.334C129.531 327.126 129.531 329.234 128.636 331.025L125.659 336.979C125.199 337.898 124.668 338.78 124.071 339.616L118.606 347.268H134.607L139.142 342.049C141.184 339.699 142.686 336.93 143.541 333.937C144.363 331.06 144.569 328.043 144.146 325.081L144.116 324.873C143.719 322.094 142.799 319.414 141.406 316.976L140.97 316.212L137.152 311.122L134.607 309.85L130.153 307.941L125.7 306.668H119.973L114.247 307.305L108.271 308.101C105.957 308.41 103.809 309.471 102.158 311.122C97.9266 315.353 94.1236 319.992 90.8042 324.972L88.1603 328.937L82.0719 340.148Z" fill="url(#paint0_radial_1499_2256)"/>
<path d="M67.4379 313.031L57.575 309.008C54.4243 307.723 51.054 307.062 47.6512 307.062H45.827C39.3487 307.062 33.1909 309.88 28.9566 314.783C25.4599 318.832 23.5359 324.003 23.5359 329.353V330.689C23.5359 336.713 26.0772 342.458 30.5348 346.51H48.9864L45.9202 343.785C44.1519 342.213 42.5582 340.455 41.1666 338.542L39.2182 335.863C38.5235 334.907 37.9798 333.851 37.6063 332.73L36.4278 329.195C35.9272 327.693 36.2221 326.04 37.2111 324.803C37.8339 324.025 38.6897 323.466 39.653 323.209L42.4354 322.467C45.8196 321.565 49.4225 322.021 52.4751 323.738L55.1016 325.215C56.9523 326.256 58.633 327.574 60.0853 329.124L67.4379 336.966L75.7093 346.51H82.39L82.231 343.329L82.0719 340.148L78.2543 331.876L77.701 330.533C75.1134 324.248 71.6589 318.357 67.4379 313.031Z" fill="#ECCE31"/>
<path d="M118.606 347.268L124.071 339.616C124.668 338.78 125.199 337.898 125.659 336.979L128.636 331.025C129.531 329.234 129.531 327.126 128.636 325.334C127.558 323.179 125.355 321.817 122.945 321.817H120.892C119.388 321.817 117.905 322.167 116.561 322.84L112.834 324.703C110.752 325.744 108.811 327.047 107.059 328.58L102.699 332.395V346.51L118.606 347.268Z" fill="#EFCC32"/>
<path fill-rule="evenodd" clip-rule="evenodd" d="M160.058 150.784C160.058 147.952 158.846 145.254 156.729 143.372L154.444 141.341C154.427 141.325 154.445 141.298 154.466 141.308L158.742 143.446C159.192 143.671 159.603 143.967 159.959 144.323C160.837 145.201 162.028 145.694 163.27 145.694H164.512H166.228C166.768 145.694 167.297 145.534 167.746 145.235L168.105 144.996C168.642 144.637 168.965 144.034 168.965 143.387C168.965 143.229 168.946 143.072 168.908 142.918L168.701 142.092C168.455 141.108 168.041 140.173 167.478 139.328L167.057 138.696L166.358 137.648C165.978 137.078 165.504 136.577 164.956 136.166L164.797 136.047C163.789 135.291 163.072 134.211 162.767 132.988L162.665 132.58C162.624 132.416 162.603 132.247 162.603 132.078C162.603 130.852 163.661 129.894 164.881 130.016L168.965 130.424H169.897C171.395 130.424 172.891 130.53 174.374 130.742C175.856 130.954 177.352 131.06 178.85 131.06H179.146H182.7C183.276 131.06 183.828 131.289 184.236 131.697C184.643 132.104 184.872 132.657 184.872 133.233V133.605C184.872 134.42 184.548 135.202 183.972 135.778L183.4 136.349C183.11 136.64 182.785 136.894 182.433 137.105L180.383 138.335C179.984 138.574 179.615 138.862 179.286 139.191C178.371 140.106 177.173 140.682 175.887 140.825L173.361 141.106C172.621 141.188 171.996 141.693 171.76 142.399C171.6 142.88 171.638 143.404 171.864 143.857L171.968 144.064C172.086 144.301 172.242 144.517 172.43 144.705L172.87 145.145C173.235 145.51 173.643 145.829 174.085 146.094L174.806 146.526C175.98 147.231 177.324 147.603 178.694 147.603C179.415 147.603 180.133 147.5 180.826 147.296L190.546 144.437C190.56 144.433 190.57 144.45 190.559 144.461L190.347 144.673C188.851 146.169 186.946 147.188 184.872 147.603L183.469 148.071C182.027 148.551 181.054 149.901 181.054 151.421V151.812C181.054 154.075 180.622 156.318 179.782 158.42C179.782 160.886 178.917 163.275 177.338 165.17L177.184 165.355C176.796 165.82 176.362 166.245 175.889 166.624C174.29 167.903 172.304 168.6 170.256 168.6H169.536C169.156 168.6 168.777 168.573 168.4 168.519C165.947 168.169 163.792 166.705 162.563 164.553L161.966 163.51L160.058 159.056V150.784ZM191.234 138.696C189.561 135.348 188.689 131.657 188.689 127.915V121.494C188.689 120.662 188.749 119.83 188.866 119.006C189.17 116.88 189.86 114.828 190.903 112.95L192.507 110.064L195.671 105.713C196.944 103.963 198.534 102.469 200.359 101.307C203.126 99.5463 206.338 98.6111 209.618 98.6111H211.527C213.264 98.6111 214.995 98.8012 216.69 99.1779L219.038 99.6995C223.319 100.651 227.24 102.803 230.341 105.904C231.414 106.978 232.379 108.155 233.222 109.419L233.459 109.775C235.817 113.312 237.32 117.35 237.847 121.569L238.318 125.334V132.377C238.318 135.298 237.847 138.199 236.923 140.97L236.617 141.888C236.057 143.57 235.274 145.169 234.291 146.645C232.751 148.955 230.745 150.918 228.403 152.409L226.451 153.651C225.457 154.283 224.4 154.81 223.298 155.224C221.036 156.072 218.619 156.428 216.209 156.267L211.834 155.975C210.829 155.908 209.834 155.735 208.865 155.458C206.891 154.894 205.061 153.91 203.502 152.574L201.415 150.784C197.615 147.407 194.304 143.519 191.575 139.231L191.234 138.696ZM148.103 138.904C151.356 137.096 154.112 134.512 156.124 131.382C157.878 128.654 159.023 125.581 159.481 122.372L159.745 120.525C159.953 119.067 160.058 117.596 160.058 116.124V113.895C160.058 112.193 159.89 110.496 159.556 108.828C159.045 106.273 158.151 103.81 156.903 101.523L156.577 100.925C155.508 98.9653 154.209 97.14 152.707 95.4881L150.281 92.8201C149.177 91.6049 147.824 90.6412 146.314 89.9942C144.887 89.3826 143.351 89.0672 141.798 89.0672H135.88H134.665C131.28 89.0672 127.941 89.8553 124.913 91.3692C123.743 91.9542 122.628 92.6433 121.582 93.4282L121.246 93.6796C119.137 95.2617 117.276 97.1503 115.725 99.2828L114.696 100.697C113.551 102.272 112.569 103.958 111.763 105.73C110.459 108.6 109.633 111.664 109.319 114.801L109.157 116.426V117.775C109.157 122.754 110.248 127.672 112.353 132.184L112.925 133.408C113.381 134.386 113.922 135.323 114.541 136.207L114.603 136.296C116.851 139.507 120.072 141.91 123.791 143.149L125.802 143.652C127.847 144.163 129.947 144.422 132.055 144.422H132.247C133.817 144.422 135.382 144.267 136.922 143.959C139.601 143.423 142.167 142.431 144.51 141.025L147.332 139.332L148.103 138.904Z" fill="white"/>
<path d="M145.424 203.594L132.873 198.683C131.487 198.14 130.151 197.477 128.881 196.701L135.88 204.23L145.424 212.502L153.638 218.122C156.209 219.881 159.012 221.273 161.966 222.258L178.509 220.137L190.204 222.306C196.393 220.016 202.367 217.181 208.055 213.836L210.322 212.502L219.866 205.503C227.897 199.163 235.142 191.887 241.448 183.83L243.408 181.325L235.773 188.483C234.084 190.066 232.186 191.409 230.131 192.475L216.049 199.777L204.952 204.285C198.806 206.781 192.342 208.406 185.747 209.113C180.514 209.674 175.235 209.652 170.007 209.049L168.211 208.842C163.631 208.313 159.1 207.423 154.661 206.18L145.424 203.594Z" fill="#3F3744"/>
<path fill-rule="evenodd" clip-rule="evenodd" d="M159.481 122.372C159.023 125.581 157.878 128.654 156.124 131.382C154.112 134.512 151.356 137.096 148.103 138.904L147.332 139.332L144.51 141.025C142.167 142.431 139.601 143.423 136.922 143.959C135.382 144.267 133.817 144.422 132.247 144.422H132.055C129.947 144.422 127.847 144.163 125.802 143.652L123.791 143.149C120.072 141.91 116.851 139.507 114.603 136.296L114.541 136.207C113.922 135.323 113.381 134.386 112.925 133.408L112.353 132.184C110.248 127.672 109.157 122.754 109.157 117.775V116.426L109.319 114.801C109.633 111.664 110.459 108.6 111.763 105.73C112.569 103.958 113.551 102.272 114.696 100.697L115.725 99.2828C117.276 97.1503 119.137 95.2617 121.246 93.6796L121.582 93.4282C122.628 92.6433 123.743 91.9542 124.913 91.3692C127.941 89.8553 131.28 89.0672 134.665 89.0672H135.88H141.798C143.351 89.0672 144.887 89.3826 146.314 89.9942C147.824 90.6412 149.177 91.6049 150.281 92.8201L152.707 95.4881C154.209 97.14 155.508 98.9653 156.577 100.925L156.903 101.523C158.151 103.81 159.045 106.273 159.556 108.828C159.89 110.496 160.058 112.193 160.058 113.895V116.124C160.058 117.596 159.953 119.067 159.745 120.525L159.481 122.372ZM130.652 122.051C130.744 122.963 130.953 123.86 131.275 124.719L132.699 128.515C133.504 130.125 134.991 131.287 136.749 131.678L137.739 131.898C139.025 132.184 140.362 132.152 141.633 131.805L143.072 131.412C145.447 130.765 147.612 129.509 149.352 127.768L149.607 127.514C150.21 126.91 150.763 126.257 151.259 125.563L152.116 124.363C153.158 122.904 153.895 121.251 154.284 119.501L154.311 119.381C154.743 117.438 154.716 115.421 154.234 113.491L154.068 112.83C153.821 111.841 153.406 110.903 152.841 110.056L152.665 109.792C151.683 108.319 150.238 107.215 148.558 106.655C147.746 106.384 146.896 106.246 146.04 106.246H144.075C142.04 106.246 140.041 106.777 138.274 107.787L137.909 107.995C136.987 108.522 136.163 109.203 135.472 110.01L134.139 111.565C133.225 112.631 131.89 113.245 130.485 113.245C129.444 113.245 128.431 112.907 127.598 112.283L127.099 111.909C126.593 111.529 126.143 111.079 125.763 110.573L124.447 108.817C124.44 108.809 124.427 108.813 124.427 108.824V109.289C124.427 110.629 124.791 111.943 125.481 113.092L125.575 113.249C126.076 114.084 126.756 114.798 127.567 115.338C129.204 116.43 130.267 118.198 130.463 120.156L130.652 122.051Z" fill="#5D5263"/>
<path fill-rule="evenodd" clip-rule="evenodd" d="M188.866 119.006C188.749 119.83 188.689 120.662 188.689 121.494V127.915C188.689 131.657 189.561 135.348 191.234 138.696L191.575 139.231C194.304 143.519 197.615 147.407 201.415 150.784L203.502 152.574C205.061 153.91 206.891 154.894 208.865 155.458C209.834 155.735 210.829 155.908 211.834 155.975L216.209 156.267C218.619 156.428 221.036 156.072 223.298 155.224C224.4 154.81 225.457 154.283 226.451 153.651L228.403 152.409C230.745 150.918 232.751 148.955 234.291 146.645C235.274 145.169 236.057 143.57 236.617 141.888L236.923 140.97C237.847 138.199 238.318 135.298 238.318 132.377V125.334L237.847 121.569C237.32 117.35 235.817 113.312 233.459 109.775L233.222 109.419C232.379 108.155 231.414 106.978 230.341 105.904C227.24 102.803 223.319 100.651 219.038 99.6995L216.69 99.1779C214.995 98.8012 213.264 98.6111 211.527 98.6111H209.618C206.338 98.6111 203.126 99.5463 200.359 101.307C198.534 102.469 196.944 103.963 195.671 105.713L192.507 110.064L190.903 112.95C189.86 114.828 189.17 116.88 188.866 119.006ZM196.265 133.79C195.465 131.99 195.052 130.043 195.052 128.073V126.542C195.052 124.492 195.529 122.471 196.446 120.638L197.011 119.507C197.808 117.913 199.059 116.591 200.606 115.707C201.97 114.928 203.513 114.518 205.084 114.518H205.691C208.269 114.518 210.762 115.44 212.719 117.118C213.659 117.923 214.454 118.885 215.068 119.959L216.685 122.789L217.392 124.557C217.747 125.445 218.507 126.108 219.434 126.339C220.123 126.512 220.852 126.432 221.487 126.114L223.047 125.334L226.214 123.434C226.219 123.431 226.227 123.436 226.225 123.443L226.151 123.816C225.798 125.577 224.653 127.076 223.047 127.879L220.821 128.77C220.191 129.022 219.619 129.399 219.139 129.879C218.372 130.646 217.874 131.641 217.721 132.714L217.608 133.509C217.42 134.822 216.884 136.06 216.056 137.096L215.016 138.395C213.256 140.596 210.591 141.877 207.773 141.877C206.516 141.877 205.273 141.622 204.118 141.127L203.174 140.722C202.007 140.222 200.919 139.555 199.944 138.743C198.4 137.456 197.172 135.831 196.356 133.995L196.265 133.79Z" fill="#605263"/>
<path d="M196.446 120.638C195.529 122.471 195.052 124.492 195.052 126.542V128.073C195.052 130.043 195.465 131.99 196.265 133.79L196.356 133.995C197.172 135.831 198.4 137.456 199.944 138.743C200.919 139.555 202.007 140.222 203.174 140.722L204.118 141.127C205.273 141.622 206.516 141.877 207.773 141.877C210.591 141.877 213.256 140.596 215.016 138.395L216.056 137.096C216.884 136.06 217.42 134.822 217.608 133.509L217.721 132.714C217.874 131.641 218.372 130.646 219.139 129.879C219.619 129.399 220.191 129.022 220.821 128.77L223.047 127.879C224.653 127.076 225.798 125.577 226.151 123.816L226.225 123.443C226.227 123.436 226.219 123.431 226.214 123.434L223.047 125.334L221.487 126.114C220.852 126.432 220.123 126.512 219.434 126.339C218.507 126.108 217.747 125.445 217.392 124.557L216.685 122.789L215.068 119.959C214.454 118.885 213.659 117.923 212.719 117.118C210.762 115.44 208.269 114.518 205.691 114.518H205.084C203.513 114.518 201.97 114.928 200.606 115.707C199.059 116.591 197.808 117.913 197.011 119.507L196.446 120.638Z" fill="#282629"/>
<path d="M132.699 128.515L131.275 124.719C130.953 123.86 130.744 122.963 130.652 122.051L130.463 120.156C130.267 118.198 129.204 116.43 127.567 115.338C126.756 114.798 126.076 114.084 125.575 113.249L125.481 113.092C124.791 111.943 124.427 110.629 124.427 109.289V108.824C124.427 108.813 124.44 108.809 124.447 108.817L125.763 110.573C126.143 111.079 126.593 111.529 127.099 111.909L127.598 112.283C128.431 112.907 129.444 113.245 130.485 113.245C131.89 113.245 133.225 112.631 134.139 111.565L135.472 110.01C136.163 109.203 136.987 108.522 137.909 107.995L138.274 107.787C140.041 106.777 142.04 106.246 144.075 106.246H146.04C146.896 106.246 147.746 106.384 148.558 106.655C150.238 107.215 151.683 108.319 152.665 109.792L152.841 110.056C153.406 110.903 153.821 111.841 154.068 112.83L154.234 113.491C154.716 115.421 154.743 117.438 154.311 119.381L154.284 119.501C153.895 121.251 153.158 122.904 152.116 124.363L151.259 125.563C150.763 126.257 150.21 126.91 149.607 127.514L149.352 127.768C147.612 129.509 145.447 130.765 143.072 131.412L141.633 131.805C140.362 132.152 139.025 132.184 137.739 131.898L136.749 131.678C134.991 131.287 133.504 130.125 132.699 128.515Z" fill="#201B21"/>
<path d="M154.466 141.308C154.445 141.298 154.427 141.325 154.444 141.341L156.729 143.372C158.846 145.254 160.058 147.952 160.058 150.784V159.056L162.207 157.337C162.893 156.788 163.635 156.313 164.422 155.92L164.926 155.667C166.327 154.967 167.872 154.602 169.439 154.602C170.806 154.602 172.158 154.88 173.414 155.418L175.964 156.511L179.782 158.42C180.622 156.318 181.054 154.075 181.054 151.812V151.421C181.054 149.901 182.027 148.551 183.469 148.071L184.872 147.603C186.946 147.188 188.851 146.169 190.347 144.673L190.559 144.461C190.57 144.45 190.56 144.433 190.546 144.437L180.826 147.296C180.133 147.5 179.415 147.603 178.694 147.603C177.324 147.603 175.98 147.231 174.806 146.526L174.085 146.094C173.643 145.829 173.235 145.51 172.87 145.145L172.43 144.705C172.242 144.517 172.086 144.301 171.968 144.064L171.864 143.857C171.638 143.404 171.6 142.88 171.76 142.399C171.996 141.693 172.621 141.188 173.361 141.106L175.887 140.825C177.173 140.682 178.371 140.106 179.286 139.191C179.615 138.862 179.984 138.574 180.383 138.335L182.433 137.105C182.785 136.894 183.11 136.64 183.4 136.349L183.972 135.778C184.548 135.202 184.872 134.42 184.872 133.605V133.233C184.872 132.657 184.643 132.104 184.236 131.697C183.828 131.289 183.276 131.06 182.7 131.06H179.146H178.85C177.352 131.06 175.856 130.954 174.374 130.742C172.891 130.53 171.395 130.424 169.897 130.424H168.965L164.881 130.016C163.661 129.894 162.603 130.852 162.603 132.078C162.603 132.247 162.624 132.416 162.665 132.58L162.767 132.988C163.072 134.211 163.789 135.291 164.797 136.047L164.956 136.166C165.504 136.577 165.978 137.078 166.358 137.648L167.057 138.696L167.478 139.328C168.041 140.173 168.455 141.108 168.701 142.092L168.908 142.918C168.946 143.072 168.965 143.229 168.965 143.387C168.965 144.034 168.642 144.637 168.105 144.996L167.746 145.235C167.297 145.534 166.768 145.694 166.228 145.694H164.512H163.27C162.028 145.694 160.837 145.201 159.959 144.323C159.603 143.967 159.192 143.671 158.742 143.446L154.466 141.308Z" fill="#201C1D"/>
<path d="M160.058 159.056L161.966 163.51L162.563 164.553C163.792 166.705 165.947 168.169 168.4 168.519C168.777 168.573 169.156 168.6 169.536 168.6H170.256C172.304 168.6 174.29 167.903 175.889 166.624C176.362 166.245 176.796 165.82 177.184 165.355L177.338 165.17C178.917 163.275 179.782 160.886 179.782 158.42L175.964 156.511L173.414 155.418C172.158 154.88 170.806 154.602 169.439 154.602C167.872 154.602 166.327 154.967 164.926 155.667L164.422 155.92C163.635 156.313 162.893 156.788 162.207 157.337L160.058 159.056Z" fill="#E3506C"/>
<path d="M112.621 80.1596C113.28 79.3127 114.008 78.5226 114.799 77.7977L121.246 71.8882L128.245 65.5256L134.607 61.0717L131.093 57.5579C130.044 56.5089 128.911 55.5483 127.703 54.686L126.736 53.9953C125.625 53.2015 124.423 52.544 123.155 52.0368L118.55 50.287L116.066 50.8067C113.814 51.2781 111.738 52.3689 110.073 53.9563C107.846 56.0783 106.49 58.9544 106.271 62.0225L106.161 63.5615C106.038 65.2842 106.189 67.0155 106.608 68.691L106.822 69.5482C107.523 72.3529 108.773 74.9909 110.5 77.3099L112.621 80.1596Z" fill="#3E3641"/>
<path d="M241.499 91.6122L245.953 101.156L251.043 95.4298L253.035 93.1882C255.059 90.9114 256.399 88.1093 256.899 85.1045C257.234 83.0984 257.187 81.0472 256.761 79.0586L256.208 76.4818C255.746 74.3255 254.6 72.3762 252.941 70.9241C251.295 69.4839 249.231 68.6089 247.051 68.4272L242.772 68.0706C238.959 70.1884 235.314 72.5924 231.865 75.2618L230.948 75.9715C234.147 79.1697 236.849 82.8282 238.965 86.8256L241.499 91.6122Z" fill="#3F3742"/>
<path fill-rule="evenodd" clip-rule="evenodd" d="M104.703 90.3397L101.156 84.7243C98.4459 80.4325 96.389 75.7613 95.0534 70.864L94.5193 68.9059C93.6771 65.8178 93.2504 62.6312 93.2504 59.4303V54.7815C93.2504 49.7861 94.9154 44.9332 97.9823 40.9901C100.705 37.4894 104.403 34.873 108.61 33.4705L109.576 33.1485C114.683 31.4463 120.194 31.3822 125.339 32.9653L125.7 33.0763L132.887 41.3692C133.609 42.2021 134.27 43.0856 134.866 44.0128L135.512 45.0167C138.205 49.2069 139.244 54.2494 138.425 59.163L134.607 61.0717L131.093 57.5579C130.044 56.5089 128.911 55.5483 127.703 54.686L126.736 53.9953C125.625 53.2015 124.423 52.544 123.155 52.0368L123.087 51.956C121.489 50.0378 119.255 48.757 116.792 48.3465L114.533 47.8948C113.92 47.7721 113.296 47.7103 112.67 47.7103H112.387C110.696 47.7103 109.034 48.2284 107.434 48.7775C106.848 48.8612 106.389 48.9828 106.612 48.9828C106.769 48.9828 107.072 48.9019 107.434 48.7775C108.444 48.6334 109.983 48.9828 111.003 48.9828H111.702C113.392 48.9828 115.076 49.1901 116.716 49.6001L116.792 49.6191L118.55 50.287L116.066 50.8067C113.814 51.2781 111.738 52.3689 110.073 53.9563C107.846 56.0783 106.49 58.9544 106.271 62.0225L106.161 63.5615C106.038 65.2842 106.189 67.0155 106.608 68.691L106.822 69.5482C107.523 72.3529 108.773 74.9909 110.5 77.3099L112.621 80.1596L104.703 90.3397Z" fill="#58555E"/>
<path d="M144.787 47.074L139.913 41.913C136.018 37.789 131.121 34.7445 125.7 33.0763L132.887 41.3692C133.609 42.2021 134.27 43.0856 134.866 44.0128L135.512 45.0167C138.205 49.2069 139.244 54.2494 138.425 59.163L142.242 57.2542L149.878 54.0729L144.787 47.074Z" fill="#403843"/>
<path fill-rule="evenodd" clip-rule="evenodd" d="M248.498 49.6191L241.025 54.1026C239.647 54.9295 238.346 55.8777 237.136 56.936L235.495 58.3724C231.189 62.1396 228.545 67.4543 228.138 73.1607L230.948 75.9715L231.865 75.2618C235.314 72.5924 238.959 70.1884 242.772 68.0706L247.051 68.4272C249.231 68.6089 251.295 69.4839 252.941 70.9241C254.6 72.3762 255.746 74.3255 256.208 76.4818L256.761 79.0586C257.187 81.0472 257.234 83.0984 256.899 85.1045C256.399 88.1093 255.059 90.9114 253.035 93.1882L251.043 95.4298L245.953 101.156L249.77 110.064L253.896 107.813C255.805 106.772 257.59 105.517 259.216 104.072C261.39 102.139 263.257 99.8872 264.754 97.3929L266.313 94.7935L267.332 92.7554C269.186 89.0483 270.43 85.0667 271.016 80.9637L271.129 80.1691C271.312 78.8918 271.403 77.6032 271.403 76.313C271.403 73.3823 270.931 70.4707 270.004 67.6904L269.548 66.3217C269.089 64.946 268.496 63.6189 267.776 62.3598C266.805 60.6603 265.612 59.0979 264.228 57.7139L263.954 57.4398C262.983 56.4694 261.934 55.5808 260.818 54.7831L258.042 52.8004C255.102 51.1203 251.858 50.0391 248.498 49.6191ZM242.772 68.0706H249.525C251.789 68.0706 254.031 68.5025 256.133 69.3431L258.042 69.9794L261.862 71.071C261.949 71.0957 261.999 70.9758 261.92 70.9321L258.05 68.7823C257.198 68.3088 256.304 67.9155 255.379 67.6072C253.771 67.0713 252.088 66.7981 250.393 66.7981H250.057C248.599 66.7981 247.146 66.9769 245.731 67.3306L242.772 68.0706Z" fill="#5B5362"/>
<path d="M224.32 57.8904L216.685 63.6168L221.775 67.4343L228.138 73.1607C228.545 67.4543 231.189 62.1396 235.495 58.3724L237.136 56.936C238.346 55.8777 239.647 54.9295 241.025 54.1026L248.498 49.6191H243.858C241.052 49.6191 238.283 50.2726 235.773 51.5278L224.32 57.8904Z" fill="#3A383D"/>
<path fill-rule="evenodd" clip-rule="evenodd" d="M98.9767 170.509L107.884 183.87L119.337 190.869L128.881 196.701C130.151 197.477 131.487 198.14 132.873 198.683L145.424 203.594L154.661 206.18C159.1 207.423 163.631 208.313 168.211 208.842L170.007 209.049C175.235 209.652 180.514 209.674 185.747 209.113C192.342 208.406 198.806 206.781 204.952 204.285L216.049 199.777L230.131 192.475C232.186 191.409 234.084 190.066 235.773 188.483L243.408 181.325L252.315 170.509L255.497 160.965V150.148C255.497 149.639 254.224 141.028 253.588 136.787L251.679 122.153L249.77 110.064L245.953 101.156L241.499 91.6122L238.965 86.8256C236.849 82.8282 234.147 79.1697 230.948 75.9715L228.138 73.1607L221.775 67.4343L216.685 63.6168C214.57 61.9248 212.282 60.461 209.86 59.2498L208.934 58.7869C206.893 57.7664 204.782 56.892 202.617 56.1704L200.142 55.3454L199.098 54.8981C196.881 53.948 195.02 52.3235 193.779 50.2553L191.234 53.4366L191.807 54.0095C192.271 54.4729 192.656 55.008 192.949 55.5941L192.985 55.6654C193.09 55.876 193.181 56.0938 193.255 56.3171L193.407 56.773C193.649 57.4984 193.649 58.2825 193.407 59.0079C193.234 59.5283 192.941 60.0012 192.553 60.3891L191.871 61.0717L190.598 62.3443L189.153 63.7899C188.848 64.0945 188.477 64.324 188.068 64.4602L187.316 64.7109C186.978 64.8235 186.607 64.7738 186.311 64.5764C185.627 64.1199 185.627 63.1137 186.311 62.6572L186.781 62.3443L189.326 60.4355L191.609 58.7232C191.774 58.5995 191.871 58.4054 191.871 58.1992V57.4611C191.871 57.1499 191.495 56.9941 191.275 57.2141C191.248 57.2407 191.217 57.2627 191.184 57.2795L190.299 57.7219C190.076 57.8335 189.872 57.9804 189.695 58.1569L189.081 58.7713C188.513 59.339 187.584 59.163 186.781 59.163C186.272 59.163 186.569 58.7388 186.781 58.5267L189.326 55.3454L191.234 53.4366L193.779 50.2553V46.3394C193.779 44.0158 192.618 41.846 190.685 40.5572C189.013 39.4425 186.94 39.1061 185.002 39.6349L183.858 39.9469C182.03 40.4453 180.392 41.4757 179.151 42.9072L177.748 44.5267C174.594 48.1651 170.017 50.2553 165.202 50.2553H165.079C163.437 50.2553 161.804 50.495 160.231 50.9669L149.878 54.0729L142.242 57.2542L138.425 59.163L134.607 61.0717L128.245 65.5256L121.246 71.8882L114.799 77.7977C114.008 78.5226 113.28 79.3127 112.621 80.1596L104.703 90.3397L102.158 96.7023L93.2504 118.971L89.2107 129.475C87.6752 133.467 86.8878 137.708 86.8878 141.985C86.8878 148.963 88.9824 155.78 92.9004 161.554L98.9767 170.509ZM160.058 150.784C160.058 147.952 158.846 145.254 156.729 143.372L154.444 141.341C154.427 141.325 154.445 141.298 154.466 141.308L158.742 143.446C159.192 143.671 159.603 143.967 159.959 144.323C160.837 145.201 162.028 145.694 163.27 145.694H164.512H166.228C166.768 145.694 167.297 145.534 167.746 145.235L168.105 144.996C168.642 144.637 168.965 144.034 168.965 143.387C168.965 143.229 168.946 143.072 168.908 142.918L168.701 142.092C168.455 141.108 168.041 140.173 167.478 139.328L167.057 138.696L166.358 137.648C165.978 137.078 165.504 136.577 164.956 136.166L164.797 136.047C163.789 135.291 163.072 134.211 162.767 132.988L162.665 132.58C162.624 132.416 162.603 132.247 162.603 132.078C162.603 130.852 163.661 129.894 164.881 130.016L168.965 130.424H169.897C171.395 130.424 172.891 130.53 174.374 130.742C175.856 130.954 177.352 131.06 178.85 131.06H179.146H182.7C183.276 131.06 183.828 131.289 184.236 131.697C184.643 132.104 184.872 132.657 184.872 133.233V133.605C184.872 134.42 184.548 135.202 183.972 135.778L183.4 136.349C183.11 136.64 182.785 136.894 182.433 137.105L180.383 138.335C179.984 138.574 179.615 138.862 179.286 139.191C178.371 140.106 177.173 140.682 175.887 140.825L173.361 141.106C172.621 141.188 171.996 141.693 171.76 142.399C171.6 142.88 171.638 143.404 171.864 143.857L171.968 144.064C172.086 144.301 172.242 144.517 172.43 144.705L172.87 145.145C173.235 145.51 173.643 145.829 174.085 146.094L174.806 146.526C175.98 147.231 177.324 147.603 178.694 147.603C179.415 147.603 180.133 147.5 180.826 147.296L190.546 144.437C190.56 144.433 190.57 144.45 190.559 144.461L190.347 144.673C188.851 146.169 186.946 147.188 184.872 147.603L183.469 148.071C182.027 148.551 181.054 149.901 181.054 151.421V151.812C181.054 154.075 180.622 156.318 179.782 158.42C179.782 160.886 178.917 163.275 177.338 165.17L177.184 165.355C176.796 165.82 176.362 166.245 175.889 166.624C174.29 167.903 172.304 168.6 170.256 168.6H169.536C169.156 168.6 168.777 168.573 168.4 168.519C165.947 168.169 163.792 166.705 162.563 164.553L161.966 163.51L160.058 159.056V150.784ZM191.234 138.696C189.561 135.348 188.689 131.657 188.689 127.915V121.494C188.689 120.662 188.749 119.83 188.866 119.006C189.17 116.88 189.86 114.828 190.903 112.95L192.507 110.064L195.671 105.713C196.944 103.963 198.534 102.469 200.359 101.307C203.126 99.5463 206.338 98.6111 209.618 98.6111H211.527C213.264 98.6111 214.995 98.8012 216.69 99.1779L219.038 99.6995C223.319 100.651 227.24 102.803 230.341 105.904C231.414 106.978 232.379 108.155 233.222 109.419L233.459 109.775C235.817 113.312 237.32 117.35 237.847 121.569L238.318 125.334V132.377C238.318 135.298 237.847 138.199 236.923 140.97L236.617 141.888C236.057 143.57 235.274 145.169 234.291 146.645C232.751 148.955 230.745 150.918 228.403 152.409L226.451 153.651C225.457 154.283 224.4 154.81 223.298 155.224C221.036 156.072 218.619 156.428 216.209 156.267L211.834 155.975C210.829 155.908 209.834 155.735 208.865 155.458C206.891 154.894 205.061 153.91 203.502 152.574L201.415 150.784C197.615 147.407 194.304 143.519 191.575 139.231L191.234 138.696ZM148.103 138.904C151.356 137.096 154.112 134.512 156.124 131.382C157.878 128.654 159.023 125.581 159.481 122.372L159.745 120.525C159.953 119.067 160.058 117.596 160.058 116.124V113.895C160.058 112.193 159.89 110.496 159.556 108.828C159.045 106.273 158.151 103.81 156.903 101.523L156.577 100.925C155.508 98.9653 154.209 97.14 152.707 95.4881L150.281 92.8201C149.177 91.6049 147.824 90.6412 146.314 89.9942C144.887 89.3826 143.351 89.0672 141.798 89.0672H135.88H134.665C131.28 89.0672 127.941 89.8553 124.913 91.3692C123.743 91.9542 122.628 92.6433 121.582 93.4282L121.246 93.6796C119.137 95.2617 117.276 97.1503 115.725 99.2828L114.696 100.697C113.551 102.272 112.569 103.958 111.763 105.73C110.459 108.6 109.633 111.664 109.319 114.801L109.157 116.426V117.775C109.157 122.754 110.248 127.672 112.353 132.184L112.925 133.408C113.381 134.386 113.922 135.323 114.541 136.207L114.603 136.296C116.851 139.507 120.072 141.91 123.791 143.149L125.802 143.652C127.847 144.163 129.947 144.422 132.055 144.422H132.247C133.817 144.422 135.382 144.267 136.922 143.959C139.601 143.423 142.167 142.431 144.51 141.025L147.332 139.332L148.103 138.904Z" fill="white"/>
<path d="M75.7093 346.51L67.4379 336.966V346.51H75.7093Z" fill="#CC1612"/>
<path d="M67.4379 336.966L60.0853 329.124C58.633 327.574 56.9523 326.256 55.1016 325.215L52.4751 323.738C49.4225 322.021 45.8196 321.565 42.4354 322.467L39.653 323.209C38.6897 323.466 37.8339 324.025 37.2111 324.803C36.2221 326.04 35.9272 327.693 36.4278 329.195L37.6063 332.73C37.9798 333.851 38.5235 334.907 39.2182 335.863L41.1666 338.542C42.5582 340.455 44.1519 342.213 45.9202 343.785L48.9864 346.51H67.4379V336.966Z" fill="#FFFDFE"/>
<path d="M102.699 332.395C100.227 334.747 98.0505 337.392 96.2185 340.271L94.5229 342.935L91.3416 346.753L118.606 347.268L102.699 346.51V332.395Z" fill="#CC1612"/>
<path d="M68.8265 215.144C74.067 218.887 79.6748 222.087 85.5632 224.695L98.9767 230.635L114.883 228.733L117.602 228.408L128.881 226.499L161.966 222.258C159.012 221.273 156.209 219.881 153.638 218.122L145.424 212.502L135.88 204.23L128.881 196.701L119.337 190.869L107.884 183.87H86.8878L72.9151 182.317C70.7867 182.081 68.6987 181.566 66.7045 180.786L59.8409 178.1C56.8474 176.928 53.4736 177.264 50.7696 179.002L48.8432 180.241C47.1753 181.313 46.1671 183.16 46.1671 185.143C46.1671 190.076 47.8967 194.853 51.055 198.643L55.5569 204.045C57.7714 206.703 60.3171 209.066 63.132 211.076L68.8265 215.144Z" fill="#5E5162"/>
<path d="M290.491 234.771L281.583 370.931L178.509 370.294M290.491 234.771L256.133 230.5L245.953 229.235M290.491 234.771L178.509 220.137M178.509 220.137V370.294M178.509 220.137L161.966 222.258M178.509 220.137L190.204 222.306M67.4379 313.031L65.8912 234.771L98.9767 230.635M67.4379 313.031L57.575 309.008C54.4243 307.723 51.054 307.062 47.6512 307.062H45.827C39.3487 307.062 33.1909 309.88 28.9566 314.783V314.783C25.4599 318.832 23.5359 324.003 23.5359 329.353V330.689C23.5359 336.713 26.0772 342.458 30.5348 346.51V346.51M67.4379 313.031V313.031C71.6589 318.357 75.1134 324.248 77.7011 330.533L78.2543 331.876L82.0719 340.148M30.5348 346.51L1.62891 346.753V370.294H69.7087H98.9767H167.693M30.5348 346.51H48.9864M30.5348 346.51H67.4379M178.509 370.294H167.693M82.0719 340.148L88.1603 328.937L90.8042 324.972C94.1236 319.992 97.9266 315.353 102.158 311.122V311.122V311.122C103.809 309.471 105.957 308.41 108.271 308.101L114.247 307.304L119.973 306.668H125.7M82.0719 340.148L82.231 343.329L82.39 346.51M125.7 306.668C125.7 306.668 128.911 307.941 130.153 307.941M125.7 306.668L130.153 307.941M137.152 311.122C137.152 311.122 132.638 309.68 130.153 307.941M137.152 311.122L140.97 316.212L141.406 316.976C142.799 319.414 143.719 322.094 144.116 324.873L144.146 325.081C144.569 328.043 144.363 331.06 143.541 333.937V333.937C142.686 336.93 141.184 339.699 139.142 342.049L134.607 347.268M137.152 311.122L134.607 309.85L130.153 307.941M134.607 347.268H118.606M134.607 347.268L167.693 347.389V370.294M118.606 347.268L124.071 339.616C124.668 338.78 125.199 337.898 125.659 336.979L128.636 331.025C129.531 329.234 129.531 327.126 128.636 325.334V325.334C127.558 323.179 125.355 321.817 122.945 321.817H120.892C119.388 321.817 117.905 322.167 116.561 322.84L112.834 324.703C110.752 325.744 108.811 327.047 107.059 328.58L102.699 332.395M118.606 347.268L102.699 346.51V332.395M118.606 347.268L91.3416 346.753M91.3416 346.753L94.5229 342.935L96.2184 340.271C98.0505 337.392 100.227 334.747 102.699 332.395V332.395M91.3416 346.753L82.39 346.51M75.7093 346.51L67.4379 336.966M75.7093 346.51H82.39M75.7093 346.51H67.4379M67.4379 336.966L60.0853 329.124C58.633 327.574 56.9523 326.256 55.1016 325.215L52.4751 323.738C49.4225 322.021 45.8196 321.565 42.4354 322.467L39.653 323.209C38.6897 323.466 37.8339 324.025 37.2111 324.803V324.803C36.2221 326.04 35.9272 327.693 36.4278 329.195L37.6063 332.731C37.9798 333.851 38.5235 334.907 39.2182 335.863L41.1666 338.542C42.5582 340.455 44.1519 342.213 45.9202 343.785L48.9864 346.51M67.4379 336.966V346.51M48.9864 346.51H67.4379M98.9767 230.635L85.5632 224.695C79.6748 222.087 74.067 218.887 68.8265 215.144L63.1319 211.076C60.3171 209.066 57.7714 206.703 55.5569 204.045L51.055 198.643C47.8967 194.853 46.1671 190.076 46.1671 185.143V185.143V185.143C46.1671 183.16 47.1753 181.313 48.8432 180.241L50.7696 179.002C53.4736 177.264 56.8474 176.928 59.8409 178.1L66.7045 180.786C68.6987 181.566 70.7867 182.081 72.9151 182.317L86.8878 183.87H107.884M98.9767 230.635L114.883 228.733L117.602 228.408L128.881 226.499L161.966 222.258M107.884 183.87L98.9767 170.509L92.9004 161.554C88.9824 155.78 86.8878 148.963 86.8878 141.985V141.985C86.8878 137.708 87.6752 133.467 89.2107 129.475L93.2504 118.971L102.158 96.7023L104.703 90.3397M107.884 183.87L119.337 190.869L128.881 196.701M104.703 90.3397L101.156 84.7243C98.4459 80.4325 96.389 75.7613 95.0534 70.864L94.5193 68.9059C93.6771 65.8178 93.2504 62.6312 93.2504 59.4303V54.7815C93.2504 49.7861 94.9154 44.9332 97.9823 40.9901V40.9901C100.705 37.4894 104.403 34.873 108.61 33.4705L109.576 33.1485C114.683 31.4463 120.194 31.3822 125.339 32.9653L125.7 33.0763M104.703 90.3397L112.621 80.1596M149.878 54.0729L144.787 47.074L139.913 41.913C136.018 37.789 131.121 34.7445 125.7 33.0763V33.0763M149.878 54.0729L160.231 50.9669C161.804 50.495 163.437 50.2553 165.079 50.2553H165.202C170.017 50.2553 174.594 48.1651 177.748 44.5267L179.151 42.9072C180.392 41.4757 182.03 40.4453 183.858 39.9469L185.002 39.6349C186.94 39.1061 189.013 39.4425 190.685 40.5572V40.5572C192.618 41.846 193.779 44.0158 193.779 46.3394V50.2553M149.878 54.0729L142.242 57.2542L138.425 59.163M193.779 50.2553L191.234 53.4366M193.779 50.2553V50.2553C195.02 52.3235 196.881 53.948 199.098 54.8981L200.142 55.3454L202.617 56.1704C204.782 56.892 206.893 57.7664 208.934 58.7869L209.86 59.2498C212.282 60.461 214.57 61.9248 216.685 63.6168V63.6168M191.234 53.4366L189.326 55.3454L186.781 58.5267C186.569 58.7388 186.272 59.163 186.781 59.163V59.163C187.584 59.163 188.513 59.339 189.081 58.7713L189.695 58.1569C189.872 57.9804 190.076 57.8335 190.299 57.7219L191.184 57.2795C191.217 57.2627 191.248 57.2407 191.275 57.2141V57.2141C191.495 56.9941 191.871 57.1499 191.871 57.4611V58.1992C191.871 58.4054 191.774 58.5995 191.609 58.7232L189.326 60.4355L186.781 62.3443L186.311 62.6572C185.627 63.1137 185.627 64.1199 186.311 64.5764V64.5764C186.607 64.7738 186.978 64.8235 187.316 64.7109L188.068 64.4602C188.477 64.324 188.848 64.0945 189.153 63.7899L190.598 62.3443L191.871 61.0717L192.553 60.3891C192.941 60.0012 193.234 59.5283 193.407 59.0079V59.0079C193.649 58.2825 193.649 57.4984 193.407 56.773L193.255 56.3171C193.181 56.0938 193.09 55.876 192.985 55.6654L192.949 55.5941C192.656 55.008 192.271 54.4729 191.807 54.0095L191.234 53.4366ZM216.685 63.6168L224.32 57.8904L235.773 51.5278V51.5278C238.283 50.2726 241.052 49.6191 243.858 49.6191H248.498M216.685 63.6168L221.775 67.4343L228.138 73.1607M248.498 49.6191V49.6191C251.858 50.0391 255.102 51.1203 258.042 52.8004V52.8004L260.818 54.7831C261.934 55.5808 262.983 56.4694 263.954 57.4398L264.228 57.7139C265.612 59.0979 266.805 60.6603 267.776 62.3598V62.3598C268.496 63.6189 269.089 64.946 269.548 66.3217L270.004 67.6904C270.931 70.4707 271.403 73.3823 271.403 76.313V76.313C271.403 77.6032 271.312 78.8918 271.129 80.1691L271.016 80.9637C270.43 85.0667 269.186 89.0483 267.332 92.7554L266.313 94.7935L264.754 97.3929C263.257 99.8872 261.39 102.139 259.216 104.072V104.072C257.59 105.517 255.805 106.772 253.896 107.814L249.77 110.064M248.498 49.6191L241.025 54.1026C239.647 54.9295 238.346 55.8777 237.136 56.936L235.495 58.3724C231.189 62.1396 228.545 67.4543 228.138 73.1607V73.1607M249.77 110.064L251.679 122.153L253.588 136.787C254.224 141.028 255.497 149.639 255.497 150.148M249.77 110.064L245.953 101.156M255.497 150.148C255.497 150.657 255.497 157.571 255.497 160.965M255.497 150.148V160.965M255.497 160.965L252.315 170.509M252.315 170.509L257.31 168.203C259.491 167.197 261.747 166.36 264.056 165.7V165.7C267.669 164.668 271.143 163.204 274.405 161.34L276.291 160.262C277.696 159.459 279.167 158.778 280.687 158.225L283.999 157.021C284.926 156.683 285.906 156.511 286.893 156.511V156.511C289.559 156.511 292.069 157.766 293.668 159.898L293.721 159.968C294.526 161.042 295.07 162.288 295.31 163.609L295.664 165.555C296.029 167.564 295.989 169.627 295.546 171.621V171.621C295.148 173.41 294.433 175.113 293.435 176.649L286.673 187.051V187.051C282.44 192.132 277.772 196.834 272.724 201.106L272.039 201.685L269.589 203.559C264.028 207.812 258.023 211.45 251.679 214.41V214.41L246.295 216.803C246.07 216.904 245.825 216.956 245.578 216.956V216.956C244.458 216.956 243.621 217.984 243.848 219.081L245.953 229.235M252.315 170.509L243.408 181.325M245.953 229.235L226.865 226.862L190.204 222.306M243.408 181.325L241.448 183.83C235.142 191.887 227.897 199.163 219.866 205.503V205.503L210.322 212.502L208.055 213.836C202.367 217.181 196.393 220.016 190.204 222.306V222.306M243.408 181.325L235.773 188.483V188.483C234.084 190.066 232.186 191.409 230.131 192.475L216.049 199.776L204.952 204.285C198.806 206.781 192.342 208.406 185.747 209.113V209.113C180.514 209.674 175.235 209.652 170.007 209.049L168.211 208.842C163.631 208.313 159.1 207.423 154.661 206.18L145.424 203.594L132.873 198.683C131.487 198.14 130.151 197.477 128.881 196.701V196.701M160.058 159.056V150.784V150.784C160.058 147.952 158.846 145.254 156.729 143.372L154.444 141.341C154.427 141.325 154.445 141.298 154.466 141.308L158.742 143.446C159.192 143.671 159.603 143.967 159.959 144.323V144.323C160.837 145.201 162.028 145.694 163.27 145.694H164.512H166.228C166.768 145.694 167.297 145.534 167.746 145.235L168.105 144.996C168.642 144.637 168.965 144.034 168.965 143.387V143.387C168.965 143.229 168.946 143.072 168.908 142.918L168.701 142.092C168.455 141.108 168.041 140.173 167.478 139.328L167.057 138.696L166.358 137.648C165.978 137.078 165.504 136.577 164.956 136.166L164.797 136.047C163.789 135.291 163.072 134.211 162.767 132.988L162.665 132.58C162.624 132.416 162.603 132.247 162.603 132.078V132.078C162.603 130.852 163.661 129.894 164.881 130.016L168.965 130.424H169.897C171.395 130.424 172.891 130.53 174.374 130.742V130.742C175.856 130.954 177.352 131.06 178.85 131.06H179.146H182.7C183.276 131.06 183.828 131.289 184.236 131.697V131.697C184.643 132.104 184.872 132.657 184.872 133.233V133.605C184.872 134.42 184.548 135.202 183.972 135.778L183.4 136.349C183.11 136.64 182.785 136.894 182.433 137.105L180.383 138.335C179.984 138.574 179.615 138.862 179.286 139.191V139.191C178.371 140.106 177.173 140.682 175.887 140.825L173.361 141.106C172.621 141.188 171.996 141.693 171.76 142.399V142.399C171.6 142.88 171.638 143.404 171.864 143.857L171.968 144.064C172.086 144.301 172.242 144.517 172.43 144.705L172.87 145.145C173.235 145.51 173.643 145.829 174.085 146.094L174.806 146.526C175.98 147.231 177.324 147.603 178.694 147.603V147.603C179.415 147.603 180.133 147.5 180.826 147.296L190.546 144.437C190.56 144.433 190.57 144.45 190.559 144.461L190.347 144.673C188.851 146.169 186.946 147.188 184.872 147.603V147.603L183.469 148.071C182.027 148.551 181.054 149.901 181.054 151.421V151.421V151.812C181.054 154.075 180.622 156.318 179.782 158.42V158.42M160.058 159.056L161.966 163.51L162.563 164.553C163.792 166.705 165.947 168.168 168.4 168.519V168.519C168.777 168.573 169.156 168.6 169.536 168.6H170.256C172.304 168.6 174.29 167.903 175.889 166.624V166.624C176.362 166.245 176.796 165.82 177.184 165.355L177.338 165.17C178.917 163.275 179.782 160.886 179.782 158.42V158.42M160.058 159.056L162.207 157.337C162.893 156.788 163.635 156.313 164.422 155.92L164.926 155.667C166.327 154.967 167.872 154.602 169.439 154.602V154.602C170.806 154.602 172.158 154.88 173.414 155.418L175.964 156.511L179.782 158.42M134.607 61.0717L128.245 65.5256L121.246 71.8882L114.799 77.7977C114.008 78.5226 113.28 79.3127 112.621 80.1596V80.1596M134.607 61.0717L131.093 57.5579C130.044 56.5089 128.911 55.5483 127.703 54.686L126.736 53.9953C125.625 53.2015 124.423 52.544 123.155 52.0368V52.0368M134.607 61.0717L138.425 59.163M112.621 80.1596L110.5 77.3099C108.773 74.9909 107.523 72.3529 106.822 69.5482L106.608 68.691C106.189 67.0155 106.038 65.2842 106.161 63.5615L106.271 62.0225C106.49 58.9544 107.846 56.0783 110.073 53.9563V53.9563C111.738 52.3689 113.814 51.2781 116.066 50.8067L118.55 50.287M123.155 52.0368L118.844 50.3127C118.751 50.2753 118.648 50.2663 118.55 50.287V50.287M123.155 52.0368L123.087 51.956C121.489 50.0378 119.255 48.757 116.792 48.3465V48.3465L114.533 47.8948C113.92 47.7721 113.296 47.7103 112.67 47.7103H112.387C110.696 47.7103 109.034 48.2284 107.434 48.7775V48.7775M123.155 52.0368L118.55 50.287M245.953 101.156L241.499 91.6122L238.965 86.8256C236.849 82.8282 234.147 79.1697 230.948 75.9715V75.9715M245.953 101.156L251.043 95.4298L253.035 93.1882C255.059 90.9114 256.399 88.1093 256.899 85.1045V85.1045C257.234 83.0984 257.187 81.0472 256.761 79.0586L256.208 76.4818C255.746 74.3255 254.6 72.3762 252.941 70.9241V70.9241C251.295 69.4839 249.231 68.6089 247.051 68.4273L242.772 68.0706M228.138 73.1607L230.948 75.9715M242.772 68.0706V68.0706C238.959 70.1884 235.314 72.5924 231.865 75.2618L230.948 75.9715M242.772 68.0706L245.731 67.3306C247.146 66.9769 248.599 66.7981 250.057 66.7981H250.393C252.088 66.7981 253.771 67.0713 255.379 67.6072V67.6072C256.304 67.9155 257.198 68.3089 258.05 68.7823L261.92 70.9321C261.999 70.9758 261.949 71.0957 261.862 71.071L258.042 69.9794L256.133 69.3431V69.3431C254.031 68.5025 251.789 68.0706 249.525 68.0706H242.772ZM128.881 196.701L135.88 204.23L145.424 212.502L153.638 218.122C156.209 219.881 159.012 221.273 161.966 222.258V222.258M118.55 50.287L116.792 49.6191L116.716 49.6001C115.076 49.1901 113.392 48.9828 111.702 48.9828V48.9828H111.003C109.983 48.9828 108.444 48.6334 107.434 48.7775V48.7775M107.434 48.7775C107.072 48.9019 106.769 48.9828 106.612 48.9828C106.389 48.9828 106.848 48.8612 107.434 48.7775ZM125.7 33.0763L132.887 41.3692C133.609 42.2021 134.27 43.0856 134.866 44.0128L135.512 45.0167C138.205 49.2069 139.244 54.2494 138.425 59.163V59.163M191.234 138.696V138.696C189.561 135.348 188.689 131.657 188.689 127.915V121.494C188.689 120.662 188.748 119.83 188.866 119.006V119.006C189.17 116.88 189.86 114.828 190.903 112.95L192.507 110.064L195.671 105.713C196.944 103.963 198.534 102.469 200.359 101.307V101.307C203.126 99.5463 206.338 98.6111 209.618 98.6111H211.527C213.264 98.6111 214.995 98.8012 216.69 99.1779L219.038 99.6995C223.319 100.651 227.24 102.803 230.341 105.904V105.904C231.414 106.978 232.379 108.155 233.222 109.419L233.459 109.775C235.817 113.312 237.32 117.35 237.847 121.569L238.318 125.334V132.377C238.318 135.298 237.847 138.199 236.923 140.97L236.617 141.888C236.057 143.57 235.274 145.169 234.291 146.645V146.645C232.751 148.955 230.745 150.918 228.403 152.409L226.451 153.651C225.457 154.283 224.4 154.81 223.298 155.224V155.224C221.036 156.072 218.619 156.428 216.209 156.267L211.834 155.975C210.829 155.908 209.834 155.735 208.865 155.458V155.458C206.891 154.894 205.061 153.91 203.502 152.574L201.415 150.784V150.784C197.615 147.407 194.304 143.519 191.575 139.231L191.234 138.696ZM223.047 127.879L220.821 128.77C220.191 129.022 219.619 129.399 219.139 129.879V129.879C218.372 130.646 217.874 131.641 217.721 132.714L217.608 133.509C217.42 134.822 216.884 136.06 216.056 137.096L215.016 138.395C213.256 140.596 210.591 141.877 207.773 141.877V141.877C206.516 141.877 205.273 141.622 204.118 141.127L203.174 140.722C202.007 140.222 200.919 139.555 199.944 138.743V138.743C198.4 137.456 197.172 135.831 196.356 133.995L196.265 133.79C195.465 131.99 195.052 130.043 195.052 128.073V126.542C195.052 124.492 195.529 122.471 196.446 120.638L197.011 119.507C197.808 117.913 199.059 116.591 200.606 115.707V115.707C201.97 114.928 203.513 114.518 205.084 114.518H205.691C208.269 114.518 210.762 115.44 212.719 117.118V117.118C213.659 117.923 214.454 118.885 215.068 119.959L216.685 122.789L217.392 124.557C217.747 125.445 218.507 126.108 219.434 126.339V126.339C220.123 126.512 220.852 126.432 221.487 126.114L223.047 125.334L226.214 123.434C226.219 123.431 226.227 123.436 226.225 123.443L226.151 123.816C225.798 125.577 224.653 127.076 223.047 127.879V127.879ZM147.332 139.332L148.103 138.904C151.356 137.096 154.112 134.512 156.125 131.382V131.382C157.878 128.654 159.023 125.581 159.481 122.372L159.745 120.525C159.953 119.067 160.058 117.596 160.058 116.124V113.895C160.058 112.193 159.89 110.496 159.556 108.828V108.828C159.045 106.273 158.151 103.81 156.903 101.523L156.577 100.925C155.508 98.9653 154.209 97.14 152.707 95.4881L150.281 92.8201C149.177 91.6049 147.824 90.6412 146.314 89.9942V89.9942C144.887 89.3826 143.351 89.0672 141.798 89.0672H135.88H134.665C131.28 89.0672 127.941 89.8553 124.913 91.3692V91.3692C123.743 91.9542 122.628 92.6433 121.582 93.4282L121.246 93.6796C119.137 95.2617 117.276 97.1503 115.725 99.2828L114.696 100.697C113.551 102.272 112.569 103.958 111.763 105.73V105.73C110.459 108.6 109.633 111.664 109.319 114.801L109.157 116.426V117.775C109.157 122.754 110.248 127.672 112.353 132.184L112.925 133.408C113.381 134.386 113.922 135.323 114.541 136.207L114.603 136.296C116.851 139.507 120.072 141.91 123.791 143.149V143.149L125.802 143.652C127.847 144.163 129.947 144.422 132.055 144.422H132.247C133.817 144.422 135.382 144.267 136.922 143.959V143.959C139.601 143.423 142.167 142.431 144.51 141.025L147.332 139.332ZM132.699 128.515L131.275 124.719C130.953 123.86 130.744 122.963 130.652 122.051L130.463 120.156C130.267 118.198 129.204 116.43 127.567 115.338V115.338C126.756 114.798 126.076 114.084 125.575 113.249L125.481 113.092C124.791 111.943 124.427 110.629 124.427 109.289V108.824C124.427 108.813 124.44 108.809 124.447 108.817L125.763 110.573C126.143 111.079 126.593 111.529 127.099 111.909L127.598 112.283C128.431 112.907 129.444 113.245 130.485 113.245V113.245C131.89 113.245 133.225 112.631 134.139 111.565L135.472 110.01C136.163 109.203 136.987 108.522 137.909 107.995L138.274 107.787C140.041 106.777 142.04 106.246 144.075 106.246H146.04C146.896 106.246 147.746 106.384 148.558 106.655V106.655C150.238 107.215 151.683 108.319 152.665 109.792L152.841 110.056C153.406 110.903 153.821 111.841 154.068 112.83L154.234 113.491C154.716 115.421 154.743 117.438 154.311 119.381L154.284 119.501C153.895 121.251 153.158 122.904 152.116 124.363L151.259 125.563C150.763 126.257 150.21 126.91 149.607 127.514L149.352 127.768C147.612 129.509 145.447 130.765 143.072 131.412L141.633 131.805C140.362 132.152 139.025 132.184 137.739 131.898L136.749 131.678C134.991 131.287 133.504 130.125 132.699 128.515V128.515Z" stroke="black" stroke-width="2"/>
<path d="M58.2617 195.96L47.4453 186.416L48.0816 190.87L50.5835 195.874C50.6122 195.931 50.6463 195.986 50.6853 196.037L56.9316 204.157C56.9699 204.207 57.0129 204.253 57.0599 204.294L62.7156 209.322L70.3507 214.412L77.9858 219.502L86.8935 223.956L99.3608 229.566C99.5294 229.642 99.7158 229.67 99.8991 229.646L119.343 227.137L118.716 217.733C118.71 217.64 118.716 217.547 118.736 217.456L120.615 208.685L121.864 203.066C121.88 202.995 121.888 202.922 121.888 202.849V201.05L121.252 202.959L116.395 216.922C116.255 217.324 115.876 217.593 115.451 217.593H99.7347C99.6576 217.593 99.5808 217.584 99.5057 217.567L88.8022 215.048L78.7452 211.277C78.6635 211.246 78.5861 211.205 78.5151 211.154L69.7144 204.868L58.2617 195.96Z" fill="#3F3442"/>
<path d="M105.345 182.599L106.618 183.871L109.163 186.416L115.525 190.234L128.25 198.505L135.886 206.14L141.612 211.231L147.338 215.684L153.065 219.502L157.851 222.371C158.048 222.488 158.278 222.535 158.505 222.503L161.972 222.014L179.659 219.52C179.744 219.508 179.831 219.507 179.916 219.517L195.694 221.379L205.874 216.321L216.054 209.959L228.143 199.778L233.233 194.688L243.414 183.236L252.957 171.147L253.541 169.395L254.23 167.965L251.049 169.874L244.05 178.781L236.415 186.416L212.873 199.778L181.06 208.049L154.337 204.868L139.703 199.778L132.704 197.233L119.343 189.598L112.344 185.144L108.526 182.599H105.345Z" fill="#413742"/>
<path d="M294.923 168.765C294.941 168.657 294.941 168.546 294.923 168.437L294.314 164.784L293.678 161.603L290.547 169.744C290.514 169.83 290.469 169.912 290.413 169.985L282.862 180.054L274.052 189.493C273.987 189.563 273.912 189.623 273.83 189.671L260.028 197.827C259.98 197.855 259.93 197.88 259.878 197.9L243.414 204.232L238.323 199.778L239.596 210.595L241.505 218.866L244.686 227.774L243.51 217.189C243.455 216.692 243.776 216.23 244.261 216.109L245.959 215.684L251.685 213.139L256.775 210.594L264.41 206.14L269.5 202.323L275.863 196.597L280.262 192.826C280.298 192.795 280.332 192.761 280.364 192.725L284.771 187.689L289.224 181.326L291.769 177.509L294.314 172.419L294.923 168.765Z" fill="#403941"/>
<path d="M195.694 221.379L228.143 225.865L244.686 227.774L241.505 218.866L239.596 210.595L238.323 199.778L243.414 204.232L259.878 197.9C259.93 197.88 259.98 197.855 260.028 197.827L273.83 189.671C273.912 189.623 273.987 189.563 274.052 189.493L282.862 180.054L290.413 169.985C290.469 169.912 290.514 169.83 290.547 169.744L293.678 161.603L292.406 159.694L291.203 158.491C291.157 158.445 291.106 158.403 291.051 158.367L289.224 157.149H286.166C286.084 157.149 286.003 157.159 285.924 157.179L283.498 157.785L281.657 158.399C281.612 158.414 281.568 158.432 281.526 158.453L277.772 160.33L273.954 162.239L268.928 164.752C268.885 164.773 268.841 164.792 268.797 164.807L259.32 167.965L253.541 170.51C253.594 170.51 253.742 169.167 253.541 169.395L252.957 171.147L243.414 183.236L233.233 194.688L228.143 199.778L216.054 209.959L205.874 216.321L195.694 221.379Z" fill="#5D5260"/>
<path d="M201.956 117.344C201.603 117.579 201.293 117.873 201.039 118.212L200.174 119.365C199.736 119.949 199.377 120.588 199.106 121.266L198.911 121.751C198.473 122.846 198.344 124.041 198.538 125.205C198.759 126.531 199.389 127.754 200.339 128.704L201.166 129.531C201.337 129.702 201.524 129.856 201.725 129.99L201.906 130.111C202.798 130.705 203.926 130.823 204.922 130.425C205.972 130.005 206.925 129.376 207.724 128.577L208.422 127.88L208.983 126.757C209.451 125.822 209.694 124.79 209.694 123.744C209.694 122.698 209.451 121.666 208.983 120.73L208.406 119.578C207.999 118.764 207.387 118.07 206.63 117.565L206.491 117.473C206.084 117.202 205.634 117.003 205.16 116.884L204.936 116.828C203.914 116.573 202.832 116.76 201.956 117.344Z" fill="#FBFBFB"/>
<path d="M208.422 127.88L207.724 128.577C206.925 129.376 205.972 130.005 204.922 130.425V131.725C204.922 132.384 205.094 133.032 205.422 133.605L205.592 133.903C206.161 134.9 207.221 135.515 208.369 135.515H208.516C209.271 135.515 209.994 135.215 210.527 134.682C211.199 134.01 211.491 133.046 211.304 132.114L211.138 131.283C211.025 130.716 210.802 130.177 210.481 129.696L210.423 129.61C209.946 128.893 209.289 128.313 208.518 127.928L208.422 127.88Z" fill="#FDFBFE"/>
<path d="M147.977 109.428L146.368 109.106C145.349 108.902 144.291 109.044 143.361 109.509C142.633 109.873 142.013 110.42 141.562 111.097L140.978 111.973L140.119 113.692C139.847 114.235 139.706 114.834 139.706 115.442V116.163C139.706 116.739 139.934 117.292 140.342 117.699C140.977 118.194 141.569 118.742 142.11 119.337L143.523 120.891L144.159 121.517C144.567 121.924 145.12 122.153 145.696 122.153H145.777C145.97 122.153 146.163 122.129 146.351 122.083L147.61 121.768C148.267 121.604 148.866 121.264 149.344 120.786C149.701 120.429 149.982 120.002 150.17 119.533L151.158 117.063L151.192 116.962C151.585 115.781 151.634 114.513 151.332 113.306L151.303 113.188C151.207 112.803 151.069 112.431 150.892 112.076L150.785 111.864C150.209 110.712 149.199 109.835 147.977 109.428Z" fill="#FDFBFE"/>
<path d="M143.523 120.891L142.11 119.337C141.569 118.742 140.977 118.194 140.342 117.699L139.179 118.53C138.495 119.018 138.024 119.749 137.86 120.572C137.818 120.784 137.797 120.999 137.797 121.215V122.309C137.797 122.634 137.849 122.956 137.952 123.265L138.119 123.767C138.317 124.359 138.783 124.823 139.376 125.016L139.756 125.145C140.144 125.277 140.551 125.344 140.961 125.344C141.393 125.344 141.822 125.27 142.229 125.123L142.526 125.016L143.082 124.49C143.374 124.213 143.615 123.888 143.795 123.528C144.035 123.049 144.159 122.521 144.159 121.985V121.517L143.523 120.891Z" fill="#FDFBFE"/>
<path d="M208.422 127.88L207.724 128.577C206.925 129.376 205.972 130.005 204.922 130.425V130.425M208.422 127.88L208.983 126.757C209.451 125.822 209.694 124.79 209.694 123.744V123.744C209.694 122.698 209.451 121.666 208.983 120.73L208.406 119.578C207.999 118.764 207.387 118.07 206.63 117.565L206.491 117.473C206.084 117.202 205.634 117.003 205.16 116.884L204.936 116.828C203.914 116.573 202.832 116.76 201.956 117.344V117.344C201.603 117.579 201.293 117.873 201.039 118.212L200.174 119.365C199.736 119.949 199.377 120.588 199.106 121.266L198.911 121.751C198.473 122.846 198.344 124.041 198.538 125.205V125.205C198.759 126.531 199.389 127.754 200.339 128.704L201.166 129.531C201.337 129.702 201.524 129.856 201.725 129.99L201.906 130.111C202.798 130.705 203.926 130.823 204.922 130.425V130.425M208.422 127.88L208.518 127.928C209.289 128.313 209.946 128.893 210.423 129.61L210.481 129.696C210.802 130.177 211.025 130.716 211.138 131.283L211.304 132.114C211.491 133.046 211.199 134.01 210.527 134.682V134.682C209.994 135.215 209.27 135.515 208.516 135.515H208.369C207.221 135.515 206.161 134.9 205.592 133.903L205.422 133.605C205.094 133.032 204.922 132.384 204.922 131.725V130.425M140.342 117.699V117.699C140.977 118.194 141.569 118.742 142.11 119.337L143.523 120.891L144.159 121.517M140.342 117.699V117.699C139.934 117.292 139.706 116.739 139.706 116.163V115.442C139.706 114.834 139.847 114.235 140.119 113.692L140.978 111.973L141.562 111.097C142.013 110.42 142.633 109.873 143.361 109.509V109.509C144.291 109.044 145.349 108.902 146.368 109.106L147.977 109.428V109.428C149.199 109.835 150.209 110.712 150.785 111.864L150.892 112.076C151.069 112.431 151.207 112.803 151.303 113.188L151.332 113.306C151.634 114.513 151.585 115.781 151.192 116.962L151.158 117.063L150.17 119.533C149.982 120.002 149.701 120.429 149.344 120.786V120.786C148.866 121.264 148.267 121.604 147.61 121.768L146.351 122.083C146.163 122.129 145.97 122.153 145.777 122.153H145.696C145.12 122.153 144.567 121.924 144.159 121.517V121.517M140.342 117.699L139.179 118.53C138.495 119.018 138.024 119.749 137.86 120.572V120.572C137.818 120.784 137.797 120.999 137.797 121.215V122.309C137.797 122.634 137.849 122.956 137.952 123.265L138.119 123.767C138.317 124.359 138.783 124.823 139.376 125.016V125.016L139.756 125.145C140.144 125.277 140.551 125.344 140.961 125.344V125.344C141.393 125.344 141.822 125.27 142.229 125.123L142.526 125.016L143.082 124.49C143.374 124.213 143.615 123.888 143.795 123.528V123.528C144.035 123.049 144.159 122.521 144.159 121.985V121.517" stroke="black"/>
<path d="M98.3438 166.692L112.341 175.6C122.077 180.256 132.219 184.01 142.639 186.816L143.518 187.052L162.606 190.87L184.875 192.779H191.732C200.298 192.779 208.853 192.141 217.324 190.87L235.776 187.052C232.389 189.592 228.781 191.822 224.995 193.715L224.323 194.051L209.053 201.686L203.105 203.768C198.597 205.346 193.95 206.497 189.227 207.205L189.009 207.238C185.41 207.778 181.775 208.049 178.136 208.049C173.309 208.049 168.493 207.572 163.76 206.626L158.152 205.504L146.7 202.323L137.792 199.141C133.986 197.873 130.33 196.191 126.89 194.127L122.522 191.506L114.887 187.052L109.16 182.599C107.044 180.483 105.143 178.163 103.483 175.674L102.161 173.691L98.3438 166.692Z" fill="#C7DAF0"/>
<path d="M31.4292 282.703C31.8613 282.95 32.4092 282.841 32.7147 282.448L36.1561 278.024C36.4381 277.661 36.4369 277.153 36.1531 276.792L29.7737 268.673C29.6838 268.558 29.6199 268.426 29.5866 268.284L27.2585 258.39C27.1593 257.968 26.7999 257.658 26.3682 257.622L20.5401 257.137C19.9571 257.088 19.457 257.548 19.457 258.133V267.01C19.457 267.153 19.4876 267.294 19.5467 267.424L22.5867 274.112C22.621 274.187 22.6645 274.258 22.7162 274.323L27.6093 280.439C27.688 280.537 27.7846 280.62 27.894 280.683L31.4292 282.703Z" fill="#EDCF2F"/>
<path d="M19.0181 205.906C18.5365 206.032 18.2204 206.492 18.2764 206.987L18.9072 212.557C18.9589 213.013 19.3149 213.375 19.7702 213.435L30.0074 214.784C30.1517 214.803 30.2901 214.854 30.4129 214.932L38.9928 220.381C39.3585 220.614 39.8321 220.584 40.1661 220.308L44.674 216.582C45.125 216.21 45.1611 215.531 44.7522 215.113L38.5484 208.764C38.4487 208.661 38.3282 208.582 38.1951 208.53L31.3466 205.871C31.2694 205.841 31.1887 205.821 31.1065 205.811L23.3323 204.856C23.2072 204.84 23.0804 204.849 22.9584 204.881L19.0181 205.906Z" fill="#EA3029"/>
<path d="M66.25 140.48C66.1717 139.988 65.7439 139.629 65.2463 139.637L59.6416 139.728C59.1823 139.735 58.7872 140.055 58.6836 140.502L56.3537 150.562C56.3208 150.703 56.2575 150.836 56.1679 150.951L49.9161 158.965C49.6496 159.307 49.6334 159.781 49.8759 160.14L53.1495 164.986C53.477 165.471 54.1488 165.573 54.6048 165.206L61.5226 159.643C61.6338 159.554 61.7246 159.442 61.7889 159.314L65.096 152.754C65.1333 152.68 65.1613 152.602 65.1792 152.521L66.8796 144.875C66.907 144.752 66.9108 144.625 66.891 144.501L66.25 140.48Z" fill="#EDCF2F"/>
<path d="M20.628 146.999C21.1101 147.122 21.6096 146.872 21.8 146.412L23.944 141.233C24.1197 140.809 23.9836 140.319 23.6142 140.046L15.3091 133.911C15.1921 133.824 15.0953 133.714 15.0256 133.586L10.1557 124.664C9.94813 124.284 9.51935 124.08 9.09358 124.16L3.34552 125.238C2.7705 125.346 2.41048 125.922 2.56571 126.487L4.92106 135.045C4.95894 135.183 5.02584 135.311 5.11728 135.42L9.823 141.062C9.87604 141.126 9.93678 141.182 10.0038 141.231L16.3444 145.83C16.4464 145.904 16.5614 145.958 16.6835 145.989L20.628 146.999Z" fill="#EDCF2F"/>
<path d="M65.7488 83.7349C65.8695 83.2521 65.6168 82.754 65.1559 82.5663L59.9647 80.4516C59.5393 80.2783 59.0506 80.4171 58.7797 80.7881L52.6913 89.1277C52.6055 89.2453 52.4951 89.3427 52.3678 89.4131L43.4736 94.3334C43.0946 94.5431 42.8936 94.9731 42.9759 95.3984L44.0866 101.14C44.1977 101.715 44.776 102.071 45.3392 101.913L53.8843 99.5092C54.0217 99.4706 54.1492 99.403 54.2583 99.3109L59.8734 94.5733C59.9367 94.5199 59.9931 94.4589 60.0413 94.3916L64.6041 88.0251C64.6775 87.9227 64.7309 87.8073 64.7615 87.685L65.7488 83.7349Z" fill="#EA3029"/>
<path d="M81.1195 40.2998C81.5887 40.1339 81.8644 39.6482 81.7664 39.1602L80.6629 33.6645C80.5725 33.2142 80.1869 32.8833 79.7281 32.8624L69.4132 32.3914C69.2679 32.3848 69.1257 32.3465 68.9966 32.2792L59.9832 27.5809C59.5991 27.3807 59.1297 27.4505 58.8206 27.754L54.6467 31.8505C54.2292 32.2603 54.2511 32.9395 54.6941 33.3215L61.4167 39.1185C61.5248 39.2117 61.6516 39.2807 61.7886 39.3208L68.839 41.3862C68.9184 41.4095 69.0005 41.4228 69.0832 41.4258L76.9106 41.7145C77.0365 41.7191 77.1622 41.6999 77.281 41.6579L81.1195 40.2998Z" fill="#EDCF2F"/>
<path d="M137.22 3.36918C136.74 3.23645 136.236 3.47658 136.036 3.93261L133.792 9.06924C133.608 9.49014 133.735 9.98218 134.099 10.2622L142.283 16.5577C142.399 16.6465 142.493 16.7593 142.561 16.8884L147.257 25.903C147.457 26.2872 147.881 26.4988 148.309 26.4273L154.077 25.4608C154.654 25.3642 155.025 24.795 154.88 24.228L152.692 15.6253C152.656 15.487 152.592 15.3578 152.503 15.2464L147.907 9.5144C147.856 9.44979 147.796 9.39187 147.73 9.34196L141.48 4.62103C141.379 4.54509 141.265 4.48883 141.144 4.45521L137.22 3.36918Z" fill="#EA3029"/>
<path d="M215.699 35.9283C216.197 35.9064 216.602 35.5222 216.651 35.027L217.198 29.4483C217.243 28.9912 216.971 28.5623 216.538 28.4084L206.809 24.9489C206.672 24.9001 206.547 24.822 206.444 24.72L199.193 17.5967C198.884 17.2931 198.414 17.223 198.03 17.4231L192.843 20.1238C192.324 20.394 192.147 21.05 192.459 21.5447L197.198 29.0506C197.274 29.1713 197.376 29.2743 197.495 29.3526L203.636 33.3849C203.705 33.4303 203.78 33.467 203.858 33.4941L211.261 36.0536C211.38 36.0947 211.506 36.113 211.632 36.1075L215.699 35.9283Z" fill="#EDCF2F"/>
<path d="M270.139 13.4567C270.458 13.0747 270.448 12.5163 270.115 12.1465L266.364 7.9806C266.057 7.63925 265.557 7.55114 265.151 7.76698L256.037 12.6191C255.908 12.6875 255.767 12.7271 255.621 12.735L245.472 13.2868C245.039 13.3103 244.671 13.6097 244.56 14.0283L243.057 19.6802C242.906 20.2456 243.271 20.8187 243.847 20.9216L252.586 22.4826C252.726 22.5077 252.87 22.5024 253.009 22.4671L260.127 20.6506C260.208 20.6301 260.285 20.5998 260.358 20.5602L267.239 16.819C267.35 16.7588 267.448 16.6782 267.529 16.5815L270.139 13.4567Z" fill="#EA3029"/>
<path d="M296.794 80.3867C297.226 80.6328 297.774 80.5234 298.079 80.13L301.512 75.6988C301.793 75.3358 301.791 74.8277 301.507 74.4671L295.112 66.3599C295.022 66.2456 294.958 66.1131 294.924 65.9715L292.577 56.0817C292.477 55.6602 292.117 55.351 291.686 55.3158L285.857 54.8411C285.274 54.7937 284.774 55.2547 284.775 55.8397L284.792 64.7165C284.792 64.8592 284.823 65.0003 284.883 65.1301L287.935 71.8125C287.97 71.8878 288.013 71.9586 288.065 72.0232L292.97 78.1302C293.049 78.2285 293.145 78.3109 293.255 78.3733L296.794 80.3867Z" fill="#EDCF2F"/>
<path d="M289.301 140.176C289.795 140.234 290.256 139.919 290.384 139.438L291.815 134.019C291.933 133.575 291.732 133.108 291.33 132.887L282.279 127.917C282.151 127.847 282.04 127.75 281.954 127.633L275.934 119.443C275.678 119.094 275.226 118.95 274.814 119.086L269.262 120.923C268.707 121.107 268.427 121.727 268.656 122.265L272.136 130.431C272.192 130.563 272.275 130.68 272.38 130.777L277.798 135.738C277.86 135.794 277.927 135.842 278 135.882L284.899 139.591C285.01 139.65 285.131 139.689 285.256 139.703L289.301 140.176Z" fill="#EA3029"/>
<defs>
<radialGradient id="paint0_radial_1499_2256" cx="0" cy="0" r="1" gradientUnits="userSpaceOnUse" gradientTransform="translate(148.923 200.731) rotate(90) scale(170.2 147.294)">
<stop offset="0.0639999" stop-color="#DEA811"/>
<stop offset="1" stop-color="#FFD600"/>
</radialGradient>
</defs>
</svg>
