<svg width="103" height="65" viewBox="0 0 103 65" fill="none" xmlns="http://www.w3.org/2000/svg">
<path d="M86.8711 10.2607L16.1445 55.7331" stroke="white" stroke-opacity="0.45" stroke-width="6"/>
<path d="M16.1455 10.2607L86.8721 55.7331" stroke="white" stroke-width="10"/>
<path d="M10.0567 12.2949L10.0567 53.5618" stroke="white" stroke-width="10"/>
<path d="M92.2949 12.7295L92.2949 53.5605" stroke="white" stroke-width="10"/>
<mask id="path-5-inside-1_365_480" fill="white">
<ellipse cx="92.0563" cy="58.4286" rx="10.0563" ry="6.4286"/>
</mask>
<path d="M92.1126 58.4286C92.1126 57.1168 92.5472 56.0708 92.9825 55.4129C93.386 54.8032 93.7516 54.5676 93.7811 54.5488C93.7991 54.5372 93.2165 54.8572 92.0563 54.8572V74.8572C96.45 74.8572 100.896 73.7381 104.553 71.3999C108.098 69.134 112.113 64.7868 112.113 58.4286H92.1126ZM92.0563 54.8572C90.8961 54.8572 90.3135 54.5372 90.3315 54.5488C90.361 54.5676 90.7266 54.8032 91.1301 55.4129C91.5654 56.0708 92 57.1168 92 58.4286H72C72 64.7868 76.0149 69.134 79.5593 71.3999C83.217 73.7381 87.6626 74.8572 92.0563 74.8572V54.8572ZM92 58.4286C92 59.7404 91.5654 60.7864 91.1301 61.4443C90.7266 62.0541 90.361 62.2896 90.3315 62.3084C90.3135 62.32 90.8961 62 92.0563 62V42C87.6626 42 83.217 43.1191 79.5593 45.4574C76.0149 47.7232 72 52.0704 72 58.4286H92ZM92.0563 62C93.2165 62 93.7991 62.32 93.7811 62.3084C93.7516 62.2896 93.386 62.0541 92.9825 61.4443C92.5472 60.7864 92.1126 59.7404 92.1126 58.4286H112.113C112.113 52.0704 108.098 47.7232 104.553 45.4574C100.896 43.1191 96.45 42 92.0563 42V62Z" fill="white" mask="url(#path-5-inside-1_365_480)"/>
<mask id="path-7-inside-2_365_480" fill="white">
<ellipse cx="10.7746" cy="58.4286" rx="10.7746" ry="6.4286"/>
</mask>
<path d="M11.5492 58.4286C11.5492 56.9462 12.076 55.8084 12.5444 55.1476C12.973 54.5431 13.3276 54.3521 13.2697 54.3867C13.1175 54.4775 12.2589 54.8572 10.7746 54.8572V74.8572C15.2409 74.8572 19.7697 73.7978 23.5172 71.5619C27.0567 69.4501 31.5492 65.1243 31.5492 58.4286H11.5492ZM10.7746 54.8572C9.29028 54.8572 8.43172 54.4775 8.27956 54.3867C8.22158 54.3521 8.5762 54.5431 9.00476 55.1476C9.47319 55.8084 10 56.9462 10 58.4286H-10C-10 65.1243 -5.50754 69.4501 -1.96794 71.5619C1.77953 73.7978 6.30828 74.8572 10.7746 74.8572V54.8572ZM10 58.4286C10 59.911 9.47319 61.0488 9.00476 61.7096C8.5762 62.3141 8.22158 62.5051 8.27956 62.4705C8.43172 62.3797 9.29028 62 10.7746 62V42C6.30828 42 1.77953 43.0594 -1.96794 45.2953C-5.50754 47.4072 -10 51.7329 -10 58.4286H10ZM10.7746 62C12.2589 62 13.1175 62.3797 13.2697 62.4705C13.3276 62.5051 12.973 62.3141 12.5444 61.7096C12.076 61.0488 11.5492 59.911 11.5492 58.4286H31.5492C31.5492 51.7329 27.0567 47.4072 23.5172 45.2953C19.7697 43.0594 15.2409 42 10.7746 42V62Z" fill="white" mask="url(#path-7-inside-2_365_480)"/>
<mask id="path-9-inside-3_365_480" fill="white">
<ellipse cx="91.944" cy="6.85718" rx="10.0563" ry="6.85718"/>
</mask>
<path d="M92.0003 6.85718C92.0003 5.75273 92.3435 4.84933 92.7121 4.25511C93.056 3.70073 93.3771 3.47393 93.4212 3.44389C93.4681 3.41187 92.976 3.71435 91.944 3.71435V23.7144C96.4659 23.7144 101.002 22.4818 104.689 19.968C108.325 17.4887 112 13.0296 112 6.85718H92.0003ZM91.944 3.71435C90.9119 3.71435 90.4199 3.41187 90.4668 3.44389C90.5109 3.47393 90.832 3.70073 91.1759 4.25511C91.5445 4.84933 91.8877 5.75273 91.8877 6.85718H71.8877C71.8877 13.0296 75.5634 17.4887 79.1994 19.968C82.886 22.4818 87.4221 23.7144 91.944 23.7144V3.71435ZM91.8877 6.85718C91.8877 7.96163 91.5445 8.86502 91.1759 9.45925C90.832 10.0136 90.5109 10.2404 90.4668 10.2705C90.4199 10.3025 90.9119 10 91.944 10V-10C87.4221 -10 82.886 -8.76745 79.1994 -6.25362C75.5634 -3.77432 71.8877 0.684762 71.8877 6.85718H91.8877ZM91.944 10C92.976 10 93.4681 10.3025 93.4212 10.2705C93.3771 10.2404 93.056 10.0136 92.7121 9.45925C92.3435 8.86502 92.0003 7.96163 92.0003 6.85718H112C112 0.684762 108.325 -3.77432 104.689 -6.25362C101.002 -8.76745 96.4659 -10 91.944 -10V10Z" fill="white" mask="url(#path-9-inside-3_365_480)"/>
<mask id="path-11-inside-4_365_480" fill="white">
<ellipse cx="10.7746" cy="6.85718" rx="10.7746" ry="6.85718"/>
</mask>
<path d="M11.5492 6.85718C11.5492 5.59389 11.9705 4.59838 12.374 3.99122C12.7452 3.43275 13.0611 3.24613 13.0243 3.26953C12.9101 3.34224 12.1417 3.71435 10.7746 3.71435V23.7144C15.3582 23.7144 19.9771 22.5514 23.7625 20.1423C27.4294 17.8087 31.5492 13.3552 31.5492 6.85718H11.5492ZM10.7746 3.71435C9.40754 3.71435 8.63915 3.34224 8.5249 3.26953C8.48813 3.24613 8.804 3.43275 9.17516 3.99122C9.57868 4.59838 10 5.59389 10 6.85718H-10C-10 13.3552 -5.88016 17.8087 -2.21329 20.1423C1.57211 22.5514 6.19102 23.7144 10.7746 23.7144V3.71435ZM10 6.85718C10 8.12046 9.57868 9.11597 9.17516 9.72313C8.804 10.2816 8.48813 10.4682 8.5249 10.4448C8.63915 10.3721 9.40754 10 10.7746 10V-10C6.19102 -10 1.57211 -8.83708 -2.21329 -6.42798C-5.88016 -4.09431 -10 0.359184 -10 6.85718H10ZM10.7746 10C12.1417 10 12.9101 10.3721 13.0243 10.4448C13.0611 10.4682 12.7452 10.2816 12.374 9.72313C11.9705 9.11597 11.5492 8.12046 11.5492 6.85718H31.5492C31.5492 0.359184 27.4294 -4.09431 23.7625 -6.42798C19.9771 -8.83708 15.3582 -10 10.7746 -10V10Z" fill="white" mask="url(#path-11-inside-4_365_480)"/>
</svg>
