<svg width="19" height="20" viewBox="0 0 19 20" fill="none" xmlns="http://www.w3.org/2000/svg">
<path fill-rule="evenodd" clip-rule="evenodd" d="M3.47365 5.89291C4.61157 3.16026 7.27835 1.37715 10.2382 1.36924C13.4282 1.35244 16.2653 3.39595 17.2597 6.42734C18.2541 9.45874 17.179 12.7855 14.599 14.6618C12.0189 16.5381 8.52235 16.5353 5.94532 14.6549L3.64727 16.953C1.61688 18.8691 1.25466 18.7334 1.02103 18.5001C0.787692 18.2664 2.56812 16.3408 2.80146 16.1072L5.0277 13.8809C2.94839 11.7742 2.33574 8.62556 3.47365 5.89291ZM4.54061 11.0793C5.49603 13.3819 7.74547 14.8816 10.2382 14.8783V14.8464C13.6214 14.8421 16.3684 12.1096 16.3903 8.72623C16.3935 6.23326 14.8936 3.98412 12.5913 3.02861C10.2889 2.0731 7.63705 2.59962 5.87442 4.36242C4.11178 6.12522 3.58519 8.77671 4.54061 11.0793Z" fill="black" stroke="#1E4391" stroke-width="2"/>
</svg>
