<svg width="295" height="208" viewBox="0 0 295 208" fill="none" xmlns="http://www.w3.org/2000/svg">
<path fill-rule="evenodd" clip-rule="evenodd" d="M23.1706 0.951426C17.1552 2.21473 14.2399 3.71809 9.32722 8.08948C3.26423 13.4851 0.781028 18.9732 0.111533 28.4618C-0.781128 41.085 3.70752 52.2885 12.7518 60.0091L13.0819 60.2909C15.626 62.4629 16.4614 66.0373 15.1437 69.1119C13.9254 71.9554 11.6025 79.3739 9.98149 85.5969C8.3605 91.821 6.32869 98.8498 5.46545 101.218C3.10294 107.703 3.45087 120.092 6.2171 127.962C10.3386 139.687 19.4589 151.282 30.6151 158.981C32.2458 160.106 32.747 162.291 31.7701 164.015L29.897 167.32C25.0624 175.852 22.8185 184.479 24.052 189.801C25.9571 198.025 30.0349 201.064 44.3012 204.885C51.196 206.733 55.0791 206.99 78.4546 207.152C142.085 207.592 169.461 207.514 211.339 206.773C259.595 205.92 264.691 205.398 276.974 200.051C284.568 196.745 288.585 192.366 289.51 186.384C290.518 179.859 289.468 171.519 286.895 165.614L286.76 165.304C285.467 162.338 285.817 158.911 287.684 156.267C295.188 145.642 296.968 138.821 292.799 136.658C290.835 135.637 273.34 135.843 268.778 136.939C267.934 137.143 266.826 134.838 265.618 130.365C264.595 126.577 262.896 121.531 261.841 119.151C259.945 114.873 259.947 114.782 262.006 110.788C263.486 107.917 264.075 104.904 264.044 100.356C263.991 92.5796 261.815 88.1255 256.975 85.8872C252.424 83.7817 246.566 85.3549 242.802 89.6928C241.219 91.5186 238.624 92.0885 236.421 91.0944L235.373 90.6216C223.268 85.1621 205.63 83.9489 191.024 87.5726C182.718 89.6328 181.468 89.3554 181.43 85.4405C181.422 84.5422 180.024 79.6788 178.324 74.6335C175.979 67.6735 175.551 65.3643 176.549 65.0672C179.397 64.2191 187.355 55.0955 190.03 49.6104C193.715 42.0552 194.665 29.6798 192.194 21.4339C187.562 5.97908 168.084 -2.02482 152.78 5.2382C149.659 6.71796 143.952 10.7627 140.098 14.225C135.782 18.1001 129.683 19.2833 124.232 17.303L124.03 17.2298C119.048 15.4194 113.263 13.6317 111.175 13.2559C107.414 12.5809 107.383 12.5357 108.005 8.76149C108.936 3.11203 106.522 0 101.204 0C96.0593 0 91.9267 2.04845 88.8003 6.14828C84.7255 11.4937 84.5389 12.5357 88.428 8.23315C93.2099 2.94183 99.3155 0.43686 103.125 2.20293C106.763 3.88832 106.963 6.59302 103.98 13.7577C102.336 17.704 101.982 19.352 102.945 18.5767C103.933 17.7817 104.74 17.7227 105.436 18.3977C106.131 19.0716 105.553 20.4461 103.653 22.6362C101.216 25.4452 101.134 25.7256 103.036 24.7378C104.243 24.1111 105.932 22.6274 106.789 21.4408C108.166 19.535 108.173 19.0283 106.852 17.0723C106.031 15.8563 105.696 14.6628 106.108 14.4218C107.873 13.3877 122.877 18.1084 132.449 22.71C155.201 33.6449 171.621 55.0808 178.738 83.1382C180.111 88.5496 182.011 95.8549 182.961 99.3723C186.757 113.431 185.819 124.433 179.854 135.853C177.81 139.764 177.09 140.373 174.983 139.982C168.44 138.769 154.912 148.957 147.433 160.729C143.032 167.657 140.984 168.871 124.102 174.56C120.197 175.876 117.749 176.986 118.663 177.026C120.184 177.093 134.893 173.22 139.056 171.655C140.687 171.042 140.719 171.283 139.458 174.783C138.707 176.869 137.781 180.211 137.402 182.211C136.147 188.815 121.329 198.751 112.754 198.739C107.198 198.731 101.278 196.935 101.278 195.258C101.278 194.473 99.5974 192.027 97.5433 189.821C90.7743 182.555 81.4653 179.218 65.6236 178.383C56.6676 177.911 53.9379 178.122 49.6471 179.619C46.8017 180.612 44.4727 181.756 44.4727 182.162C44.4727 182.568 45.8695 182.428 47.5767 181.85C52.5452 180.171 74.3311 181.345 80.9906 183.651C87.1164 185.772 88.2302 187.765 86.0889 192.778C82.857 200.347 66.6228 201.039 39.6249 194.759C34.7589 193.627 29.6931 192.021 28.3652 191.189C26.1721 189.816 26.0047 189.19 26.5231 184.313C27.0556 179.307 31.313 168.979 34.4667 165.042C35.7621 163.425 36.3667 163.565 43.9655 167.243C51.0226 170.659 67.3816 176.121 70.3395 176.049C70.8974 176.037 67.4739 174.573 62.7316 172.798C32.4511 161.462 13.4598 145.425 7.35526 126.035C4.68032 117.536 4.47949 109.345 6.78924 102.816C7.93753 99.5691 10.0728 92.2637 11.5335 86.5818C16.3296 67.9382 22.918 54.7453 33.7719 42.0542C44.1785 29.8845 58.2358 21.2932 75.6417 16.4633C79.098 15.9772 81.8562 14.1756 83.6 12.7195C84.5892 11.8936 85.2519 11.1788 85.5306 10.8782C85.5778 10.8273 85.614 10.7883 85.6389 10.7626C87.5431 7.44805 78.5494 11.9249 70.0231 16.2575C69.4597 16.5438 68.8763 16.7886 68.2772 16.9897C63.7462 18.5105 58.7457 17.4058 55.2771 14.1176L53.9612 12.8702C43.6388 3.08547 32.8651 -1.08521 23.1706 0.951426ZM34.3521 6.48971C42.5311 11.6984 46.8839 16.8589 47.9936 22.6628C48.5667 25.6617 48.308 26.2697 45.8441 27.7062C43.0758 29.3197 42.9998 29.2951 39.3328 25.6312C35.5593 21.8589 28.0812 18.6554 23.2436 18.7381C21.8082 18.7627 19.2652 19.3904 17.5914 20.1342L17.3312 20.2498C16.6496 20.5526 16.8461 21.5685 17.5914 21.5953C20.172 21.6887 20.3638 21.858 18.8523 22.712C16.1003 24.2665 13.0267 30.9668 13.0267 35.412C13.0267 40.4711 14.9287 44.9133 19.0379 49.453L19.1753 49.6047C21.0277 51.6509 21.4052 54.6362 20.1203 57.0791C18.2376 60.6584 17.775 60.9929 16.2646 59.8624C5.93713 52.1321 0.93012 38.9578 2.98121 24.91C4.45309 14.8311 10.3538 7.6497 19.8718 4.35566C25.8029 2.30229 28.3713 2.6811 34.3521 6.48971ZM173.539 6.08925C175.753 6.73271 179.766 9.17965 182.46 11.5282C189.021 17.2495 191.079 22.5575 190.961 33.4521C190.884 40.5773 190.413 42.7813 187.781 48.3432C184.91 54.4068 177.633 62.9686 175.349 62.9686C174.803 62.9686 173.429 61.2065 172.295 59.0518L172.093 58.667C170.996 56.5812 171.429 54.0193 173.152 52.4105C177.125 48.7003 180.4 42.1368 180.4 37.8874C180.4 33.942 178.161 28.0987 175.544 25.217C173.88 23.384 173.902 23.3279 176.089 23.8582C177.344 24.1632 178.372 24.0324 178.372 23.567C178.372 22.5447 171.752 20.6665 168.228 20.6891C164.5 20.7127 157.987 23.8592 154.336 27.4002C150.522 31.0986 149.954 31.1665 147.138 28.2591C145.834 26.9142 145.512 24.8976 146.331 23.2135L147.347 21.1259C150.153 15.3555 155.788 9.99134 162.141 7.04068C167.437 4.58196 168.148 4.52291 173.539 6.08925ZM45.2274 58.4703C28.8389 64.1424 19.746 86.4549 27.1541 102.816C31.6356 112.713 39.0254 117.444 50.0518 117.474C56.2071 117.491 58.0086 117.049 63.5776 114.155C74.7998 108.325 80.9906 98.3549 80.9906 86.1164C80.9906 74.176 74.3889 63.3592 64.4236 58.9701C59.448 56.779 50.7669 56.5527 45.2274 58.4703ZM129.136 59.6145C122.757 61.8115 117.927 66.3295 114.284 73.5089C107.918 86.0495 110.382 100.509 120.51 110.042C136.765 125.342 159.849 120.451 165.857 100.434C173.11 76.2717 151.269 51.9924 129.136 59.6145ZM60.4269 60.1763C63.677 60.9693 66.565 62.699 69.8729 65.8336C88.8602 83.82 75.3435 115.133 48.6032 115.11C41.9712 115.104 37.1052 112.661 32.5191 107.037C28.4748 102.077 26.9126 96.0418 27.43 87.3817C28.1563 75.2179 34.202 66.2105 44.8764 61.3894C50.702 58.7585 53.6741 58.5263 60.4269 60.1763ZM149.462 63.8875C155.984 67.3252 162.498 76.3071 164.185 84.1919C165.522 90.4376 164.441 98.9069 161.555 104.806C157.769 112.545 147.263 118.016 138.731 116.693C129.126 115.202 119.411 107.73 115.268 98.6452C110.903 89.074 113.359 75.6341 120.857 68.0504C129.013 59.8025 138.964 58.3542 149.462 63.8875ZM239.461 61.5488C236.332 63.674 236.614 65.3584 239.763 63.3562C241.169 62.4629 244.107 61.6856 246.291 61.6305C248.493 61.5744 249.726 61.1996 249.059 60.7883C247.017 59.5289 241.829 59.9392 239.461 61.5488ZM245.828 67.0871C241.999 68.1241 240.098 69.5695 237.659 73.2994C235.791 76.1566 235.866 76.1339 239.993 72.586C244.92 68.3504 247.89 67.399 253.19 68.3593C257.804 69.1956 256.99 68.009 252.248 66.9897C250.391 66.5893 247.502 66.6336 245.828 67.0871ZM56.1168 76.1477C54.4309 76.86 51.7834 79.0561 50.2324 81.0278C47.0807 85.0361 45.975 85.347 43.2848 82.9857C41.5431 81.4567 41.4295 81.4853 41.4295 83.4481C41.4295 84.613 42.7279 86.4706 44.3601 87.6404C46.4142 89.1143 47.4854 90.9187 47.9398 93.6775C48.8964 99.4805 53.2349 103.309 58.8496 103.304C67.3238 103.297 73.8828 96.8604 73.8828 88.5496C73.8828 78.4726 65.1083 72.3479 56.1168 76.1477ZM123.636 78.3359C117.193 83.5937 115.823 90.2596 119.855 96.7197C121.14 98.778 123.534 101.321 125.175 102.37C128.794 104.684 135.47 104.876 138.59 102.756C141.138 101.026 143.883 96.397 143.883 93.834C143.883 92.8983 145.48 90.7131 147.433 88.9785C151.884 85.0243 152.085 83.3979 147.935 84.917C145.068 85.9669 144.698 85.8124 141.757 82.3511C135.829 75.3773 129.092 73.8838 123.636 78.3359ZM67.977 81.3229C70.2868 83.3507 70.371 87.3256 68.1535 89.7017C63.2317 94.9773 56.1929 87.9395 60.7586 82.3088C63.1982 79.3001 65.3396 79.0079 67.977 81.3229ZM130.869 82.3069C134.426 85.4287 132.311 92.5097 127.834 92.4703C123.923 92.4359 121.053 88.0192 122.514 84.2893C123.993 80.5181 127.801 79.614 130.869 82.3069ZM224.611 89.011C237.219 92.6425 249.903 102.376 255.774 112.926C262.479 124.975 266.376 142.199 265.269 154.898C263.838 171.316 257.037 184.646 243.895 196.795C235.823 204.256 237.141 204.275 211.339 204.354C211.277 204.354 211.216 204.354 211.154 204.354C209.857 204.358 208.492 204.362 207.054 204.367C201.126 204.389 195.579 204.382 191.024 204.353C184.107 204.308 179.476 204.211 179.263 204.083C178.91 203.871 181.875 200.468 185.851 196.521C189.827 192.574 194.145 187.459 195.447 185.157C197.52 181.487 196.555 182.178 187.635 190.745C175.333 202.561 168.852 206.115 159.605 206.114C152.163 206.114 147.725 203.859 143.389 197.875C140.743 194.222 140.347 192.841 140.443 187.591C140.776 169.288 160.826 142.663 174.274 142.663C181.201 142.663 184.036 149.834 183.027 164.801C182.662 170.212 182.126 176.189 181.835 178.083C180.716 185.365 183.231 178.371 184.841 169.72C187.412 155.921 186.624 147.604 182.318 143.076C180.393 141.054 180.403 140.959 183.285 134.713C188.764 122.836 189.483 114.346 186.043 102.168C184.626 97.1536 183.805 92.7429 184.217 92.3661C184.511 92.0957 186.288 91.3993 188.603 90.6216C189.523 90.3128 190.528 89.991 191.559 89.678C199.786 87.18 217.045 86.8317 224.611 89.011ZM256.535 88.5791C261.121 90.9591 263.14 101.951 260.212 108.6C259.662 109.85 257.96 110.026 257.166 108.915L256.082 107.397C254.496 105.178 250.97 101.339 248.246 98.8676C245.521 96.396 243.292 93.9885 243.292 93.5172C243.292 93.0459 244.697 91.514 246.414 90.1129C249.699 87.4309 253.28 86.8888 256.535 88.5791ZM84.0337 97.9456C84.0337 99.7461 87.579 104.549 90.82 107.141C94.4819 110.068 94.5397 110.214 92.6164 111.61C89.0133 114.225 85.2642 114.438 80.7015 112.285L79.8067 111.863C79.2815 111.615 78.83 112.315 79.2722 112.691C82.6521 115.569 89.3907 115.993 92.9806 113.553C94.7183 112.373 95.616 112.263 96.6588 113.102C100.839 116.467 109.437 116.161 112.538 112.536C113.595 111.301 113.187 111.332 110.197 112.716C106.193 114.568 100.299 114.083 98.2909 111.736C97.3688 110.658 98.1864 109.352 102.247 105.414C109.985 97.9093 109.572 97.4045 95.6992 97.4045C89.2832 97.4045 84.0337 97.6475 84.0337 97.9456ZM289.827 138.359C293.66 139.103 293.735 140.118 290.456 146.818C287.342 153.182 282.952 158.428 282.2 156.684C281.908 156.008 281.304 155.454 280.858 155.454C280.412 155.454 281.202 158.221 282.615 161.603C287.712 173.803 288.728 179.67 286.866 186.17C284.938 192.902 279.694 197.183 269.666 200.209C267.256 200.936 267.213 200.882 268.783 199.121C272.632 194.807 273.963 190.481 274.475 180.616C275.006 170.363 273.007 153.107 270.264 144.268L270.131 143.839C269.478 141.733 270.888 139.549 273.076 139.277C275.386 138.989 278.415 138.587 279.81 138.383C284.248 137.733 286.575 137.728 289.827 138.359Z" fill="#3C3840"/>
<path fill-rule="evenodd" clip-rule="evenodd" d="M60.4269 60.1763C63.677 60.9693 66.565 62.699 69.8729 65.8336C88.8602 83.82 75.3435 115.133 48.6032 115.11C41.9712 115.104 37.1052 112.661 32.5191 107.037C28.4748 102.077 26.9126 96.0418 27.43 87.3817C28.1563 75.2179 34.202 66.2105 44.8764 61.3894C50.702 58.7585 53.6741 58.5263 60.4269 60.1763ZM50.2324 81.0278C51.7834 79.0561 54.4309 76.86 56.1168 76.1477C65.1083 72.3479 73.8828 78.4726 73.8828 88.5496C73.8828 96.8604 67.3238 103.297 58.8496 103.304C53.2349 103.309 48.8964 99.4805 47.9398 93.6775C47.4854 90.9187 46.4142 89.1143 44.3601 87.6404C42.7279 86.4706 41.4295 84.613 41.4295 83.4481C41.4295 81.4853 41.5431 81.4567 43.2848 82.9857C45.975 85.347 47.0807 85.0361 50.2324 81.0278Z" fill="#5F5160"/>
<path fill-rule="evenodd" clip-rule="evenodd" d="M149.462 63.8875C155.984 67.3252 162.498 76.3071 164.185 84.1919C165.522 90.4376 164.441 98.9069 161.555 104.806C157.769 112.545 147.263 118.016 138.731 116.693C129.126 115.202 119.411 107.73 115.268 98.6452C110.903 89.074 113.359 75.6341 120.857 68.0504C129.013 59.8025 138.964 58.3542 149.462 63.8875ZM119.855 96.7197C115.823 90.2596 117.193 83.5937 123.636 78.3359C129.092 73.8838 135.829 75.3773 141.757 82.3511C144.698 85.8124 145.068 85.9669 147.935 84.917C152.085 83.3979 151.884 85.0243 147.433 88.9785C145.48 90.7131 143.883 92.8983 143.883 93.834C143.883 96.397 141.138 101.026 138.59 102.756C135.47 104.876 128.794 104.684 125.175 102.37C123.534 101.321 121.14 98.778 119.855 96.7197Z" fill="#5E5162"/>
<path d="M34.3521 6.48971C42.5311 11.6984 46.8839 16.8589 47.9936 22.6628C48.5667 25.6617 48.308 26.2697 45.8441 27.7062C43.0758 29.3197 42.9998 29.2951 39.3328 25.6312C35.5593 21.8589 28.0812 18.6554 23.2436 18.7381C21.8082 18.7627 19.2652 19.3904 17.5914 20.1342L17.3312 20.2498C16.6496 20.5526 16.8461 21.5685 17.5914 21.5953C20.172 21.6887 20.3638 21.858 18.8523 22.712C16.1003 24.2665 13.0267 30.9668 13.0267 35.412C13.0267 40.4711 14.9287 44.9133 19.0379 49.453L19.1753 49.6047C21.0277 51.6509 21.4052 54.6362 20.1203 57.0791C18.2376 60.6584 17.775 60.9929 16.2646 59.8624C5.93713 52.1321 0.93012 38.9578 2.98121 24.91C4.45309 14.8311 10.3538 7.6497 19.8718 4.35566C25.8029 2.30229 28.3713 2.6811 34.3521 6.48971Z" fill="#5D5263"/>
<path d="M173.539 6.08925C175.753 6.73271 179.766 9.17965 182.46 11.5282C189.021 17.2495 191.079 22.5575 190.961 33.4521C190.884 40.5773 190.413 42.7813 187.781 48.3432C184.91 54.4068 177.633 62.9686 175.349 62.9686C174.803 62.9686 173.429 61.2065 172.295 59.0518L172.093 58.667C170.996 56.5812 171.429 54.0193 173.152 52.4105C177.125 48.7003 180.4 42.1368 180.4 37.8874C180.4 33.942 178.161 28.0987 175.544 25.217C173.88 23.384 173.902 23.3279 176.089 23.8582C177.344 24.1632 178.372 24.0324 178.372 23.567C178.372 22.5447 171.752 20.6665 168.228 20.6891C164.5 20.7127 157.987 23.8592 154.336 27.4002C150.522 31.0986 149.954 31.1665 147.138 28.2591C145.834 26.9142 145.512 24.8976 146.331 23.2135L147.347 21.1259C150.153 15.3555 155.788 9.99134 162.141 7.04068C167.437 4.58196 168.148 4.52291 173.539 6.08925Z" fill="#5E5162"/>
<path d="M185.851 196.521C181.875 200.468 178.91 203.871 179.263 204.083C179.476 204.211 184.107 204.308 191.024 204.353L197.59 193.37C199.887 189.527 201.79 185.463 203.272 181.238L203.411 180.842C205.547 174.753 206.746 168.375 206.97 161.926C207.101 158.161 206.898 154.392 206.363 150.662L204.605 138.383L201.044 121.814L197.483 110.042L191.671 96.7198L188.603 90.6216C186.288 91.3993 184.511 92.0957 184.217 92.3661C183.805 92.7429 184.626 97.1536 186.043 102.168C189.483 114.346 188.764 122.836 183.285 134.713C180.403 140.959 180.393 141.054 182.318 143.076C186.624 147.604 187.412 155.921 184.841 169.72C183.231 178.371 180.716 185.365 181.835 178.083C182.126 176.189 182.662 170.212 183.027 164.801C184.036 149.834 181.201 142.663 174.274 142.663C160.826 142.663 140.776 169.288 140.443 187.591C140.347 192.841 140.743 194.222 143.389 197.875C147.725 203.859 152.163 206.114 159.605 206.114C168.852 206.115 175.333 202.561 187.635 190.745C196.555 182.178 197.52 181.487 195.447 185.157C194.145 187.459 189.827 192.574 185.851 196.521Z" fill="#5E5162"/>
<path d="M224.611 89.011C217.045 86.8317 199.786 87.18 191.559 89.678C190.528 89.991 189.523 90.3128 188.603 90.6216L191.671 96.7198L197.483 110.042L201.044 121.814L204.605 138.383L206.363 150.662C206.898 154.392 207.101 158.161 206.97 161.926C206.746 168.375 205.547 174.753 203.411 180.842L203.272 181.238C201.79 185.463 199.887 189.527 197.59 193.37L191.024 204.353C195.579 204.382 201.126 204.389 207.054 204.367C208.492 204.362 209.857 204.358 211.154 204.354L211.339 204.354C218.316 201.511 224.688 197.367 230.115 192.141L231.565 190.745L235.56 185.691C238.231 182.313 240.623 178.723 242.713 174.958C245.174 170.522 247.206 165.861 248.78 161.038L250.784 154.898L251.016 153.707C251.91 149.125 252.36 144.468 252.36 139.799V139.36C252.36 133.285 250.992 127.288 248.357 121.814L246.796 118.502C244.212 113.021 241.195 107.756 237.771 102.756L230.039 93.834L224.611 89.011Z" fill="white"/>
<path d="M255.774 112.926C249.903 102.376 237.219 92.6425 224.611 89.011L230.039 93.834L237.771 102.756C241.195 107.756 244.212 113.021 246.796 118.502L248.357 121.814C250.992 127.288 252.36 133.285 252.36 139.36V139.799C252.36 144.468 251.91 149.125 251.016 153.707L250.784 154.898L248.78 161.038C247.206 165.861 245.174 170.522 242.713 174.958C240.623 178.723 238.231 182.313 235.56 185.691L231.565 190.745L230.115 192.141C224.688 197.367 218.316 201.511 211.339 204.354C237.141 204.275 235.823 204.256 243.895 196.795C257.037 184.646 263.838 171.316 265.269 154.898C266.376 142.199 262.479 124.975 255.774 112.926Z" fill="#605364"/>
<path d="M289.827 138.359C293.66 139.103 293.735 140.118 290.456 146.818C287.342 153.182 282.952 158.428 282.2 156.684C281.908 156.008 281.304 155.454 280.858 155.454C280.412 155.454 281.202 158.221 282.615 161.603C287.712 173.803 288.728 179.67 286.866 186.17C284.938 192.902 279.694 197.183 269.666 200.209C267.256 200.936 267.213 200.882 268.783 199.121C272.632 194.807 273.963 190.481 274.475 180.616C275.006 170.363 273.007 153.107 270.264 144.268L270.131 143.839C269.478 141.733 270.888 139.549 273.076 139.277C275.386 138.989 278.415 138.587 279.81 138.383C284.248 137.733 286.575 137.728 289.827 138.359Z" fill="#5F5263"/>
<path d="M256.535 88.5791C261.121 90.9591 263.14 101.951 260.212 108.6C259.662 109.85 257.96 110.026 257.166 108.915L256.082 107.397C254.496 105.178 250.97 101.339 248.246 98.8676C245.521 96.396 243.292 93.9885 243.292 93.5172C243.292 93.0459 244.697 91.514 246.414 90.1129C249.699 87.4309 253.28 86.8888 256.535 88.5791Z" fill="#605164"/>
<path d="M139.056 171.655C134.893 173.22 120.184 177.093 118.663 177.026L101.39 178.083L81.1023 177.026L70.3395 176.049C67.3816 176.121 51.0226 170.659 43.9655 167.243C36.3667 163.565 35.7621 163.425 34.4667 165.042C31.313 168.979 27.0556 179.307 26.5231 184.313C26.0047 189.19 26.1721 189.816 28.3652 191.189C29.6931 192.021 34.7589 193.627 39.6249 194.759C66.6228 201.039 82.857 200.347 86.0889 192.778C88.2302 187.765 87.1164 185.772 80.9906 183.651C74.3311 181.345 52.5452 180.171 47.5767 181.85C45.8695 182.428 44.4727 182.568 44.4727 182.162C44.4727 181.756 46.8017 180.612 49.6471 179.619C53.9379 178.122 56.6676 177.911 65.6236 178.383C81.4653 179.218 90.7743 182.555 97.5433 189.821C99.5974 192.027 101.278 194.473 101.278 195.258C101.278 196.935 107.198 198.731 112.754 198.739C121.329 198.751 136.147 188.815 137.402 182.211C137.781 180.211 138.707 176.869 139.458 174.783C140.719 171.283 140.687 171.042 139.056 171.655Z" fill="#5D5262"/>
<path fill-rule="evenodd" clip-rule="evenodd" d="M85.6389 10.7626C85.4936 11.2555 86.4146 10.4605 88.428 8.23315C93.2099 2.94183 99.3155 0.43686 103.125 2.20293C106.763 3.88832 106.963 6.59302 103.98 13.7577C102.336 17.704 101.982 19.352 102.945 18.5767C103.933 17.7817 104.74 17.7227 105.436 18.3977C106.131 19.0716 105.553 20.4461 103.653 22.6362C101.216 25.4452 101.134 25.7256 103.036 24.7378C104.243 24.1111 105.932 22.6274 106.789 21.4408C108.166 19.535 108.173 19.0283 106.852 17.0723C106.031 15.8563 105.696 14.6628 106.108 14.4218C107.873 13.3877 122.877 18.1084 132.449 22.71C155.201 33.6449 171.621 55.0808 178.738 83.1382C180.111 88.5496 182.011 95.8549 182.961 99.3723C186.757 113.431 185.819 124.433 179.854 135.853C177.81 139.764 177.09 140.373 174.983 139.982C168.44 138.769 154.912 148.957 147.433 160.729C132.638 163.976 117.535 165.614 102.388 165.614H101.278L65.6236 161.603C55.3802 159.858 45.2983 157.271 35.4803 153.868L24.052 149.907C18.1394 143.931 13.1513 137.106 9.25241 129.659L7.35526 126.035C4.68032 117.536 4.47949 109.345 6.78924 102.816C7.93753 99.5691 10.0728 92.2637 11.5335 86.5818C16.3296 67.9382 22.918 54.7453 33.7719 42.0542C44.1785 29.8845 58.2358 21.2932 75.6417 16.4633C79.098 15.9772 81.8562 14.1756 83.6 12.7195C84.5892 11.8936 85.2519 11.1788 85.5306 10.8782C85.5778 10.8273 85.614 10.7883 85.6389 10.7626ZM45.2274 58.4703C28.8389 64.1424 19.746 86.4549 27.1541 102.816C31.6356 112.713 39.0254 117.444 50.0518 117.474C56.2071 117.491 58.0086 117.049 63.5776 114.155C74.7998 108.325 80.9906 98.3549 80.9906 86.1164C80.9906 74.176 74.3889 63.3592 64.4236 58.9701C59.448 56.779 50.7669 56.5527 45.2274 58.4703ZM129.136 59.6145C122.757 61.8115 117.927 66.3295 114.284 73.5089C107.918 86.0495 110.382 100.509 120.51 110.042C136.765 125.342 159.849 120.451 165.857 100.434C173.11 76.2717 151.269 51.9924 129.136 59.6145ZM84.0337 97.9456C84.0337 99.7461 87.579 104.549 90.82 107.141C94.4819 110.068 94.5397 110.214 92.6164 111.61C89.0133 114.225 85.2642 114.438 80.7015 112.285L79.8067 111.863C79.2815 111.615 78.83 112.315 79.2722 112.691C82.6521 115.569 89.3907 115.993 92.9806 113.553C94.7183 112.373 95.616 112.263 96.6588 113.102C100.839 116.467 109.437 116.161 112.538 112.536C113.595 111.301 113.187 111.332 110.197 112.716C106.193 114.568 100.299 114.083 98.2909 111.736C97.3688 110.658 98.1864 109.352 102.247 105.414C109.985 97.9093 109.572 97.4045 95.6992 97.4045C89.2832 97.4045 84.0337 97.6475 84.0337 97.9456Z" fill="white"/>
<path d="M124.102 174.56C140.984 168.871 143.032 167.657 147.433 160.729C132.638 163.976 117.535 165.614 102.388 165.614H101.278L65.6236 161.603C55.3802 159.858 45.2983 157.271 35.4803 153.868L24.052 149.907C26.9926 152.879 30.2583 155.51 33.7875 157.752L38.6121 160.816C43.0414 163.629 47.6728 166.111 52.4684 168.24L62.7316 172.798C67.4739 174.573 70.8974 176.037 70.3395 176.049L81.1023 177.026L101.39 178.083L118.663 177.026C117.749 176.986 120.197 175.876 124.102 174.56Z" fill="#C3DBF3"/>
<path d="M67.977 81.3229C70.2868 83.3507 70.371 87.3256 68.1535 89.7017C63.2317 94.9773 56.1929 87.9395 60.7586 82.3088C63.1982 79.3001 65.3396 79.0079 67.977 81.3229Z" fill="white"/>
<path d="M130.869 82.3069C134.426 85.4287 132.311 92.5097 127.834 92.4703C123.923 92.4359 121.053 88.0192 122.514 84.2893C123.993 80.5181 127.801 79.614 130.869 82.3069Z" fill="white"/>
</svg>
