<svg width="341" height="197" viewBox="0 0 341 197" fill="none" xmlns="http://www.w3.org/2000/svg">
<path d="M221.72 146.497C221.606 145.898 222.393 145.57 222.738 146.073L222.942 146.37C224.023 147.945 225.514 148.717 229.547 149.404L221.27 110.905C219.9 103.164 217.97 95.5318 215.497 88.0692L208.098 65.7457L201.407 51.1569L196.021 42.0399C196.021 42.0399 190.389 42.5732 187.314 49.3787C185.615 53.1394 183.026 57.7127 181.561 59.5398C180.634 60.6954 179.574 61.4324 178.688 62.0479C177.175 63.0993 176.172 63.7962 177.218 65.6191C178.186 67.3066 184.327 78.7565 189.096 89.3366C189.69 90.6529 190.242 91.8865 190.755 93.0456C196.771 106.634 197.479 109.984 197.759 116.314L197.759 116.315C198.207 126.469 195.411 135.566 189.557 144.582C189.128 145.243 188.682 145.903 188.22 146.564C188.043 146.817 187.864 147.07 187.682 147.324C184.474 151.789 180.52 156.259 175.842 160.852C170.982 165.624 168.46 167.172 169.783 168.069C173.716 170.733 197.519 176.415 208.978 177.426C223.151 178.676 248.372 178.708 252.312 176.342C256.478 173.841 259.191 169.387 258.516 166.163C258.165 164.489 255.475 161.568 251.927 159.006C245.568 154.415 242.509 153.676 215.415 150.188L204.412 148.771L213.317 148.954C221.922 149.13 222.205 149.047 221.72 146.497Z" fill="#5E5161"/>
<path d="M263.257 63.2885C257.877 56.4304 239.413 47.4884 224.796 44.6643C213.293 42.4422 196.021 42.0399 196.021 42.0399L201.407 51.1569L208.098 65.7457L215.497 88.0692C217.97 95.5318 219.9 103.164 221.27 110.905L229.547 149.404C230.705 149.601 232.072 149.791 233.7 149.991C248.524 151.814 261.553 160.442 261.264 168.249C261.127 171.975 257.49 175.778 252.312 176.342C249.195 179.526 239.128 182.167 239.074 182.599C239.045 182.824 246.563 184.426 251.866 184.709C253.163 184.778 254.578 184.847 256.09 184.917L256.111 184.601C256.352 180.962 257.242 177.394 258.74 174.068C259.454 172.48 260.032 170.834 260.467 169.148L263.247 158.365C264.733 149.141 265.538 139.821 265.655 130.479L265.726 124.881L265.088 111.469L263.752 101.026L261.356 88.5408L261.161 86.389C260.457 78.6254 261.168 70.7987 263.257 63.2885Z" fill="white"/>
<path d="M264.296 66.4816C264.741 66.0218 264.273 64.5856 263.257 63.2885C261.168 70.7987 260.457 78.6254 261.161 86.389L261.356 88.5408L263.752 101.026L265.088 111.469L265.726 124.881L265.655 130.479C265.538 139.821 264.733 149.141 263.247 158.365L260.467 169.148C260.032 170.834 259.454 172.48 258.74 174.068C257.242 177.394 256.352 180.962 256.111 184.601L256.09 184.917C260.648 185.126 266.081 185.298 271.843 185.44C274.777 185.513 277.797 185.578 280.829 185.636C292.45 185.859 304.26 185.984 312.19 186.068C316.905 186.118 320.249 186.153 321.367 186.186C321.381 186.187 321.394 186.186 321.408 186.184C321.992 186.091 322.519 185.989 322.986 185.88C324.038 185.635 324.793 185.351 325.239 185.044C326.222 184.368 325.714 183.577 323.616 182.819C322.385 182.375 319.919 180.537 318.135 178.735C316.351 176.933 312.769 173.86 310.175 171.907C302.776 166.338 297.74 158.681 297.898 154.665C298.118 149.044 295.664 149.104 293.203 155.645C292.001 158.839 290.092 163.36 289.82 163.064C289.546 162.769 290.041 158.185 290.92 152.878C294.663 130.261 293.218 114.349 285.801 96.487C279.759 81.9364 267.859 65.05 264.773 66.6493C264.065 67.0162 263.85 66.9402 264.296 66.4816Z" fill="#5E5162"/>
<path d="M111.698 175.798C117.639 178.834 120.891 182.701 122.365 187.704L122.405 187.804C123.169 189.26 126.421 186.159 135.695 182.456C137.326 181.805 139.013 181.095 140.731 180.331C151.832 175.399 166.952 169.25 175.842 160.852C180.52 156.259 184.474 151.789 187.682 147.324L187.658 147.332L159.977 156.881L148.79 161.881C143.737 164.141 138.513 165.997 133.167 167.434C126.381 169.258 119.795 171.758 113.508 174.895L111.698 175.798Z" fill="#CFDFFA"/>
<path d="M108.713 176.635C102.566 173.779 83.1179 170.598 56.3781 168.076L36.6869 166.22C33.2849 165.899 30.2436 163.965 28.5103 161.02C27.4484 159.217 24.7519 159.528 24.1287 161.526L23.4721 163.63C22.2203 167.643 21.2628 173.531 21.344 176.712C21.4875 182.276 21.6462 182.535 25.5265 183.53C34.3406 185.79 63.2355 189.457 76.1697 189.956C93.237 190.615 116.346 188.213 118.109 185.598C119.004 184.269 113.174 178.707 108.713 176.635Z" fill="#5E5260"/>
<path fill-rule="evenodd" clip-rule="evenodd" d="M77.2309 82.3977C87.4427 89.854 91.6984 107.708 85.756 118.169C79.1321 129.83 70.8871 135.046 59.7641 134.61C54.1991 134.391 52.5448 133.772 48.4295 130.371C35.5605 119.731 34.5055 98.1859 46.2346 85.525C52.1789 79.1081 56.778 77.3016 65.2 78.0746C70.6538 78.5763 73.2973 79.5263 77.2309 82.3977ZM55.1081 106.88C57.3177 103.14 62.3468 99.5433 66.3161 98.8656C70.7718 98.1035 75.993 99.2223 79.6744 101.726C83.5802 104.385 82.662 105.268 77.0356 104.271C70.1665 103.054 64.6874 103.999 59.3464 107.326C54.5448 110.317 53.1641 110.172 55.1081 106.88Z" fill="#5E5163"/>
<path fill-rule="evenodd" clip-rule="evenodd" d="M155.273 66.1486C173.074 75.585 178.281 98.15 166.065 112.926C158.389 122.209 142.403 121.758 130.955 111.937C119.368 101.996 117.793 82.6981 127.63 71.198C134.232 63.4798 146.135 61.3059 155.273 66.1486ZM130.268 95.215C130.361 92.8533 133.177 89.5136 136.756 87.5192C141.754 84.7342 149.889 85.0746 154.695 88.2689C156.722 89.6173 158.37 91.0311 158.355 91.4112C158.34 91.7912 155.073 91.6316 151.093 91.0562C144.574 90.1147 143.186 90.3209 137.043 93.1424C133.294 94.8647 130.245 95.7973 130.268 95.215Z" fill="#5E5163"/>
<path d="M288.888 68.5297C289.812 69.5298 290.874 71.4573 291.246 72.8117C292.084 75.8607 290.557 84.0005 288.511 87.4019C287.055 89.8207 286.712 89.4894 281.097 80.2288L276.972 73.4257C275.972 71.7776 276.388 69.64 277.933 68.4872C281.23 66.0242 286.592 66.0462 288.888 68.5297Z" fill="#5E4F62"/>
<path fill-rule="evenodd" clip-rule="evenodd" d="M154.917 0.908341C146.427 3.13133 138.068 10.0099 131.628 20.0707L131.194 20.7482C129.469 23.4443 126.237 24.7681 123.116 24.0575C120.255 23.4051 114.274 22.5859 109.829 22.2344C102.042 21.6202 101.748 21.4888 101.852 18.6595C102.174 9.85321 93.1523 7.22444 86.1547 14.0831C84.2218 15.9782 82.2239 18.4154 81.9979 19.0512C81.834 19.1793 81.4641 19.5828 80.9141 20.1828C78.6481 22.6547 73.3262 28.4605 66.7676 32.0681C62.0692 34.653 57.8915 36.7542 57.4847 36.7383C57.0779 36.7223 55.1039 35.3527 53.0981 33.6943C51.0924 32.0359 46.3934 29.1799 42.6576 27.3488C27.0841 19.7145 11.0515 24.3665 3.70401 38.6533C-4.54321 54.6882 4.24397 79.5741 20.8823 87.306C23.8352 88.6791 24.5689 89.5891 23.9081 91.0625C23.4272 92.132 22.1697 103.111 21.1133 115.46C19.229 137.481 19.2394 138.075 21.6647 146.364L22.0791 147.781C23.4143 152.345 23.218 157.221 21.5204 161.663C19.6157 166.649 18.9403 170.631 19.0372 176.315C19.2775 190.385 25.082 193.547 54.7303 195.755C71.3141 196.989 108.581 196.814 117.061 195.462C118.834 195.179 120.792 193.919 121.413 192.662L121.823 191.683C121.921 191.449 122.002 191.207 122.066 190.961L122.206 190.416C122.247 190.258 122.311 190.108 122.397 189.97C122.543 189.734 122.626 189.464 122.636 189.187L122.645 188.97C122.658 188.626 122.599 188.283 122.47 187.964L122.405 187.804C122.388 187.773 122.375 187.739 122.365 187.704C120.891 182.701 117.639 178.834 111.698 175.798C102.154 170.921 85.6713 168.188 58.473 166.337L39.5701 165.05C36.2421 164.824 33.1582 163.223 31.0573 160.632C26.9537 155.57 23.497 148.201 21.9271 141.163C20.4225 134.419 23.0812 101.568 26.104 89.5679C32.8629 62.7268 49.1766 41.96 71.9538 31.202C75.8861 29.3447 83.3381 20.5318 82.1926 19.3109C82.8213 19.5676 83.8998 18.5071 85.6962 16.7407C85.9917 16.4502 86.3065 16.1405 86.642 15.8146C89.6894 12.8541 92.3124 11.332 94.2395 11.4077C98.8247 11.5877 100.102 14.2687 99.064 21.5313C98.5156 25.3605 98.5971 27.6429 99.2685 27.2642C101.455 26.0288 101.603 30.3964 99.4773 33.4489C99.1466 33.9238 99.761 34.4828 100.203 34.1087L100.497 33.8592C104.018 30.8765 104.785 27.2456 102.133 26.1078C101.189 25.7017 100.437 24.8271 100.463 24.1635C100.486 23.5789 102.909 23.4561 106.436 23.6531C113.302 24.0368 124.352 25.633 130.02 27.396C144.199 31.8045 153.158 37.7659 165.223 50.822C170.169 56.1736 173.898 60.6846 177.091 65.4303C177.133 65.4932 177.176 65.5561 177.218 65.6191C178.186 67.3066 184.327 78.7565 189.096 89.3366C189.627 90.5634 190.193 91.8273 190.755 93.0456C196.771 106.634 197.479 109.984 197.759 116.314L197.759 116.315C197.76 124.666 195.612 133.75 191.443 141.383C190.863 142.446 190.233 143.513 189.557 144.582C189.128 145.243 188.682 145.903 188.22 146.564C188.043 146.817 187.864 147.07 187.682 147.324C184.474 151.789 180.52 156.259 175.842 160.852C181.345 155.653 186.065 150.101 189.557 144.582C195.411 135.566 198.207 126.469 197.759 116.315C197.758 109.905 196.49 103.926 193.898 99.3697C193.113 97.9912 191.943 95.621 190.755 93.0456C190.242 91.8865 189.69 90.6529 189.096 89.3366C188.863 88.6088 188.472 87.8772 188.187 87.1858C184.452 78.1163 181.262 71.6661 177.218 65.6191C176.172 63.7962 177.175 63.0993 178.688 62.0479C179.574 61.4324 180.634 60.6954 181.561 59.5398C183.026 57.7127 185.615 53.1394 187.314 49.3787C190.389 42.5732 196.021 42.0399 196.021 42.0399C196.021 42.0399 213.293 42.4422 224.796 44.6643C239.413 47.4884 257.877 56.4304 263.257 63.2885C264.273 64.5856 264.741 66.0218 264.296 66.4816C263.85 66.9402 264.065 67.0162 264.773 66.6493C267.859 65.05 279.759 81.9364 285.801 96.487C293.218 114.349 294.663 130.261 290.92 152.878C290.041 158.185 289.546 162.769 289.82 163.064C290.092 163.36 292.001 158.839 293.203 155.645C295.664 149.104 298.118 149.044 297.898 154.665C297.74 158.681 302.776 166.338 310.175 171.907C312.769 173.86 316.351 176.933 318.135 178.735C319.919 180.537 322.385 182.375 323.616 182.819C325.714 183.577 326.222 184.368 325.239 185.044C324.836 185.218 324.421 185.405 323.992 185.605C323.511 185.714 323.198 185.805 322.986 185.88C322.519 185.989 321.992 186.091 321.408 186.184C319.068 186.125 311.065 185.764 280.829 185.636C277.797 185.578 274.777 185.513 271.843 185.44C263.926 184.956 257.381 184.739 251.866 184.709C253.163 184.778 254.578 184.847 256.09 184.917C260.648 185.126 266.081 185.298 271.843 185.44C272.733 185.495 273.64 185.552 274.565 185.614C276.753 185.62 278.839 185.627 280.829 185.636C292.45 185.859 304.26 185.984 312.19 186.068C316.905 186.118 320.249 186.153 321.367 186.186C321.381 186.187 321.394 186.186 321.408 186.184C322.175 186.203 322.334 186.19 322.467 186.125C322.569 186.076 322.656 185.997 322.986 185.88C323.359 185.793 323.695 185.701 323.992 185.605C324.535 185.431 324.951 185.243 325.239 185.044C329.31 183.289 332.085 182.865 334.157 182.549C336.585 182.178 338.05 181.954 339.508 179.909C341.196 177.541 341.311 176.524 340.225 173.58C338.66 169.338 331.673 162.202 322.823 155.81C316.724 151.403 315.645 151.041 306.888 150.46C301.722 150.119 296.895 149.798 296.16 149.748C295.24 149.686 294.974 145.776 295.304 137.164C295.82 123.74 294.44 114.12 290.148 101.203L289.05 97.8984C288.066 94.9351 288.511 91.6828 290.256 89.0931C294.32 83.0587 294.666 71.8541 290.921 67.5351C287.315 63.3774 280.789 63.0199 276.125 66.7248C274.217 68.2399 271.482 68.1083 269.728 66.4171L266.701 63.4982C252.784 50.0784 233.434 42.7498 206.185 40.5788L197.72 39.9051C193.206 39.5457 189.682 35.8515 189.536 31.325C189.204 20.9867 185.248 11.7842 179.17 7.20942C171.16 1.17938 162.488 -1.07367 154.917 0.908341ZM252.312 176.342C257.49 175.778 261.127 171.975 261.264 168.249C261.553 160.442 248.524 151.814 233.7 149.991C232.072 149.791 230.705 149.601 229.547 149.404C225.514 148.717 224.023 147.945 222.942 146.37L222.738 146.073C222.393 145.57 221.606 145.898 221.72 146.497C222.205 149.047 221.922 149.13 213.317 148.954L204.412 148.771L215.415 150.188C242.509 153.676 245.568 154.415 251.927 159.006C255.475 161.568 258.165 164.489 258.516 166.163C259.191 169.387 256.478 173.841 252.312 176.342ZM82.0329 19.2085C81.9709 19.2086 81.9617 19.153 81.9979 19.0512C82.1114 18.9625 82.126 19.0061 82.0329 19.2085ZM82.1926 19.3109C82.1358 19.2877 82.0826 19.2537 82.0329 19.2085C82.0979 19.2321 82.1509 19.2665 82.1926 19.3109ZM173.912 6.55368C189.131 15.2811 191.97 42.3663 179.199 57.0211C177.801 58.6253 175.264 58.4736 174.067 56.7144L173.841 56.3824C172.263 54.0621 172.192 51.0315 173.662 48.6407L173.827 48.3719C177.961 41.651 178.699 35.5046 176.092 29.533C174.866 26.7249 172.443 23.4693 170.708 22.2988L169.964 21.7963C169.257 21.3188 169.609 20.2143 170.462 20.2334C172.771 20.2856 173.02 20.0533 171.67 19.104C165.794 14.9701 150.968 22.3922 147.674 31.1156C147.381 31.891 146.114 31.7389 144.009 30.6784C141.064 29.195 140.868 28.6786 141.692 24.5669C143.342 16.3376 150.011 7.6012 157.73 3.55532C160.855 1.91792 168.203 3.27971 173.912 6.55368ZM256.936 28.2242C258.228 28.8081 260.881 31.2543 262.833 33.6603C264.784 36.0673 266.404 37.4428 266.433 36.7176C266.518 34.536 259.052 27.1851 256.738 27.1734C254.813 27.1642 254.834 27.2756 256.936 28.2242ZM241.056 30.781C247.7 32.1628 254.587 35.4039 257.958 38.7351C262.673 43.3926 262.7 41.6755 257.991 36.7622C253.496 32.0714 249.35 30.2556 243.04 30.2128C240.022 30.1933 239.268 30.4093 241.056 30.781ZM33.931 30.6288C38.6933 33.2661 47.4108 42.1363 47.2681 44.1981C47.2354 44.6753 46.2178 46.2522 45.0085 47.7029C43.7735 49.1848 41.5977 49.4478 40.0453 48.3027L38.5773 47.2199C33.173 43.2338 25.6739 41.7567 20.0004 43.5606C15.1639 45.097 10.8718 48.6593 15.3329 47.4341C17.8053 46.7547 17.8154 46.8238 15.9497 51.6187C12.683 60.0184 15.5895 69.0051 23.4727 74.8742C26.8001 77.3516 27.0387 77.9464 25.9868 81.1378C24.4421 85.8207 24.0292 86.0804 20.7543 84.4292C15.6233 81.8438 9.33403 74.6334 6.15849 67.6942C3.46862 61.816 3.06863 59.492 3.36911 51.5124C3.67469 43.4027 4.13868 41.6062 6.94752 37.6643C10.6384 32.4859 13.2045 30.2492 18.2534 27.8097C22.4456 25.7847 26.5063 26.5145 33.931 30.6288ZM135.547 62.8784C129.6 65.3921 122.653 72.7277 120.63 78.6304C115.316 94.1239 121.314 109.959 135.433 117.721C157.281 129.732 178.759 114.52 174.569 90.0048C173.188 81.9337 171.242 77.7259 166.263 72.0488C158.044 62.6802 145.133 58.8255 135.547 62.8784ZM288.888 68.5297C289.812 69.5298 290.874 71.4573 291.246 72.8117C292.084 75.8607 290.557 84.0005 288.511 87.4019C287.055 89.8207 286.712 89.4894 281.097 80.2288L276.972 73.4257C275.972 71.7776 276.388 69.64 277.933 68.4872C281.23 66.0242 286.592 66.0462 288.888 68.5297ZM155.273 66.1486C173.074 75.585 178.281 98.15 166.065 112.926C158.389 122.209 142.403 121.758 130.955 111.937C119.368 101.996 117.793 82.6981 127.63 71.198C134.232 63.4798 146.135 61.3059 155.273 66.1486ZM54.1592 76.8775C48.457 79.0865 43.7668 83.4504 39.8673 90.1758C37.0492 95.0357 36.5107 97.309 36.1771 105.746C35.7654 116.171 37.686 122.549 43.2179 129.126C48.8821 135.861 58.8186 138.943 67.6292 136.698C80.5844 133.399 90.3895 120.646 90.6813 106.722C90.7688 102.536 90.0587 97.1705 89.0893 94.7019C86.6312 88.4358 79.8757 80.7066 74.4867 77.9922C68.9527 75.2047 59.7775 74.7013 54.1592 76.8775ZM77.2309 82.3977C87.4427 89.854 91.6984 107.708 85.756 118.169C79.1321 129.83 70.8871 135.046 59.7641 134.61C54.1991 134.391 52.5448 133.772 48.4295 130.371C35.5605 119.731 34.5055 98.1859 46.2346 85.525C52.1789 79.1081 56.778 77.3016 65.2 78.0746C70.6538 78.5763 73.2973 79.5263 77.2309 82.3977ZM136.756 87.5192C133.177 89.5136 130.361 92.8533 130.268 95.215C130.245 95.7973 133.294 94.8647 137.043 93.1424C143.186 90.3209 144.574 90.1147 151.093 91.0562C155.073 91.6316 158.34 91.7912 158.355 91.4112C158.37 91.0311 156.722 89.6173 154.695 88.2689C149.889 85.0746 141.754 84.7342 136.756 87.5192ZM66.3161 98.8656C62.3468 99.5433 57.3177 103.14 55.1081 106.88C53.1641 110.172 54.5448 110.317 59.3464 107.326C64.6874 103.999 70.1665 103.054 77.0356 104.271C82.662 105.268 83.5802 104.385 79.6744 101.726C75.993 99.2223 70.7718 98.1035 66.3161 98.8656ZM105.688 108.297C101.061 109.173 96.8687 110.269 96.3721 110.733C95.119 111.904 99.8386 117.081 103.843 118.927C105.666 119.768 107.132 121.163 107.098 122.029C107.007 124.331 100.125 127.177 96.3548 126.472C94.5648 126.137 93.3489 126.301 93.6526 126.838C94.728 128.742 103.028 128.177 106.036 125.996C108.279 124.371 110.065 124.043 113.211 124.681C117.971 125.646 123.97 123.861 125.142 121.13C125.857 119.466 125.73 119.455 123.776 121.018C120.68 123.493 116.685 124.042 112.82 122.521C109.152 121.079 108.566 119.679 111.248 118.769C112.963 118.187 118.042 110.129 118.131 107.846C118.193 106.276 115.919 106.359 105.688 108.297ZM117.635 141.055C114.068 143.889 109.513 144.298 104.635 142.221C100.119 140.297 101.107 141.941 105.77 144.108C110.829 146.459 115.458 145.773 119.166 142.124C122.903 138.448 121.846 137.709 117.635 141.055ZM56.3781 168.076C83.1179 170.598 102.566 173.779 108.713 176.635C113.174 178.707 119.004 184.269 118.109 185.598C116.346 188.213 93.237 190.615 76.1697 189.956C63.2355 189.457 34.3406 185.79 25.5265 183.53C21.6462 182.535 21.4875 182.276 21.344 176.712C21.2628 173.531 22.2203 167.643 23.4721 163.63L24.1287 161.526C24.7519 159.528 27.4484 159.217 28.5103 161.02C30.2436 163.965 33.2849 165.899 36.6869 166.22L56.3781 168.076Z" fill="#3E3940"/>
<path d="M167.286 186.327C195.152 187.859 201.713 187.88 213.244 186.469C221.814 185.421 232.718 184.603 251.866 184.709C246.563 184.426 239.045 182.824 239.074 182.599C239.128 182.167 249.195 179.526 252.312 176.342C248.372 178.708 223.151 178.676 208.978 177.426C197.519 176.415 173.716 170.733 169.783 168.069C168.46 167.172 170.982 165.624 175.842 160.852C166.952 169.25 151.832 175.399 140.731 180.331C139.013 181.095 137.326 181.805 135.695 182.456C138.057 183.978 140.908 184.622 143.712 184.795C144.743 184.858 146.011 184.951 147.621 185.068C151.585 185.357 157.619 185.796 167.286 186.327Z" fill="#403941"/>
<path d="M326.12 173.556C326.057 175.16 324.445 176.4 322.519 176.324C320.594 176.249 319.084 174.887 319.147 173.282C319.21 171.677 320.822 170.437 322.747 170.513C324.673 170.589 326.183 171.951 326.12 173.556Z" fill="#2F2A31"/>
<path d="M334.211 175.037C334.148 176.642 332.535 177.882 330.61 177.806C328.684 177.731 327.174 176.368 327.237 174.764C327.3 173.159 328.912 171.919 330.838 171.995C332.763 172.07 334.274 173.433 334.211 175.037Z" fill="#2F2A31"/>
<path d="M332.16 167.972C332.097 169.577 330.485 170.817 328.559 170.741C326.633 170.666 325.123 169.303 325.186 167.699C325.249 166.094 326.861 164.854 328.787 164.93C330.713 165.005 332.223 166.368 332.16 167.972Z" fill="#2F2A31"/>
<path d="M318.529 165.746C317.285 167.218 314.072 166.546 311.353 164.245C308.634 161.945 307.439 158.888 308.684 157.416C309.929 155.945 313.142 156.617 315.861 158.917C318.579 161.218 319.774 164.275 318.529 165.746Z" fill="#2F2A31"/>
<path d="M33.931 30.6288C38.6933 33.2661 47.4108 42.1363 47.2681 44.1981C47.2354 44.6753 46.2178 46.2522 45.0085 47.7029C43.7735 49.1848 41.5977 49.4478 40.0453 48.3027L38.5773 47.2199C33.173 43.2338 25.6739 41.7567 20.0004 43.5606C15.1639 45.097 10.8718 48.6593 15.3329 47.4341C17.8053 46.7547 17.8154 46.8238 15.9497 51.6187C12.683 60.0184 15.5895 69.0051 23.4727 74.8742C26.8001 77.3516 27.0387 77.9464 25.9868 81.1378C24.4421 85.8207 24.0292 86.0804 20.7543 84.4292C15.6233 81.8438 9.33403 74.6334 6.15849 67.6942C3.46862 61.816 3.06863 59.492 3.36911 51.5124C3.67469 43.4027 4.13868 41.6062 6.94752 37.6643C10.6384 32.4859 13.2045 30.2492 18.2534 27.8097C22.4456 25.7847 26.5063 26.5145 33.931 30.6288Z" fill="#5E5163"/>
<path d="M173.912 6.55368C189.131 15.2811 191.97 42.3663 179.199 57.0211C177.801 58.6253 175.264 58.4736 174.067 56.7144L173.841 56.3824C172.263 54.0621 172.192 51.0315 173.662 48.6407L173.827 48.3719C177.961 41.651 178.699 35.5046 176.092 29.533C174.866 26.7249 172.443 23.4693 170.708 22.2988L169.964 21.7963C169.257 21.3188 169.609 20.2143 170.462 20.2334C172.771 20.2856 173.02 20.0533 171.67 19.104C165.794 14.9701 150.968 22.3922 147.674 31.1156C147.381 31.891 146.114 31.7389 144.009 30.6784C141.064 29.195 140.868 28.6786 141.692 24.5669C143.342 16.3376 150.011 7.6012 157.73 3.55532C160.855 1.91792 168.203 3.27971 173.912 6.55368Z" fill="#605364"/>
<path d="M102.133 26.1078C104.785 27.2456 104.018 30.8765 100.497 33.8592L104.955 31.025C105.369 30.7619 105.738 30.4339 106.047 30.0535C106.913 28.9893 107.253 27.5923 106.975 26.2492L106.436 23.6531C102.909 23.4561 100.486 23.5789 100.463 24.1635C100.437 24.8271 101.189 25.7017 102.133 26.1078Z" fill="#CCDEEC"/>
<path fill-rule="evenodd" clip-rule="evenodd" d="M94.2395 11.4077C92.3124 11.332 89.6894 12.8541 86.642 15.8146C86.3065 16.1405 85.9917 16.4502 85.6962 16.7407C83.8998 18.5071 82.8213 19.5676 82.1926 19.3109C83.3381 20.5318 75.8861 29.3447 71.9538 31.202C49.1766 41.96 32.8629 62.7268 26.104 89.5679C23.0812 101.568 20.4225 134.419 21.9271 141.163C23.497 148.201 26.9537 155.57 31.0573 160.632C33.1582 163.223 36.2421 164.824 39.5701 165.05L58.473 166.337C85.6713 168.188 102.154 170.921 111.698 175.798L113.508 174.895C119.795 171.758 126.381 169.258 133.167 167.434C138.513 165.997 143.737 164.141 148.79 161.881L159.977 156.881L187.658 147.332C187.849 147.076 188.037 146.82 188.22 146.564C188.682 145.903 189.128 145.243 189.557 144.582C190.233 143.513 190.863 142.446 191.443 141.383C195.612 133.75 197.76 124.666 197.759 116.315L197.759 116.314C197.479 109.984 196.771 106.634 190.755 93.0456C190.193 91.8273 189.627 90.5634 189.096 89.3366C188.863 88.6088 188.472 87.8772 188.187 87.1858C188.472 87.8771 188.778 88.6003 189.096 89.3366C184.327 78.7565 178.186 67.3066 177.218 65.6191C177.176 65.5561 177.133 65.4932 177.091 65.4303C173.898 60.6846 170.169 56.1736 165.223 50.822C153.158 37.7659 144.199 31.8045 130.02 27.396C124.352 25.633 113.302 24.0368 106.436 23.6531L106.975 26.2492C107.253 27.5923 106.913 28.9893 106.047 30.0535C105.738 30.4339 105.369 30.7619 104.955 31.025L100.497 33.8592L100.203 34.1087C99.761 34.4828 99.1466 33.9238 99.4773 33.4489C101.603 30.3964 101.455 26.0288 99.2685 27.2642C98.5971 27.6429 98.5156 25.3605 99.064 21.5313C100.102 14.2687 98.8247 11.5877 94.2395 11.4077ZM120.63 78.6304C122.653 72.7277 129.6 65.3921 135.547 62.8784C145.133 58.8255 158.044 62.6802 166.263 72.0488C171.242 77.7259 173.188 81.9337 174.569 90.0048C178.759 114.52 157.281 129.732 135.433 117.721C121.314 109.959 115.316 94.1239 120.63 78.6304ZM39.8673 90.1758C43.7668 83.4504 48.457 79.0865 54.1592 76.8775C59.7775 74.7013 68.9527 75.2047 74.4867 77.9922C79.8757 80.7066 86.6312 88.4358 89.0893 94.7019C90.0587 97.1705 90.7688 102.536 90.6813 106.722C90.3895 120.646 80.5844 133.399 67.6292 136.698C58.8186 138.943 48.8821 135.861 43.2179 129.126C37.686 122.549 35.7654 116.171 36.1771 105.746C36.5107 97.309 37.0492 95.0357 39.8673 90.1758ZM96.3721 110.733C96.8687 110.269 101.061 109.173 105.688 108.297C115.919 106.359 118.193 106.276 118.131 107.846C118.042 110.129 112.963 118.187 111.248 118.769C108.566 119.679 109.152 121.079 112.82 122.521C116.685 124.042 120.68 123.493 123.776 121.018C125.73 119.455 125.857 119.466 125.142 121.13C123.97 123.861 117.971 125.646 113.211 124.681C110.065 124.043 108.279 124.371 106.036 125.996C103.028 128.177 94.728 128.742 93.6526 126.838C93.3489 126.301 94.5648 126.137 96.3548 126.472C100.125 127.177 107.007 124.331 107.098 122.029C107.132 121.163 105.666 119.768 103.843 118.927C99.8386 117.081 95.119 111.904 96.3721 110.733ZM104.635 142.221C109.513 144.298 114.068 143.889 117.635 141.055C121.846 137.709 122.903 138.448 119.166 142.124C115.458 145.773 110.829 146.459 105.77 144.108C101.107 141.941 100.119 140.297 104.635 142.221Z" fill="white"/>
</svg>
