<svg width="50" height="50" viewBox="0 0 50 50" fill="none" xmlns="http://www.w3.org/2000/svg">
<path d="M22.9165 21.8752H24.4998C24.776 21.8752 24.9998 22.099 24.9998 22.3752V31.7918C24.9998 32.068 25.2237 32.2918 25.4998 32.2918H27.0832M24.9999 17.7085H25.0207" stroke="#1E4391" stroke-width="2" stroke-linecap="round" stroke-linejoin="round"/>
<path d="M27.894 41.4136C30.0494 41.0336 32.1089 40.2327 33.9548 39.0567C35.8008 37.8807 37.397 36.3526 38.6524 34.5598C39.9078 32.7669 40.7977 30.7443 41.2714 28.6075C41.7452 26.4707 41.7934 24.2615 41.4133 22.106C41.0332 19.9506 40.2323 17.8911 39.0564 16.0452C37.8804 14.1992 36.3523 12.603 34.5594 11.3476C32.7666 10.0922 30.744 9.20228 28.6072 8.72856C26.4703 8.25484 24.2611 8.20664 22.1057 8.5867C19.9503 8.96676 17.8908 9.76765 16.0448 10.9436C14.1989 12.1196 12.6027 13.6477 11.3473 15.4406C10.0919 17.2334 9.20196 19.256 8.72824 21.3928C8.25452 23.5297 8.20631 25.7389 8.58638 27.8943C8.96644 30.0497 9.76733 32.1092 10.9433 33.9552C12.1193 35.8011 13.6474 37.3973 15.4402 38.6527C17.2331 39.9081 19.2557 40.798 21.3925 41.2718C23.5293 41.7455 25.7385 41.7937 27.894 41.4136L27.894 41.4136Z" stroke="#1E4391" stroke-width="2"/>
</svg>
