<svg width="359" height="463" viewBox="0 0 359 463" fill="none" xmlns="http://www.w3.org/2000/svg">
<path d="M93.8357 461.633H103.325C106.382 461.633 109.364 460.692 111.869 458.939C114.488 457.106 116.448 454.479 117.459 451.445L119.054 446.659C121.678 438.264 123.683 429.689 125.055 421.001L125.359 419.076L112.597 413.071C112.266 412.915 111.876 413.098 111.783 413.451L108.819 424.714C108.288 426.731 107.941 428.791 107.781 430.87C106.94 441.795 100.979 451.677 91.7067 457.515L85.1668 461.633H93.8357Z" fill="#3E3643"/>
<path d="M192.346 416.712L195.498 430.109L197.726 441.807C198.334 444.999 199.664 448.011 201.614 450.611C204.299 454.19 208.041 456.834 212.312 458.169L215.18 459.065C217.289 459.724 219.463 460.153 221.664 460.344L236.478 461.633L232.259 458.619C227.732 455.385 223.595 451.637 219.931 447.45L218.165 445.431C215.671 442.582 213.517 439.452 211.746 436.106C208.822 430.583 206.983 424.552 206.329 418.337L205.777 413.097C205.76 412.928 205.593 412.816 205.429 412.864L192.346 416.712Z" fill="#3D363E"/>
<path d="M67.0409 375.732V394.646L67.5266 403.873C67.7279 407.698 68.2253 411.502 69.0144 415.25L70.4291 421.97C70.7957 423.711 71.3843 425.399 72.1802 426.991L74.6967 432.024C75.8391 434.308 75.9176 436.98 74.9113 439.328C74.3994 440.522 73.6259 441.587 72.6479 442.443L68.9231 445.702C68.1969 446.337 67.5579 447.066 67.0226 447.869L65.529 450.109C64.0507 452.327 64.0084 455.204 65.4208 457.464C66.451 459.113 68.1389 460.239 70.0562 460.559L75.031 461.388C76.0073 461.551 76.9953 461.633 77.985 461.633H85.1668L91.7067 457.515C100.979 451.677 106.94 441.795 107.781 430.87C107.941 428.791 108.288 426.731 108.819 424.714L111.783 413.451C111.876 413.098 112.266 412.915 112.597 413.071L125.359 419.076L126.12 417.935C126.574 417.254 127.487 417.057 128.182 417.491C131.487 419.557 135.307 420.652 139.204 420.652H167.127L178.998 420.158C183.641 419.964 188.19 418.79 192.346 416.712L205.429 412.864C205.593 412.816 205.76 412.928 205.777 413.097L206.329 418.337C206.983 424.552 208.822 430.583 211.746 436.106C213.517 439.452 215.671 442.582 218.165 445.431L219.931 447.45C223.595 451.637 227.732 455.385 232.259 458.619L236.478 461.633L247.511 460.162C248.036 460.092 248.554 459.98 249.061 459.828L251.184 459.191C254.149 458.302 256.18 455.572 256.18 452.476C256.18 450.299 255.169 448.246 253.444 446.918L245.935 441.143C243.207 439.323 242.193 435.798 243.539 432.808L247.497 424.012C248.03 422.827 248.435 421.587 248.703 420.315L251.452 407.255C253.543 396.801 254.135 386.102 253.212 375.48L253.028 373.368C245.192 379.114 236.537 383.653 227.354 386.832L220.717 389.129L195.498 394.646L188.456 395.202C173.218 396.405 157.901 396.219 142.697 394.646L127.405 393.256C114.547 392.087 101.919 389.106 89.8953 384.401L67.0409 375.732Z" fill="#5E5162"/>
<path d="M70.9813 354.454L67.0409 375.732L89.8953 384.401C101.919 389.106 114.547 392.087 127.405 393.256L142.697 394.646C157.901 396.219 173.218 396.405 188.456 395.202L195.498 394.646L220.717 389.129L227.354 386.832C236.537 383.653 245.192 379.114 253.028 373.368C253.028 366.563 252.194 359.785 250.543 353.183L249.876 350.513L245.935 332.387L241.207 328.447L214.412 331.599L191.558 332.387C175.298 332.387 159.065 331.064 143.019 328.429L140.727 328.053C139.469 333.836 135.878 338.843 130.803 341.888L129.149 342.881C125.122 345.297 120.514 346.573 115.818 346.573H106.769C101.326 346.573 95.909 345.814 90.6753 344.319L76.4979 340.268C73.8925 344.437 72.0635 349.043 71.0994 353.863L70.9813 354.454Z" fill="white"/>
<path d="M73.6355 267.036C71.8698 268.045 70.2002 269.214 68.6478 270.527L66.313 272.503C62.6382 275.612 59.6754 279.476 57.6257 283.832C55.5223 288.301 54.4316 293.181 54.4316 298.121V300.609C54.4316 304.959 55.0666 309.285 56.3165 313.452L57.4934 317.375C58.5977 321.056 60.2743 324.54 62.4618 327.7C64.9686 331.32 68.1079 334.46 71.7288 336.967L76.4979 340.268L90.6753 344.319C95.909 345.814 101.326 346.573 106.769 346.573H115.818C120.514 346.573 125.122 345.297 129.149 342.881L130.803 341.888C135.878 338.843 139.469 333.836 140.727 328.053L143.019 328.429C159.065 331.064 175.298 332.387 191.558 332.387L214.412 331.599L241.207 328.447L239.797 326.567C239.177 325.741 238.843 324.737 238.843 323.705C238.843 323.192 238.76 322.682 238.598 322.196L238.055 320.566L237.266 316.626L236.977 315.757C236.647 314.766 236.478 313.729 236.478 312.685V309.689C236.478 309.586 236.495 309.483 236.528 309.385C236.8 308.567 237.926 308.487 238.311 309.258L238.764 310.164C238.816 310.268 238.855 310.379 238.879 310.493L240.131 316.335C240.846 319.672 241.207 323.075 241.207 326.487V328.447L245.935 332.387C249.947 339.408 256.788 344.256 264.814 345.248C267.376 345.565 269.342 345.785 269.578 345.785C269.687 345.785 270.036 345.737 270.559 345.655C278.694 344.37 286.167 340.428 292.176 334.795C294.442 332.671 296.472 330.309 298.231 327.749L301.178 323.463C303.215 320.5 304.77 317.233 305.785 313.783C307.366 308.406 307.596 302.722 306.453 297.235L305.416 292.258C304.643 288.549 303.484 284.93 301.958 281.462L300.51 278.171C297.242 270.743 292.968 263.8 287.81 257.536L284.551 253.579L281.951 250.979C279.039 248.067 275.24 246.209 271.154 245.699H266.014C263.679 245.699 261.361 246.1 259.162 246.885L257.002 247.657C253.44 248.929 250.508 251.528 248.816 254.91C246.98 258.582 246.767 262.855 248.229 266.692L252.156 277.002C253.22 277.648 253.985 278.687 254.287 279.894L256.18 287.467L257.757 293.771C258.281 296.394 259.016 298.97 259.956 301.474L260.909 304.016L263.273 311.109L263.869 313.491C263.997 314.003 264.18 314.5 264.416 314.972L264.49 315.118C264.728 315.596 264.902 316.103 265.007 316.626L265.531 319.249C265.598 319.579 265.494 319.921 265.256 320.16C264.716 320.7 263.795 320.468 263.576 319.736L259.333 305.593C256.187 296.68 253.863 287.498 252.388 278.162L252.24 277.222C249.627 280.358 246.575 283.1 243.178 285.364L241.207 286.679L239.4 287.652C226.986 294.336 213.841 299.563 200.227 303.228L194.759 303.942C186.344 305.039 177.837 305.227 169.382 304.503C159.512 303.656 149.787 301.573 140.437 298.3L138.756 297.712L131.852 295.515C124.917 293.309 118.247 290.345 111.962 286.679C103.065 281.969 94.7957 276.16 87.3474 269.389L81.2264 263.824L79.6256 264.358C77.5455 265.051 75.5391 265.948 73.6355 267.036Z" fill="#5B5360"/>
<path d="M158.458 100.692L152.942 90.4466L147.425 81.7777L144.954 78.4834C143.453 76.482 141.748 74.6426 139.865 72.9952L138.699 71.9753C137.167 70.6349 135.471 69.4958 133.65 68.5855C132.329 67.9248 130.949 67.388 129.528 66.9821L128.649 66.7309C126.983 66.2551 125.284 65.9082 123.565 65.6934L119.842 65.228H116.298C113.43 65.228 110.586 65.7437 107.901 66.7506C106.409 67.3103 104.976 68.0179 103.624 68.8628L99.3523 71.5327C95.7101 74.1342 92.6149 77.4264 90.2427 81.2219L89.8953 81.7777L86.743 88.8704C85.1752 93.051 84.2278 97.4386 83.9308 101.894L83.8567 103.006C83.6796 105.662 83.7017 108.329 83.9228 110.982L84.3787 116.453L85.2191 120.235C85.7084 122.437 86.4164 124.584 87.3325 126.646C88.5108 129.297 90.0066 131.801 91.8711 134.024C92.3856 134.638 92.8214 135.141 93.0476 135.367C93.6781 135.998 94.3611 137.731 94.6238 138.52L104.869 129.063L106.62 127.486L104.547 125.031C103.712 124.043 102.97 122.981 102.328 121.858C100.885 119.332 99.9746 116.538 99.6534 113.647L99.3523 110.937V108.6C99.3523 105.991 99.9598 103.417 101.127 101.083C101.519 100.298 101.973 99.5448 102.483 98.8304L104.1 96.5672C105.132 95.1214 106.369 93.833 107.772 92.7421L110.077 90.9489C111.809 89.6018 113.941 88.8704 116.135 88.8704C118.525 88.8704 120.834 89.7379 122.632 91.3117L124.774 93.1856C125.687 93.9844 126.514 94.8762 127.242 95.8466L128.164 97.0758C129.963 99.4746 131.417 102.113 132.485 104.915L134.028 108.967L141.121 106.208L150.578 103.056L158.458 100.692Z" fill="#5C505E"/>
<path d="M112.75 121.97L120.766 116.18C124.862 113.222 129.319 110.798 134.028 108.967L132.485 104.915C131.417 102.113 129.963 99.4746 128.164 97.0758L127.242 95.8466C126.514 94.8762 125.687 93.9844 124.774 93.1856L122.632 91.3117C120.834 89.7379 118.525 88.8704 116.135 88.8704C113.941 88.8704 111.809 89.6018 110.077 90.9489L107.772 92.7421C106.369 93.833 105.132 95.1214 104.1 96.5672L102.483 98.8304C101.973 99.5448 101.519 100.298 101.127 101.083C99.9598 103.417 99.3523 105.991 99.3523 108.6V110.937L99.6534 113.647C99.9746 116.538 100.885 119.332 102.328 121.858C102.97 122.981 103.712 124.043 104.547 125.031L106.62 127.486L112.75 121.97Z" fill="#3D3742"/>
<path d="M282.549 191.046C284.91 190.187 287.073 188.859 288.905 187.14L292.691 183.591C296.686 179.846 299.945 175.386 302.3 170.442L302.53 169.958C305.221 164.306 306.618 158.126 306.618 151.866V149.65C306.618 144.915 305.572 140.238 303.556 135.954C301.423 131.422 298.262 127.451 294.324 124.357L292.547 122.96C290.379 121.257 287.99 119.856 285.445 118.796C281.734 117.249 277.753 116.453 273.732 116.453H273.602C270.93 116.453 268.27 116.797 265.686 117.477L260.5 118.842C256.58 119.874 252.777 121.307 249.151 123.12L248.085 123.654C245.084 125.154 242.25 126.967 239.631 129.063L245.935 136.155L250.664 142.46L254.604 149.553L260.909 145.612L264.417 143.858C266.269 142.932 268.259 142.311 270.309 142.018C271.917 141.788 273.547 141.763 275.161 141.942L279.823 142.46L284.945 143.248L290.068 144.036L293.127 147.095C293.188 147.157 293.234 147.231 293.262 147.313L293.303 147.438C293.479 147.965 292.825 148.369 292.432 147.977C290.868 146.413 289.04 145.138 287.032 144.211L284.945 143.248H279.992L283.649 147.04C284.249 147.663 284.793 148.339 285.273 149.059C286.858 151.436 287.704 154.23 287.704 157.087V160.212C287.704 162.541 287.259 164.849 286.394 167.012C285.187 170.029 283.2 172.67 280.635 174.665L279.232 175.756C278.052 176.674 276.792 177.483 275.467 178.175L268.396 181.864C269.183 184.487 269.772 187.166 270.16 189.877L270.366 191.321L272.171 191.722C275.624 192.489 279.225 192.255 282.549 191.046Z" fill="#5E5363"/>
<path d="M254.604 149.553C258.264 155.304 261.439 161.386 264.061 167.679L267.214 177.924L268.396 181.864L275.467 178.175C276.792 177.483 278.052 176.674 279.232 175.756L280.635 174.665C283.2 172.67 285.187 170.029 286.394 167.012C287.259 164.849 287.704 162.541 287.704 160.212V157.087C287.704 154.23 286.858 151.436 285.273 149.059C284.793 148.339 284.249 147.663 283.649 147.04L279.992 143.248L279.823 142.46L275.161 141.942C273.547 141.763 271.917 141.788 270.309 142.018C268.259 142.311 266.269 142.932 264.417 143.858L260.909 145.612L254.604 149.553Z" fill="#3E3940"/>
<path d="M210.472 118.818C207.853 120.389 205.069 121.669 202.172 122.635L201.803 122.758L201.516 122.854C201.179 122.966 200.954 122.511 201.247 122.311C201.264 122.299 201.283 122.289 201.303 122.281L204.688 120.893C208.939 118.531 212.246 114.776 214.052 110.261L214.412 109.361L204.723 114.857C204.7 114.87 204.673 114.877 204.646 114.877C204.462 114.877 204.43 114.614 204.609 114.57L204.648 114.56C204.674 114.553 204.698 114.54 204.718 114.522L209.257 110.349C211.107 108.65 212.682 106.674 213.928 104.493L214.784 102.996C215.061 102.512 215.289 102.001 215.466 101.472L215.803 100.458C216.417 98.6166 216.146 96.5945 215.07 94.9791C214.144 93.5908 212.705 92.627 211.069 92.2998L208.049 91.6958C206.523 91.3906 204.956 91.3471 203.416 91.5672L203.274 91.5874C201.265 91.8745 199.337 92.5785 197.616 93.6543L193.922 95.9632L190.433 98.2894C189.609 98.8386 188.73 99.3009 187.811 99.6686C186.121 100.344 184.318 100.692 182.498 100.692H176.584H167.915H158.458L150.578 103.056L141.121 106.208L134.028 108.967C129.319 110.798 124.862 113.222 120.766 116.18L112.75 121.97L106.62 127.486L104.869 129.063L94.6238 138.52C89.9101 142.709 85.6809 147.414 82.0152 152.546L79.6502 155.857L65.4648 180.288C61.3254 188.049 59.1601 196.71 59.1601 205.506V210.235L59.5858 214.918C60.3468 223.288 62.586 231.457 66.1995 239.045C67.8087 242.425 69.6823 245.672 71.8028 248.756L77.286 256.732L81.2264 263.824L87.3474 269.389C94.7957 276.16 103.065 281.969 111.962 286.679C118.247 290.345 124.917 293.309 131.852 295.515L138.756 297.712L140.437 298.3C149.787 301.573 159.512 303.656 169.382 304.503C177.837 305.227 186.344 305.039 194.759 303.942L200.227 303.228C213.841 299.563 226.986 294.336 239.4 287.652L241.207 286.679L243.178 285.364C246.575 283.1 249.627 280.358 252.24 277.222L252.156 277.002L248.229 266.692C246.767 262.855 246.98 258.582 248.816 254.91C250.508 251.528 253.44 248.929 257.002 247.657L259.162 246.885C261.361 246.1 263.679 245.699 266.014 245.699H271.154C272.202 240.457 272.73 235.126 272.73 229.781V227.573V217.328V203.93C272.73 200.276 272.141 196.647 270.986 193.18L270.366 191.321L270.16 189.877C269.772 187.166 269.183 184.487 268.396 181.864L267.214 177.924L264.061 167.679C261.439 161.386 258.264 155.304 254.604 149.553L250.664 142.46L245.935 136.155L239.631 129.063L234.947 123.91C232.824 121.575 230.422 119.508 227.795 117.757L223.41 114.833C222.671 114.341 222.021 113.726 221.488 113.015L219.679 110.604C218.455 108.971 216.238 108.448 214.412 109.361L213.792 114.939C213.683 115.919 213.244 116.833 212.546 117.531C212.216 117.861 211.835 118.136 211.417 118.345L210.472 118.818Z" fill="white"/>
<path d="M214.412 109.361L213.792 114.939C213.683 115.919 213.244 116.833 212.546 117.531V117.531C212.216 117.861 211.835 118.136 211.417 118.345L210.472 118.818V118.818C207.853 120.389 205.069 121.669 202.172 122.635L201.803 122.758L201.516 122.854C201.179 122.966 200.954 122.511 201.247 122.311V122.311C201.264 122.299 201.283 122.289 201.303 122.281L204.688 120.893V120.893C208.939 118.531 212.246 114.776 214.052 110.261L214.412 109.361ZM214.412 109.361V109.361C216.238 108.448 218.455 108.971 219.679 110.604L221.488 113.015C222.021 113.726 222.671 114.341 223.41 114.833L227.795 117.757C230.422 119.508 232.824 121.575 234.947 123.91L239.631 129.063M214.412 109.361L204.723 114.857C204.7 114.87 204.673 114.877 204.646 114.877V114.877C204.462 114.877 204.43 114.614 204.609 114.57L204.648 114.56C204.674 114.553 204.698 114.54 204.718 114.522L209.257 110.349C211.107 108.65 212.682 106.674 213.928 104.493L214.784 102.996C215.061 102.512 215.289 102.001 215.466 101.472L215.803 100.458C216.417 98.6166 216.146 96.5945 215.07 94.9791V94.9791C214.144 93.5908 212.705 92.627 211.069 92.2998L208.049 91.6958C206.523 91.3906 204.956 91.3471 203.416 91.5672L203.274 91.5874C201.265 91.8745 199.337 92.5785 197.616 93.6543L193.922 95.9632L190.433 98.2894C189.609 98.8386 188.73 99.3009 187.811 99.6686V99.6686C186.121 100.344 184.318 100.692 182.498 100.692H176.584H167.915H158.458M158.458 100.692L152.942 90.4466L147.425 81.7777L144.954 78.4834C143.453 76.482 141.748 74.6426 139.865 72.9952L138.699 71.9753C137.167 70.6349 135.471 69.4958 133.65 68.5855V68.5855C132.329 67.9248 130.949 67.388 129.528 66.9821L128.649 66.7309C126.983 66.2551 125.284 65.9082 123.565 65.6934L119.842 65.228H116.298C113.43 65.228 110.586 65.7437 107.901 66.7506V66.7506C106.409 67.3103 104.976 68.0179 103.624 68.8628L99.3523 71.5327V71.5327C95.7101 74.1342 92.6149 77.4264 90.2427 81.2219L89.8953 81.7777L86.743 88.8704V88.8704C85.1752 93.051 84.2278 97.4386 83.9308 101.894L83.8567 103.006C83.6796 105.662 83.7017 108.329 83.9228 110.982L84.3787 116.453L85.2191 120.235C85.7084 122.437 86.4164 124.584 87.3325 126.646V126.646C88.5108 129.297 90.0066 131.801 91.8711 134.024C92.3856 134.638 92.8214 135.141 93.0476 135.367C93.6781 135.998 94.3611 137.731 94.6238 138.52M158.458 100.692L150.578 103.056L141.121 106.208L134.028 108.967M94.6238 138.52V138.52C89.9101 142.709 85.6809 147.414 82.0152 152.546L79.6502 155.857L65.4648 180.288V180.288C61.3254 188.049 59.1601 196.71 59.1601 205.506V210.235L59.5858 214.918C60.3468 223.288 62.586 231.457 66.1995 239.045V239.045C67.8087 242.425 69.6823 245.672 71.8028 248.756L77.286 256.732L81.2264 263.824M94.6238 138.52L104.869 129.063L106.62 127.486M81.2264 263.824L79.6256 264.358C77.5455 265.051 75.5391 265.948 73.6355 267.036V267.036C71.8698 268.045 70.2002 269.214 68.6478 270.527L66.313 272.503C62.6382 275.612 59.6754 279.476 57.6257 283.832V283.832C55.5223 288.301 54.4316 293.181 54.4316 298.121V300.609C54.4316 304.959 55.0666 309.285 56.3165 313.452L57.4934 317.375C58.5977 321.056 60.2743 324.54 62.4618 327.7V327.7C64.9686 331.32 68.1079 334.46 71.7288 336.967L76.4979 340.268M81.2264 263.824L87.3474 269.389C94.7957 276.16 103.065 281.969 111.962 286.679V286.679V286.679C118.247 290.345 124.917 293.309 131.852 295.515L138.756 297.712L140.437 298.3C149.787 301.573 159.512 303.656 169.382 304.503V304.503C177.837 305.227 186.344 305.039 194.759 303.942L200.227 303.228V303.228C213.841 299.563 226.986 294.336 239.4 287.652L241.207 286.679L243.178 285.364C246.575 283.1 249.627 280.358 252.24 277.222V277.222M76.4979 340.268V340.268C73.8925 344.437 72.0635 349.043 71.0994 353.863L70.9813 354.454L67.0409 375.732M76.4979 340.268L90.6753 344.319C95.909 345.814 101.326 346.573 106.769 346.573H115.818C120.514 346.573 125.122 345.297 129.149 342.881L130.803 341.888C135.878 338.843 139.469 333.836 140.727 328.053V328.053M67.0409 375.732V394.646L67.5266 403.873C67.7279 407.698 68.2253 411.502 69.0144 415.25L70.4291 421.97C70.7957 423.711 71.3843 425.399 72.1802 426.991L74.6967 432.024C75.8391 434.308 75.9176 436.98 74.9113 439.328V439.328C74.3994 440.522 73.6259 441.587 72.6479 442.443L68.9231 445.702C68.1969 446.337 67.5579 447.066 67.0226 447.869L65.529 450.109C64.0507 452.327 64.0084 455.204 65.4208 457.464V457.464C66.451 459.113 68.1389 460.239 70.0562 460.559L75.031 461.388C76.0073 461.551 76.9953 461.633 77.985 461.633H85.1668M67.0409 375.732L89.8953 384.401V384.401C101.919 389.106 114.547 392.087 127.405 393.256L142.697 394.646V394.646C157.901 396.219 173.218 396.405 188.456 395.202L195.498 394.646L220.717 389.129L227.354 386.832C236.537 383.653 245.192 379.114 253.028 373.368V373.368M192.346 416.712V416.712C188.19 418.79 183.641 419.964 178.998 420.158L167.127 420.652H139.204C135.307 420.652 131.487 419.557 128.182 417.491V417.491C127.487 417.057 126.574 417.254 126.12 417.935L125.359 419.076M192.346 416.712L195.498 430.109L197.726 441.807C198.334 444.999 199.664 448.011 201.614 450.611V450.611C204.299 454.19 208.041 456.834 212.312 458.169L215.18 459.065C217.289 459.724 219.463 460.153 221.664 460.344L236.478 461.633M192.346 416.712L205.429 412.864C205.593 412.816 205.76 412.928 205.777 413.097L206.329 418.337C206.983 424.552 208.822 430.583 211.746 436.106V436.106C213.517 439.452 215.671 442.582 218.165 445.431L219.931 447.45C223.595 451.637 227.732 455.385 232.259 458.619L236.478 461.633M236.478 461.633L247.511 460.162C248.036 460.092 248.554 459.98 249.061 459.828L251.184 459.191C254.149 458.302 256.18 455.572 256.18 452.476V452.476C256.18 450.299 255.169 448.246 253.444 446.918L245.935 441.143V441.143C243.207 439.323 242.193 435.798 243.539 432.808L247.497 424.012C248.03 422.827 248.435 421.587 248.703 420.315L251.452 407.255V407.255C253.543 396.801 254.135 386.102 253.212 375.48L253.028 373.368M253.028 373.368V373.368C253.028 366.563 252.194 359.785 250.543 353.183L249.876 350.513L245.935 332.387M245.935 332.387V332.387C249.947 339.408 256.788 344.256 264.814 345.248C267.376 345.565 269.342 345.785 269.578 345.785C269.687 345.785 270.036 345.737 270.559 345.655C278.694 344.37 286.167 340.428 292.176 334.795V334.795C294.442 332.671 296.472 330.308 298.231 327.749L301.178 323.463C303.215 320.5 304.77 317.233 305.785 313.783V313.783C307.366 308.406 307.596 302.722 306.453 297.235L305.416 292.258C304.643 288.549 303.484 284.93 301.958 281.462L300.51 278.171C297.242 270.743 292.968 263.8 287.81 257.536L284.551 253.579L281.951 250.979C279.039 248.067 275.24 246.209 271.154 245.699V245.699M245.935 332.387L241.207 328.447M271.154 245.699V245.699C272.202 240.457 272.73 235.126 272.73 229.781V227.573V217.328V203.93V203.93C272.73 200.276 272.141 196.647 270.986 193.18L270.366 191.321M271.154 245.699H266.014C263.679 245.699 261.361 246.1 259.162 246.885L257.002 247.657C253.44 248.929 250.508 251.528 248.816 254.91V254.91C246.98 258.582 246.767 262.855 248.229 266.692L252.156 277.002M270.366 191.321L272.171 191.722C275.624 192.489 279.225 192.255 282.549 191.046V191.046C284.91 190.187 287.073 188.859 288.905 187.14L292.691 183.591C296.686 179.846 299.945 175.386 302.3 170.442L302.53 169.958C305.221 164.306 306.618 158.126 306.618 151.866V149.65C306.618 144.915 305.572 140.238 303.556 135.954V135.954C301.423 131.422 298.262 127.451 294.324 124.357L292.547 122.96C290.379 121.257 287.99 119.856 285.445 118.796V118.796C281.734 117.249 277.753 116.453 273.732 116.453H273.602C270.93 116.453 268.27 116.797 265.686 117.477L260.5 118.842C256.58 119.874 252.777 121.307 249.151 123.12L248.085 123.654C245.084 125.154 242.25 126.967 239.631 129.063V129.063M270.366 191.321L270.16 189.877C269.772 187.166 269.183 184.487 268.396 181.864V181.864M239.631 129.063L245.935 136.155L250.664 142.46L254.604 149.553M77.286 286.679L100.928 300.076L122.995 310.321L134.208 315.255C139.147 317.428 141.873 322.78 140.727 328.053V328.053M241.207 328.447L214.412 331.599L191.558 332.387V332.387C175.298 332.387 159.065 331.064 143.019 328.429L140.727 328.053M241.207 328.447V326.487C241.207 323.075 240.846 319.672 240.131 316.335L238.879 310.493C238.855 310.379 238.816 310.268 238.764 310.164L238.311 309.258C237.926 308.487 236.8 308.567 236.528 309.385V309.385C236.495 309.483 236.478 309.586 236.478 309.689V312.685V312.685C236.478 313.729 236.647 314.766 236.977 315.757L237.266 316.626L238.055 320.566L238.598 322.196C238.76 322.682 238.843 323.192 238.843 323.705V323.705C238.843 324.737 239.177 325.741 239.797 326.567L241.207 328.447ZM85.1668 461.633H93.8357H103.325C106.382 461.633 109.364 460.692 111.869 458.939V458.939C114.488 457.106 116.448 454.479 117.459 451.445L119.054 446.659V446.659C121.678 438.264 123.683 429.689 125.055 421.001L125.359 419.076M85.1668 461.633L91.7067 457.515C100.979 451.677 106.94 441.795 107.781 430.87V430.87C107.941 428.791 108.288 426.731 108.819 424.714L111.783 413.451C111.876 413.098 112.266 412.915 112.597 413.071L125.359 419.076M252.24 277.222L252.388 278.162C253.863 287.498 256.187 296.68 259.333 305.593V305.593L263.576 319.736C263.795 320.468 264.716 320.7 265.256 320.16V320.16C265.494 319.921 265.598 319.579 265.531 319.249L265.007 316.626C264.902 316.103 264.728 315.596 264.49 315.118L264.416 314.972C264.18 314.5 263.997 314.003 263.869 313.491L263.273 311.109L260.909 304.016L259.956 301.474C259.016 298.97 258.281 296.394 257.757 293.771V293.771L256.18 287.467L254.287 279.894C253.985 278.687 253.22 277.648 252.156 277.002V277.002M252.24 277.222L252.156 277.002M134.028 108.967V108.967C129.319 110.798 124.862 113.222 120.766 116.18L112.75 121.97L106.62 127.486M134.028 108.967L132.485 104.915C131.417 102.113 129.963 99.4746 128.164 97.0758L127.242 95.8466C126.514 94.8762 125.687 93.9844 124.774 93.1856L122.632 91.3117C120.834 89.7379 118.525 88.8704 116.135 88.8704V88.8704C113.941 88.8704 111.809 89.6018 110.077 90.9489L107.772 92.7421C106.369 93.833 105.132 95.1214 104.1 96.5672L102.483 98.8304C101.973 99.5448 101.519 100.298 101.127 101.083V101.083C99.9598 103.417 99.3523 105.991 99.3523 108.6V110.937L99.6534 113.647C99.9746 116.538 100.885 119.332 102.328 121.858V121.858C102.97 122.981 103.712 124.043 104.547 125.031L106.62 127.486M254.604 149.553V149.553C258.264 155.304 261.439 161.386 264.061 167.679V167.679L267.214 177.924L268.396 181.864M254.604 149.553L260.909 145.612L264.417 143.858C266.269 142.932 268.259 142.311 270.309 142.018V142.018C271.917 141.788 273.547 141.763 275.161 141.942L279.823 142.46M268.396 181.864L275.467 178.175C276.792 177.483 278.052 176.674 279.232 175.756L280.635 174.665C283.2 172.67 285.187 170.029 286.394 167.012V167.012C287.259 164.849 287.704 162.541 287.704 160.212V157.087C287.704 154.23 286.858 151.436 285.273 149.059V149.059C284.793 148.339 284.249 147.663 283.649 147.04L279.992 143.248M279.823 142.46L290.068 144.036M279.823 142.46L279.992 143.248M279.823 142.46L284.945 143.248M290.068 144.036L293.127 147.095C293.188 147.157 293.234 147.231 293.262 147.313L293.303 147.438C293.479 147.965 292.825 148.369 292.432 147.977V147.977V147.977C290.868 146.413 289.04 145.138 287.032 144.211L284.945 143.248M290.068 144.036L284.945 143.248M284.945 143.248H279.992" stroke="black"/>
<path fill-rule="evenodd" clip-rule="evenodd" d="M107.35 147.864C108.324 146.89 109.377 145.999 110.497 145.198L113.017 143.398C113.891 142.774 114.812 142.219 115.773 141.739C116.91 141.17 118.097 140.709 119.32 140.359L119.683 140.256C121.883 139.627 124.16 139.308 126.448 139.308H129.303H131.319C133.119 139.308 134.91 139.559 136.641 140.053C138.568 140.604 140.397 141.45 142.065 142.562L142.442 142.813C143.662 143.627 144.799 144.559 145.837 145.596L149.006 148.765L151.816 152.044C153.09 153.53 154.177 155.167 155.052 156.918C156.266 159.346 157.058 161.962 157.395 164.656L157.674 166.891V172.407V175.067C157.674 176.444 157.561 177.819 157.334 179.177L156.886 181.864L156.098 185.413C155.575 187.763 154.716 190.026 153.547 192.131L152.512 193.994C151.752 195.361 150.866 196.655 149.864 197.857L149.488 198.308C148.121 199.948 146.55 201.406 144.813 202.647L141.913 204.719L139.579 206.275C137.988 207.335 136.28 208.21 134.49 208.882L133.636 209.202C131.805 209.888 129.899 210.358 127.959 210.6L124.575 211.023H116.694L114.353 210.763C111.217 210.415 108.181 209.446 105.423 207.914C103.489 206.84 101.715 205.502 100.152 203.938L99.2792 203.065C97.7608 201.547 96.4444 199.839 95.3624 197.985L94.0535 195.741C92.3525 192.825 91.2597 189.595 90.841 186.245L90.6875 185.017V177.136L91.0665 173.725C91.3377 171.284 91.9673 168.896 92.9349 166.638L93.8398 164.527L95.8135 161.073C96.5975 159.701 97.5098 158.406 98.5382 157.206L101.721 153.494L107.35 147.864ZM118.391 170.831C117.809 170.831 117.251 170.6 116.84 170.189L115.791 169.14C115.12 168.469 113.977 168.739 113.676 169.639C113.589 169.902 113.589 170.185 113.676 170.447L113.949 171.264C114.197 172.008 114.666 172.66 115.294 173.131L115.542 173.317C116.763 174.233 117.482 175.67 117.482 177.197V178.712V182.653C117.482 185.713 118.524 188.683 120.436 191.073L120.635 191.321L122.772 193.459C123.444 194.131 124.221 194.691 125.071 195.116C126.3 195.73 127.654 196.05 129.028 196.05H132.023C132.835 196.05 133.645 195.97 134.441 195.81C136.247 195.449 137.949 194.688 139.422 193.583L140.337 192.898L140.554 192.724C143.014 190.756 145.08 188.341 146.643 185.606L147.429 184.229L148.124 182.839C148.704 181.68 149.006 180.402 149.006 179.106C149.006 177.811 148.704 176.533 148.124 175.374L147.429 173.984L146.649 172.682C145.597 170.93 144.334 169.312 142.889 167.867L141.913 166.891C140.399 165.377 138.346 164.527 136.205 164.527H134.82H133.698C132.353 164.527 131.017 164.744 129.741 165.169L129.377 165.29C127.774 165.825 126.317 166.725 125.122 167.92L125.065 167.977C124.739 168.303 124.39 168.606 124.021 168.883L122.828 169.777C121.916 170.461 120.806 170.831 119.666 170.831H118.391Z" fill="#5B5362"/>
<path d="M113.676 169.639C113.977 168.739 115.12 168.469 115.791 169.14L116.84 170.189C117.251 170.6 117.809 170.831 118.391 170.831H119.666C120.806 170.831 121.916 170.461 122.828 169.777L124.021 168.883C124.39 168.606 124.739 168.303 125.065 167.977L125.122 167.92C126.317 166.725 127.774 165.825 129.377 165.29L129.741 165.169C131.017 164.744 132.353 164.527 133.698 164.527H134.82H136.205C138.346 164.527 140.399 165.377 141.913 166.891L142.889 167.867C144.334 169.312 145.597 170.93 146.649 172.682L147.429 173.984L148.124 175.374C148.704 176.533 149.006 177.811 149.006 179.106C149.006 180.402 148.704 181.68 148.124 182.839L147.429 184.229L146.643 185.606C145.08 188.341 143.014 190.756 140.554 192.724L140.337 192.898L139.422 193.583C137.949 194.688 136.247 195.449 134.441 195.81C133.645 195.97 132.835 196.05 132.023 196.05H129.028C127.654 196.05 126.3 195.73 125.071 195.116C124.221 194.691 123.444 194.131 122.772 193.459L120.635 191.321L120.436 191.073C118.524 188.683 117.482 185.713 117.482 182.653V178.712V177.197C117.482 175.67 116.763 174.233 115.542 173.317L115.294 173.131C114.666 172.66 114.197 172.008 113.949 171.264L113.676 170.447C113.589 170.185 113.589 169.902 113.676 169.639Z" fill="#1C1A1B"/>
<path fill-rule="evenodd" clip-rule="evenodd" d="M107.35 147.864C108.324 146.89 109.377 145.999 110.497 145.198L113.017 143.398C113.891 142.774 114.812 142.219 115.773 141.739C116.91 141.17 118.097 140.709 119.32 140.359L119.683 140.256C121.883 139.627 124.16 139.308 126.448 139.308H129.303H131.319C133.119 139.308 134.91 139.559 136.641 140.053C138.568 140.604 140.397 141.45 142.065 142.562L142.442 142.813C143.662 143.627 144.799 144.559 145.837 145.596L149.006 148.765L151.816 152.044C153.09 153.53 154.177 155.167 155.052 156.918C156.266 159.346 157.058 161.962 157.395 164.656L157.674 166.891V172.407V175.067C157.674 176.444 157.561 177.819 157.334 179.177L156.886 181.864L156.098 185.413C155.575 187.763 154.716 190.026 153.547 192.131L152.512 193.994C151.752 195.361 150.866 196.655 149.864 197.857L149.488 198.308C148.121 199.948 146.55 201.406 144.813 202.647L141.913 204.719L139.579 206.275C137.988 207.335 136.28 208.21 134.49 208.882L133.636 209.202C131.805 209.888 129.899 210.358 127.959 210.6L124.575 211.023H116.694L114.353 210.763C111.217 210.415 108.181 209.446 105.423 207.914C103.489 206.84 101.715 205.502 100.152 203.938L99.2792 203.065C97.7608 201.547 96.4444 199.839 95.3624 197.985L94.0535 195.741C92.3525 192.825 91.2597 189.595 90.841 186.245L90.6875 185.017V177.136L91.0665 173.725C91.3377 171.284 91.9673 168.896 92.9349 166.638L93.8398 164.527L95.8135 161.073C96.5975 159.701 97.5098 158.406 98.5382 157.206L101.721 153.494L107.35 147.864ZM118.391 170.831C117.809 170.831 117.251 170.6 116.84 170.189L115.791 169.14C115.12 168.469 113.977 168.739 113.676 169.639C113.589 169.902 113.589 170.185 113.676 170.447L113.949 171.264C114.197 172.008 114.666 172.66 115.294 173.131L115.542 173.317C116.763 174.233 117.482 175.67 117.482 177.197V178.712V182.653C117.482 185.713 118.524 188.683 120.436 191.073L120.635 191.321L122.772 193.459C123.444 194.131 124.221 194.691 125.071 195.116C126.3 195.73 127.654 196.05 129.028 196.05H132.023C132.835 196.05 133.645 195.97 134.441 195.81C136.247 195.449 137.949 194.688 139.422 193.583L140.337 192.898L140.554 192.724C143.014 190.756 145.08 188.341 146.643 185.606L147.429 184.229L148.124 182.839C148.704 181.68 149.006 180.402 149.006 179.106C149.006 177.811 148.704 176.533 148.124 175.374L147.429 173.984L146.649 172.682C145.597 170.93 144.334 169.312 142.889 167.867L141.913 166.891C140.399 165.377 138.346 164.527 136.205 164.527H134.82H133.698C132.353 164.527 131.017 164.744 129.741 165.169L129.377 165.29C127.774 165.825 126.317 166.725 125.122 167.92L125.065 167.977C124.739 168.303 124.39 168.606 124.021 168.883L122.828 169.777C121.916 170.461 120.806 170.831 119.666 170.831H118.391Z" stroke="black"/>
<path d="M113.676 169.639C113.977 168.739 115.12 168.469 115.791 169.14L116.84 170.189C117.251 170.6 117.809 170.831 118.391 170.831H119.666C120.806 170.831 121.916 170.461 122.828 169.777L124.021 168.883C124.39 168.606 124.739 168.303 125.065 167.977L125.122 167.92C126.317 166.725 127.774 165.825 129.377 165.29L129.741 165.169C131.017 164.744 132.353 164.527 133.698 164.527H134.82H136.205C138.346 164.527 140.399 165.377 141.913 166.891L142.889 167.867C144.334 169.312 145.597 170.93 146.649 172.682L147.429 173.984L148.124 175.374C148.704 176.533 149.006 177.811 149.006 179.106C149.006 180.402 148.704 181.68 148.124 182.839L147.429 184.229L146.643 185.606C145.08 188.341 143.014 190.756 140.554 192.724L140.337 192.898L139.422 193.583C137.949 194.688 136.247 195.449 134.441 195.81C133.645 195.97 132.835 196.05 132.023 196.05H129.028C127.654 196.05 126.3 195.73 125.071 195.116C124.221 194.691 123.444 194.131 122.772 193.459L120.635 191.321L120.436 191.073C118.524 188.683 117.482 185.713 117.482 182.653V178.712V177.197C117.482 175.67 116.763 174.233 115.542 173.317L115.294 173.131C114.666 172.66 114.197 172.008 113.949 171.264L113.676 170.447C113.589 170.185 113.589 169.902 113.676 169.639Z" stroke="black"/>
<path fill-rule="evenodd" clip-rule="evenodd" d="M251.089 188.631C250.543 187.375 249.895 186.166 249.151 185.017L247.28 182.127C246.652 181.156 245.949 180.235 245.179 179.372C244.274 178.359 243.28 177.429 242.208 176.596L241.625 176.142C239.846 174.759 237.889 173.622 235.805 172.763L232.656 171.465L230.626 170.628C228.843 169.893 226.969 169.403 225.055 169.17C222.904 168.909 220.725 168.976 218.594 169.369L218.175 169.446C216.62 169.733 215.097 170.172 213.628 170.756L209.237 172.502L205.085 174.536C203.251 175.434 201.536 176.557 199.978 177.878C197.788 179.735 195.939 181.96 194.514 184.453L193.37 186.453L191.173 191.784L190.103 194.379C189.561 195.692 189.133 197.05 188.822 198.436L188.192 201.246L187.551 205.081C187.145 207.512 187.101 209.99 187.419 212.433L187.736 214.863C187.941 216.432 188.294 217.978 188.791 219.48L189.084 220.367C189.752 222.388 190.676 224.315 191.833 226.102L194.024 229.487L195.875 232.156C196.944 233.699 198.184 235.116 199.571 236.38L200.717 237.425C202.122 238.707 203.668 239.824 205.327 240.755L208.806 242.708L216.667 245.948L219.358 246.733C222.46 247.638 225.708 247.933 228.922 247.601L229.248 247.568C231.538 247.332 233.784 246.78 235.923 245.93L237.371 245.354C239.381 244.554 241.28 243.497 243.018 242.209L245.454 240.403C248.234 238.343 250.556 235.729 252.273 232.725L252.966 231.511L256.106 223.896L257.104 220.382C257.794 217.954 258.112 215.435 258.048 212.912L257.984 210.416L257.377 206.165C257.151 204.585 256.774 203.029 256.252 201.521L254.518 196.514L251.089 188.631ZM230.994 206.417C231.569 206.654 232.214 206.658 232.791 206.428L234.298 205.829C235.226 205.46 236.222 206.181 236.163 207.177C236.145 207.481 236.026 207.769 235.825 207.997L235.233 208.668C234.695 209.279 233.983 209.708 233.192 209.9L232.845 209.984C231.259 210.367 229.953 211.487 229.331 212.995L228.751 214.402L227.182 218.209C225.964 221.163 223.756 223.6 220.936 225.102L220.584 225.29L217.63 226.465C216.672 226.846 215.66 227.071 214.631 227.133C213.171 227.221 211.709 226.977 210.357 226.42L207.332 225.173C206.528 224.841 205.758 224.434 205.032 223.956C203.369 222.86 201.966 221.414 200.923 219.718L200.305 218.712L200.011 218.201C198.438 215.456 197.4 212.437 196.952 209.305L196.683 207.419L196.542 205.776C196.427 204.428 196.636 203.072 197.151 201.821C197.667 200.57 198.475 199.46 199.507 198.585L200.764 197.519L202.178 196.498C203.848 195.293 205.659 194.299 207.572 193.538L209.092 192.934C211.208 192.092 213.569 192.107 215.675 192.975L217.108 193.566L218.252 194.037C219.577 194.583 220.809 195.334 221.903 196.261C223.507 197.622 224.777 199.332 225.616 201.261L225.758 201.586L226.969 203.554C227.613 204.602 228.573 205.419 229.71 205.888L230.994 206.417Z" fill="#5B5362"/>
<path d="M236.163 207.177C236.222 206.181 235.226 205.46 234.298 205.829L232.791 206.428C232.214 206.658 231.569 206.654 230.994 206.417L229.71 205.888C228.573 205.419 227.613 204.602 226.969 203.554L225.758 201.586L225.616 201.261C224.777 199.332 223.507 197.622 221.903 196.261C220.809 195.334 219.577 194.583 218.252 194.037L217.108 193.566L215.675 192.975C213.569 192.107 211.208 192.092 209.092 192.934L207.572 193.538C205.659 194.299 203.848 195.293 202.178 196.498L200.764 197.519L199.507 198.585C198.475 199.46 197.667 200.57 197.151 201.821C196.636 203.072 196.427 204.428 196.542 205.776L196.683 207.419L196.952 209.305C197.4 212.437 198.438 215.456 200.011 218.201L200.305 218.712L200.923 219.718C201.966 221.414 203.369 222.86 205.032 223.956C205.758 224.434 206.528 224.841 207.332 225.173L210.357 226.42C211.709 226.977 213.171 227.221 214.631 227.133C215.66 227.071 216.672 226.846 217.63 226.465L220.584 225.29L220.936 225.102C223.756 223.6 225.964 221.163 227.182 218.209L228.751 214.402L229.331 212.995C229.953 211.487 231.259 210.367 232.845 209.984L233.192 209.9C233.983 209.708 234.695 209.279 235.233 208.668L235.825 207.997C236.026 207.769 236.145 207.481 236.163 207.177Z" fill="#1C1A1B"/>
<path fill-rule="evenodd" clip-rule="evenodd" d="M251.089 188.631C250.543 187.375 249.895 186.166 249.151 185.017L247.28 182.127C246.652 181.156 245.949 180.235 245.179 179.372C244.274 178.359 243.28 177.429 242.208 176.596L241.625 176.142C239.846 174.759 237.889 173.622 235.805 172.763L232.656 171.465L230.626 170.628C228.843 169.893 226.969 169.403 225.055 169.17C222.904 168.909 220.725 168.976 218.594 169.369L218.175 169.446C216.62 169.733 215.097 170.172 213.628 170.756L209.237 172.502L205.085 174.536C203.251 175.434 201.536 176.557 199.978 177.878C197.788 179.735 195.939 181.96 194.514 184.453L193.37 186.453L191.173 191.784L190.103 194.379C189.561 195.692 189.133 197.05 188.822 198.436L188.192 201.246L187.551 205.081C187.145 207.512 187.101 209.99 187.419 212.433L187.736 214.863C187.941 216.432 188.294 217.978 188.791 219.48L189.084 220.367C189.752 222.388 190.676 224.315 191.833 226.102L194.024 229.487L195.875 232.156C196.944 233.699 198.184 235.116 199.571 236.38L200.717 237.425C202.122 238.707 203.668 239.824 205.327 240.755L208.806 242.708L216.667 245.948L219.358 246.733C222.46 247.638 225.708 247.933 228.922 247.601L229.248 247.568C231.538 247.332 233.784 246.78 235.923 245.93L237.371 245.354C239.381 244.554 241.28 243.497 243.018 242.209L245.454 240.403C248.234 238.343 250.556 235.729 252.273 232.725L252.966 231.511L256.106 223.896L257.104 220.382C257.794 217.954 258.112 215.435 258.048 212.912L257.984 210.416L257.377 206.165C257.151 204.585 256.774 203.029 256.252 201.521L254.518 196.514L251.089 188.631ZM230.994 206.417C231.569 206.654 232.214 206.658 232.791 206.428L234.298 205.829C235.226 205.46 236.222 206.181 236.163 207.177C236.145 207.481 236.026 207.769 235.825 207.997L235.233 208.668C234.695 209.279 233.983 209.708 233.192 209.9L232.845 209.984C231.259 210.367 229.953 211.487 229.331 212.995L228.751 214.402L227.182 218.209C225.964 221.163 223.756 223.6 220.936 225.102L220.584 225.29L217.63 226.465C216.672 226.846 215.66 227.071 214.631 227.133C213.171 227.221 211.709 226.977 210.357 226.42L207.332 225.173C206.528 224.841 205.758 224.434 205.032 223.956C203.369 222.86 201.966 221.414 200.923 219.718L200.305 218.712L200.011 218.201C198.438 215.456 197.4 212.437 196.952 209.305L196.683 207.419L196.542 205.776C196.427 204.428 196.636 203.072 197.151 201.821C197.667 200.57 198.475 199.46 199.507 198.585L200.764 197.519L202.178 196.498C203.848 195.293 205.659 194.299 207.572 193.538L209.092 192.934C211.208 192.092 213.569 192.107 215.675 192.975L217.108 193.566L218.252 194.037C219.577 194.583 220.809 195.334 221.903 196.261C223.507 197.622 224.777 199.332 225.616 201.261L225.758 201.586L226.969 203.554C227.613 204.602 228.573 205.419 229.71 205.888L230.994 206.417Z" stroke="black"/>
<path d="M236.163 207.177C236.222 206.181 235.226 205.46 234.298 205.829L232.791 206.428C232.214 206.658 231.569 206.654 230.994 206.417L229.71 205.888C228.573 205.419 227.613 204.602 226.969 203.554L225.758 201.586L225.616 201.261C224.777 199.332 223.507 197.622 221.903 196.261C220.809 195.334 219.577 194.583 218.252 194.037L217.108 193.566L215.675 192.975C213.569 192.107 211.208 192.092 209.092 192.934L207.572 193.538C205.659 194.299 203.848 195.293 202.178 196.498L200.764 197.519L199.507 198.585C198.475 199.46 197.667 200.57 197.151 201.821C196.636 203.072 196.427 204.428 196.542 205.776L196.683 207.419L196.952 209.305C197.4 212.437 198.438 215.456 200.011 218.201L200.305 218.712L200.923 219.718C201.966 221.414 203.369 222.86 205.032 223.956C205.758 224.434 206.528 224.841 207.332 225.173L210.357 226.42C211.709 226.977 213.171 227.221 214.631 227.133C215.66 227.071 216.672 226.846 217.63 226.465L220.584 225.29L220.936 225.102C223.756 223.6 225.964 221.163 227.182 218.209L228.751 214.402L229.331 212.995C229.953 211.487 231.259 210.367 232.845 209.984L233.192 209.9C233.983 209.708 234.695 209.279 235.233 208.668L235.825 207.997C236.026 207.769 236.145 207.481 236.163 207.177Z" stroke="black"/>
<path d="M137.782 170.287C136.354 170.644 135.05 171.383 134.009 172.424L133.858 172.575C133.444 172.989 133.072 173.443 132.747 173.93L132.284 174.624C131.869 175.246 131.539 175.921 131.303 176.63C131.017 177.488 130.871 178.387 130.871 179.291V179.502C130.871 180.538 131.112 181.561 131.576 182.488L131.949 183.234C132.279 183.894 132.713 184.496 133.235 185.018C133.757 185.54 134.36 185.975 135.02 186.305L135.766 186.678C136.693 187.141 137.715 187.383 138.752 187.383H139.543C140.065 187.383 140.584 187.319 141.089 187.192C142.628 186.808 143.968 185.863 144.847 184.544L145.057 184.23L145.928 182.488C146.391 181.561 146.633 180.538 146.633 179.502V177.926C146.633 176.889 146.391 175.867 145.928 174.94L145.555 174.194C145.225 173.534 144.79 172.931 144.268 172.409C143.746 171.887 143.144 171.453 142.484 171.123L141.255 170.508C140.645 170.204 139.973 170.045 139.292 170.045C138.933 170.045 138.576 170.089 138.228 170.176L137.782 170.287Z" fill="#FFFEFF" stroke="black"/>
<path d="M209.503 194.717C208.075 195.074 206.77 195.812 205.73 196.853L205.579 197.004C205.165 197.418 204.792 197.872 204.468 198.359L204.005 199.053C203.59 199.675 203.26 200.35 203.024 201.06C202.738 201.918 202.592 202.816 202.592 203.72V203.931C202.592 204.968 202.833 205.99 203.297 206.917L203.67 207.663C204 208.323 204.434 208.926 204.956 209.448C205.478 209.97 206.081 210.404 206.741 210.734L207.487 211.107C208.414 211.571 209.436 211.812 210.473 211.812H211.264C211.785 211.812 212.304 211.748 212.81 211.622C214.349 211.237 215.689 210.293 216.568 208.973L216.777 208.66L217.649 206.917C218.112 205.99 218.353 204.968 218.353 203.931V202.355C218.353 201.318 218.112 200.296 217.649 199.369L217.276 198.623C216.946 197.963 216.511 197.36 215.989 196.838C215.467 196.316 214.864 195.882 214.204 195.552L212.975 194.937C212.366 194.633 211.694 194.474 211.013 194.474C210.654 194.474 210.297 194.518 209.949 194.605L209.503 194.717Z" fill="#FFFEFF" stroke="black"/>
<path fill-rule="evenodd" clip-rule="evenodd" d="M143.737 253.662C148.173 259.314 153.848 261.803 159.934 260.767C167.118 259.545 167.891 261.112 161.053 263.037C154.268 264.948 148.324 262.739 143.853 256.644C139.731 251.026 139.632 248.429 143.737 253.662Z" fill="black"/>
<path d="M170.187 202.25C164.12 200.269 158.427 198.833 157.534 199.059C155.282 199.631 157.505 208.859 161.053 213.666C162.669 215.856 163.498 218.469 162.893 219.475C161.695 221.67 159.86 223.45 157.631 224.583L156.398 225.209L151.783 228.285C151.708 228.335 151.64 228.397 151.583 228.469C151.045 229.147 151.712 230.111 152.536 229.848L157.186 228.361L161.783 226.829C161.87 226.8 161.955 226.764 162.038 226.723C162.879 226.303 163.9 226.544 164.465 227.296L165.854 229.149L169.705 233.597C169.862 233.777 170.08 233.892 170.317 233.919C170.879 233.982 171.371 233.542 171.371 232.976L171.371 232.093C171.371 231.717 171.249 231.351 171.023 231.05L169.007 228.361L167.722 226.754C166.568 225.312 166.278 223.361 166.964 221.646L167.011 221.529C167.287 220.84 167.725 220.228 168.287 219.743C169.339 218.84 170.772 218.371 172.087 217.931C176.215 216.552 183.953 212.002 185.255 209.841C186.353 208.017 183.599 206.63 170.187 202.25Z" fill="black"/>
<path fill-rule="evenodd" clip-rule="evenodd" d="M242.785 84.9312C241.776 84.9312 240.808 85.3321 240.094 86.0457L239.633 86.5073L238.057 88.0835L237.595 88.5451C236.881 89.2587 236.48 90.2266 236.48 91.2358V92.0239V93.6V95.1762V95.6378C236.48 96.3515 236.764 97.0358 237.269 97.5404L238.057 98.3285L238.337 98.609C238.673 98.9452 239.062 99.225 239.487 99.4377C240.101 99.7448 240.778 99.9047 241.465 99.9047H241.997H244.361H245.937H246.726C247.735 99.9047 248.703 99.5038 249.416 98.7902L249.434 98.7722C249.728 98.4783 249.973 98.139 250.158 97.7673L250.666 96.7524C251.184 95.7158 251.454 94.5729 251.454 93.414V92.812V90.4477C251.454 89.4385 251.053 88.4707 250.339 87.757L249.878 87.2954L248.809 86.2269C248.473 85.8906 248.085 85.6108 247.66 85.3982C247.045 85.0911 246.368 84.9312 245.681 84.9312H244.361H242.785ZM243.874 86.5883C243.453 86.6151 243.034 86.6726 242.621 86.7604L241.665 86.9637L241.241 87.1129C240.752 87.2847 240.307 87.5608 239.936 87.9221C239.519 88.3278 239.208 88.8292 239.029 89.3827L238.819 90.0349C238.616 90.6627 238.513 91.3183 238.513 91.9779V93.3466V93.6748C238.513 94.4885 238.754 95.2841 239.205 95.9611C239.774 96.8143 240.64 97.4248 241.635 97.6735L242.48 97.8848C242.986 98.0112 243.505 98.0751 244.026 98.0751H245.606H246.451C246.932 98.0751 247.406 97.9632 247.835 97.7484C248.434 97.4489 248.92 96.9632 249.219 96.3643C249.434 95.9346 249.546 95.4607 249.546 94.9803V94.1347V92.5585V91.2386C249.546 90.5518 249.386 89.8745 249.079 89.2602C248.866 88.8349 248.587 88.4467 248.25 88.1105L248.039 87.8993C247.428 87.2878 246.657 86.8595 245.815 86.6628C245.374 86.5597 244.919 86.5219 244.467 86.5507L243.874 86.5883Z" fill="#0A0000"/>
<path d="M242.621 86.7604C243.034 86.6726 243.453 86.6151 243.874 86.5883L244.467 86.5507C244.919 86.5219 245.374 86.5597 245.815 86.6628C246.657 86.8595 247.428 87.2878 248.039 87.8993L248.25 88.1105C248.587 88.4467 248.866 88.8349 249.079 89.2602C249.386 89.8745 249.546 90.5518 249.546 91.2386V92.5585V94.1347V94.9803C249.546 95.4607 249.434 95.9346 249.219 96.3643C248.92 96.9632 248.434 97.4489 247.835 97.7484C247.406 97.9632 246.932 98.0751 246.451 98.0751H245.606H244.026C243.505 98.0751 242.986 98.0112 242.48 97.8848L241.635 97.6735C240.64 97.4248 239.774 96.8143 239.205 95.9611C238.754 95.2841 238.513 94.4885 238.513 93.6748V93.3466V91.9779C238.513 91.3183 238.616 90.6627 238.819 90.0349L239.029 89.3827C239.208 88.8292 239.519 88.3278 239.936 87.9221C240.307 87.5608 240.752 87.2847 241.241 87.1129L241.665 86.9637L242.621 86.7604Z" fill="#D64B66"/>
<path fill-rule="evenodd" clip-rule="evenodd" d="M242.785 84.9312C241.776 84.9312 240.808 85.3321 240.094 86.0457L239.633 86.5073L238.057 88.0835L237.595 88.5451C236.881 89.2587 236.48 90.2266 236.48 91.2358V92.0239V93.6V95.1762V95.6378C236.48 96.3515 236.764 97.0358 237.269 97.5404L238.057 98.3285L238.337 98.609C238.673 98.9452 239.062 99.225 239.487 99.4377C240.101 99.7448 240.778 99.9047 241.465 99.9047H241.997H244.361H245.937H246.726C247.735 99.9047 248.703 99.5038 249.416 98.7902L249.434 98.7722C249.728 98.4783 249.973 98.139 250.158 97.7673L250.666 96.7524C251.184 95.7158 251.454 94.5729 251.454 93.414V92.812V90.4477C251.454 89.4385 251.053 88.4707 250.339 87.757L249.878 87.2954L248.809 86.2269C248.473 85.8906 248.085 85.6108 247.66 85.3982C247.045 85.0911 246.368 84.9312 245.681 84.9312H244.361H242.785ZM243.874 86.5883C243.453 86.6151 243.034 86.6726 242.621 86.7604L241.665 86.9637L241.241 87.1129C240.752 87.2847 240.307 87.5608 239.936 87.9221C239.519 88.3278 239.208 88.8292 239.029 89.3827L238.819 90.0349C238.616 90.6627 238.513 91.3183 238.513 91.9779V93.3466V93.6748C238.513 94.4885 238.754 95.2841 239.205 95.9611C239.774 96.8143 240.64 97.4248 241.635 97.6735L242.48 97.8848C242.986 98.0112 243.505 98.0751 244.026 98.0751H245.606H246.451C246.932 98.0751 247.406 97.9632 247.835 97.7484C248.434 97.4489 248.92 96.9632 249.219 96.3643C249.434 95.9346 249.546 95.4607 249.546 94.9803V94.1347V92.5585V91.2386C249.546 90.5518 249.386 89.8745 249.079 89.2602C248.866 88.8349 248.587 88.4467 248.25 88.1105L248.039 87.8993C247.428 87.2878 246.657 86.8595 245.815 86.6628C245.374 86.5597 244.919 86.5219 244.467 86.5507L243.874 86.5883Z" stroke="black"/>
<path d="M242.621 86.7604C243.034 86.6726 243.453 86.6151 243.874 86.5883L244.467 86.5507C244.919 86.5219 245.374 86.5597 245.815 86.6628C246.657 86.8595 247.428 87.2878 248.039 87.8993L248.25 88.1105C248.587 88.4467 248.866 88.8349 249.079 89.2602C249.386 89.8745 249.546 90.5518 249.546 91.2386V92.5585V94.1347V94.9803C249.546 95.4607 249.434 95.9346 249.219 96.3643C248.92 96.9632 248.434 97.4489 247.835 97.7484C247.406 97.9632 246.932 98.0751 246.451 98.0751H245.606H244.026C243.505 98.0751 242.986 98.0112 242.48 97.8848L241.635 97.6735C240.64 97.4248 239.774 96.8143 239.205 95.9611C238.754 95.2841 238.513 94.4885 238.513 93.6748V93.3466V91.9779C238.513 91.3183 238.616 90.6627 238.819 90.0349L239.029 89.3827C239.208 88.8292 239.519 88.3278 239.936 87.9221C240.307 87.5608 240.752 87.2847 241.241 87.1129L241.665 86.9637L242.621 86.7604Z" stroke="black"/>
<path fill-rule="evenodd" clip-rule="evenodd" d="M178.187 60.501C177.55 60.501 176.938 60.7542 176.488 61.2049L176.196 61.4964L175.201 62.4919L174.909 62.7835C174.458 63.2342 174.205 63.8455 174.205 64.4829V64.9806V65.9761V66.9715V67.2631C174.205 67.7138 174.384 68.146 174.703 68.4647L175.201 68.9625L175.378 69.1396C175.59 69.352 175.835 69.5287 176.104 69.663C176.492 69.857 176.92 69.9579 177.353 69.9579H177.689H179.182H180.178H180.676C181.313 69.9579 181.924 69.7047 182.375 69.254L182.386 69.2427C182.572 69.0571 182.726 68.8428 182.844 68.608L183.164 67.967C183.492 67.3124 183.662 66.5905 183.662 65.8586V65.4783V63.9851C183.662 63.3477 183.409 62.7365 182.958 62.2857L182.667 61.9942L181.992 61.3193C181.779 61.107 181.534 60.9302 181.266 60.7959C180.878 60.602 180.45 60.501 180.016 60.501H179.182H178.187ZM178.875 61.5476C178.609 61.5645 178.344 61.6008 178.084 61.6563L177.48 61.7847L177.212 61.8789C176.903 61.9874 176.622 62.1618 176.387 62.39C176.124 62.6462 175.928 62.9629 175.815 63.3125L175.682 63.7244C175.554 64.1209 175.489 64.5349 175.489 64.9515V65.816V66.0233C175.489 66.5372 175.641 67.0397 175.926 67.4673C176.285 68.0061 176.832 68.3917 177.461 68.5488L177.994 68.6822C178.314 68.762 178.642 68.8024 178.971 68.8024H179.968H180.502C180.806 68.8024 181.105 68.7318 181.377 68.5961C181.755 68.4069 182.062 68.1002 182.251 67.7219C182.386 67.4505 182.457 67.1512 182.457 66.8478V66.3137V65.3183V64.4846C182.457 64.0509 182.356 63.6231 182.162 63.2351C182.028 62.9665 181.851 62.7213 181.639 62.509L181.505 62.3756C181.119 61.9894 180.633 61.7189 180.101 61.5947C179.822 61.5295 179.535 61.5057 179.249 61.5238L178.875 61.5476Z" fill="#0A0000"/>
<path d="M178.084 61.6563C178.344 61.6008 178.609 61.5645 178.875 61.5476L179.249 61.5238C179.535 61.5057 179.822 61.5295 180.101 61.5947C180.633 61.7189 181.119 61.9894 181.505 62.3756L181.639 62.509C181.851 62.7213 182.028 62.9665 182.162 63.2351C182.356 63.6231 182.457 64.0509 182.457 64.4846V65.3183V66.3137V66.8478C182.457 67.1512 182.386 67.4505 182.251 67.7219C182.062 68.1002 181.755 68.4069 181.377 68.5961C181.105 68.7318 180.806 68.8024 180.502 68.8024H179.968H178.971C178.642 68.8024 178.314 68.762 177.994 68.6822L177.461 68.5488C176.832 68.3917 176.285 68.0061 175.926 67.4673C175.641 67.0397 175.489 66.5372 175.489 66.0233V65.816V64.9515C175.489 64.5349 175.554 64.1209 175.682 63.7244L175.815 63.3125C175.928 62.9629 176.124 62.6462 176.387 62.39C176.622 62.1618 176.903 61.9874 177.212 61.8789L177.48 61.7847L178.084 61.6563Z" fill="#D64B66"/>
<path fill-rule="evenodd" clip-rule="evenodd" d="M178.187 60.501C177.55 60.501 176.938 60.7542 176.488 61.2049L176.196 61.4964L175.201 62.4919L174.909 62.7835C174.458 63.2342 174.205 63.8455 174.205 64.4829V64.9806V65.9761V66.9715V67.2631C174.205 67.7138 174.384 68.146 174.703 68.4647L175.201 68.9625L175.378 69.1396C175.59 69.352 175.835 69.5287 176.104 69.663C176.492 69.857 176.92 69.9579 177.353 69.9579H177.689H179.182H180.178H180.676C181.313 69.9579 181.924 69.7047 182.375 69.254L182.386 69.2427C182.572 69.0571 182.726 68.8428 182.844 68.608L183.164 67.967C183.492 67.3124 183.662 66.5905 183.662 65.8586V65.4783V63.9851C183.662 63.3477 183.409 62.7365 182.958 62.2857L182.667 61.9942L181.992 61.3193C181.779 61.107 181.534 60.9302 181.266 60.7959C180.878 60.602 180.45 60.501 180.016 60.501H179.182H178.187ZM178.875 61.5476C178.609 61.5645 178.344 61.6008 178.084 61.6563L177.48 61.7847L177.212 61.8789C176.903 61.9874 176.622 62.1618 176.387 62.39C176.124 62.6462 175.928 62.9629 175.815 63.3125L175.682 63.7244C175.554 64.1209 175.489 64.5349 175.489 64.9515V65.816V66.0233C175.489 66.5372 175.641 67.0397 175.926 67.4673C176.285 68.0061 176.832 68.3917 177.461 68.5488L177.994 68.6822C178.314 68.762 178.642 68.8024 178.971 68.8024H179.968H180.502C180.806 68.8024 181.105 68.7318 181.377 68.5961C181.755 68.4069 182.062 68.1002 182.251 67.7219C182.386 67.4505 182.457 67.1512 182.457 66.8478V66.3137V65.3183V64.4846C182.457 64.0509 182.356 63.6231 182.162 63.2351C182.028 62.9665 181.851 62.7213 181.639 62.509L181.505 62.3756C181.119 61.9894 180.633 61.7189 180.101 61.5947C179.822 61.5295 179.535 61.5057 179.249 61.5238L178.875 61.5476Z" stroke="black"/>
<path d="M178.084 61.6563C178.344 61.6008 178.609 61.5645 178.875 61.5476L179.249 61.5238C179.535 61.5057 179.822 61.5295 180.101 61.5947C180.633 61.7189 181.119 61.9894 181.505 62.3756L181.639 62.509C181.851 62.7213 182.028 62.9665 182.162 63.2351C182.356 63.6231 182.457 64.0509 182.457 64.4846V65.3183V66.3137V66.8478C182.457 67.1512 182.386 67.4505 182.251 67.7219C182.062 68.1002 181.755 68.4069 181.377 68.5961C181.105 68.7318 180.806 68.8024 180.502 68.8024H179.968H178.971C178.642 68.8024 178.314 68.762 177.994 68.6822L177.461 68.5488C176.832 68.3917 176.285 68.0061 175.926 67.4673C175.641 67.0397 175.489 66.5372 175.489 66.0233V65.816V64.9515C175.489 64.5349 175.554 64.1209 175.682 63.7244L175.815 63.3125C175.928 62.9629 176.124 62.6462 176.387 62.39C176.622 62.1618 176.903 61.9874 177.212 61.8789L177.48 61.7847L178.084 61.6563Z" stroke="black"/>
<path fill-rule="evenodd" clip-rule="evenodd" d="M55.9248 147.19C55.1812 147.19 54.468 147.486 53.9422 148.012L53.6021 148.352L52.4407 149.513L52.1005 149.853C51.5747 150.379 51.2793 151.092 51.2793 151.836V152.417V153.578V154.739V155.08C51.2793 155.605 51.4882 156.11 51.86 156.481L52.4407 157.062L52.6473 157.269C52.8951 157.517 53.1811 157.723 53.4945 157.879C53.9471 158.106 54.4462 158.224 54.9523 158.224H55.3441H57.0862H58.2476H58.8283C59.5719 158.224 60.2851 157.928 60.8109 157.402L60.8241 157.389C61.0407 157.173 61.2209 156.923 61.3578 156.649L61.7317 155.901C62.1136 155.137 62.3124 154.295 62.3124 153.441V152.997V151.255C62.3124 150.512 62.017 149.798 61.4912 149.273L61.151 148.933L60.3637 148.145C60.116 147.897 59.8299 147.691 59.5165 147.535C59.0639 147.308 58.5648 147.19 58.0588 147.19H57.0862H55.9248ZM56.7274 148.411C56.417 148.431 56.1084 148.474 55.8041 148.538L55.0997 148.688L54.787 148.798C54.4269 148.925 54.0987 149.128 53.8252 149.394C53.5182 149.693 53.2889 150.063 53.1573 150.47L53.0022 150.951C52.853 151.414 52.777 151.897 52.777 152.383V153.391V153.633C52.777 154.233 52.9545 154.819 53.2871 155.318C53.7061 155.946 54.3445 156.396 55.0775 156.58L55.7001 156.735C56.0727 156.828 56.4553 156.875 56.8394 156.875H58.0032H58.6262C58.9803 156.875 59.3294 156.793 59.6461 156.635C60.0874 156.414 60.4452 156.056 60.6659 155.615C60.8242 155.298 60.9067 154.949 60.9067 154.595V153.972V152.811V151.838C60.9067 151.332 60.7888 150.833 60.5625 150.38C60.4058 150.067 60.1997 149.781 59.9519 149.533L59.7963 149.377C59.3457 148.927 58.7781 148.611 58.1575 148.466C57.8322 148.39 57.4975 148.363 57.1641 148.384L56.7274 148.411Z" fill="#0A0000"/>
<path d="M55.8041 148.538C56.1084 148.474 56.417 148.431 56.7274 148.411L57.1641 148.384C57.4975 148.363 57.8322 148.39 58.1575 148.466C58.7781 148.611 59.3457 148.927 59.7963 149.377L59.9519 149.533C60.1997 149.781 60.4058 150.067 60.5625 150.38C60.7888 150.833 60.9067 151.332 60.9067 151.838V152.811V153.972V154.595C60.9067 154.949 60.8242 155.298 60.6659 155.615C60.4452 156.056 60.0874 156.414 59.6461 156.635C59.3294 156.793 58.9803 156.875 58.6262 156.875H58.0032H56.8394C56.4553 156.875 56.0727 156.828 55.7001 156.735L55.0775 156.58C54.3445 156.396 53.7061 155.946 53.2871 155.318C52.9545 154.819 52.777 154.233 52.777 153.633V153.391V152.383C52.777 151.897 52.853 151.414 53.0022 150.951L53.1573 150.47C53.2889 150.063 53.5182 149.693 53.8252 149.394C54.0987 149.128 54.4269 148.925 54.787 148.798L55.0997 148.688L55.8041 148.538Z" fill="#D64B66"/>
<path fill-rule="evenodd" clip-rule="evenodd" d="M55.9248 147.19C55.1812 147.19 54.468 147.486 53.9422 148.012L53.6021 148.352L52.4407 149.513L52.1005 149.853C51.5747 150.379 51.2793 151.092 51.2793 151.836V152.417V153.578V154.739V155.08C51.2793 155.605 51.4882 156.11 51.86 156.481L52.4407 157.062L52.6473 157.269C52.8951 157.517 53.1811 157.723 53.4945 157.879C53.9471 158.106 54.4462 158.224 54.9523 158.224H55.3441H57.0862H58.2476H58.8283C59.5719 158.224 60.2851 157.928 60.8109 157.402L60.8241 157.389C61.0407 157.173 61.2209 156.923 61.3578 156.649L61.7317 155.901C62.1136 155.137 62.3124 154.295 62.3124 153.441V152.997V151.255C62.3124 150.512 62.017 149.798 61.4912 149.273L61.151 148.933L60.3637 148.145C60.116 147.897 59.8299 147.691 59.5165 147.535C59.0639 147.308 58.5648 147.19 58.0588 147.19H57.0862H55.9248ZM56.7274 148.411C56.417 148.431 56.1084 148.474 55.8041 148.538L55.0997 148.688L54.787 148.798C54.4269 148.925 54.0987 149.128 53.8252 149.394C53.5182 149.693 53.2889 150.063 53.1573 150.47L53.0022 150.951C52.853 151.414 52.777 151.897 52.777 152.383V153.391V153.633C52.777 154.233 52.9545 154.819 53.2871 155.318C53.7061 155.946 54.3445 156.396 55.0775 156.58L55.7001 156.735C56.0727 156.828 56.4553 156.875 56.8394 156.875H58.0032H58.6262C58.9803 156.875 59.3294 156.793 59.6461 156.635C60.0874 156.414 60.4452 156.056 60.6659 155.615C60.8242 155.298 60.9067 154.949 60.9067 154.595V153.972V152.811V151.838C60.9067 151.332 60.7888 150.833 60.5625 150.38C60.4058 150.067 60.1997 149.781 59.9519 149.533L59.7963 149.377C59.3457 148.927 58.7781 148.611 58.1575 148.466C57.8322 148.39 57.4975 148.363 57.1641 148.384L56.7274 148.411Z" stroke="black"/>
<path d="M55.8041 148.538C56.1084 148.474 56.417 148.431 56.7274 148.411L57.1641 148.384C57.4975 148.363 57.8322 148.39 58.1575 148.466C58.7781 148.611 59.3457 148.927 59.7963 149.377L59.9519 149.533C60.1997 149.781 60.4058 150.067 60.5625 150.38C60.7888 150.833 60.9067 151.332 60.9067 151.838V152.811V153.972V154.595C60.9067 154.949 60.8242 155.298 60.6659 155.615C60.4452 156.056 60.0874 156.414 59.6461 156.635C59.3294 156.793 58.9803 156.875 58.6262 156.875H58.0032H56.8394C56.4553 156.875 56.0727 156.828 55.7001 156.735L55.0775 156.58C54.3445 156.396 53.7061 155.946 53.2871 155.318C52.9545 154.819 52.777 154.233 52.777 153.633V153.391V152.383C52.777 151.897 52.853 151.414 53.0022 150.951L53.1573 150.47C53.2889 150.063 53.5182 149.693 53.8252 149.394C54.0987 149.128 54.4269 148.925 54.787 148.798L55.0997 148.688L55.8041 148.538Z" stroke="black"/>
<path fill-rule="evenodd" clip-rule="evenodd" d="M56.8413 252.795C56.2039 252.795 55.5926 253.048 55.1419 253.499L54.8503 253.79L53.8548 254.786L53.5633 255.077C53.1126 255.528 52.8594 256.139 52.8594 256.777V257.275V258.27V259.265V259.557C52.8594 260.008 53.0384 260.44 53.3571 260.759L53.8548 261.256L54.032 261.434C54.2443 261.646 54.4895 261.823 54.7581 261.957C55.1461 262.151 55.5739 262.252 56.0076 262.252H56.3435H57.8367H58.8322H59.3299C59.9673 262.252 60.5786 261.999 61.0293 261.548L61.0407 261.537C61.2263 261.351 61.3807 261.137 61.4981 260.902L61.8186 260.261C62.1459 259.606 62.3163 258.884 62.3163 258.153V257.772V256.279C62.3163 255.642 62.0631 255.03 61.6124 254.58L61.3209 254.288L60.646 253.613C60.4337 253.401 60.1885 253.224 59.9199 253.09C59.5319 252.896 59.1041 252.795 58.6704 252.795H57.8367H56.8413ZM57.5292 253.842C57.2631 253.858 56.9986 253.895 56.7378 253.95L56.134 254.079L55.866 254.173C55.5574 254.281 55.276 254.456 55.0416 254.684C54.7784 254.94 54.5819 255.257 54.4691 255.606L54.3362 256.018C54.2082 256.415 54.1431 256.829 54.1431 257.245V258.11V258.317C54.1431 258.831 54.2952 259.334 54.5803 259.761C54.9395 260.3 55.4867 260.686 56.1149 260.843L56.6487 260.976C56.968 261.056 57.296 261.096 57.6252 261.096H58.6227H59.1568C59.4602 261.096 59.7595 261.026 60.0309 260.89C60.4092 260.701 60.7159 260.394 60.905 260.016C61.0407 259.744 61.1114 259.445 61.1114 259.142V258.608V257.612V256.779C61.1114 256.345 61.0104 255.917 60.8164 255.529C60.6821 255.26 60.5054 255.015 60.2931 254.803L60.1597 254.67C59.7735 254.283 59.2869 254.013 58.755 253.889C58.4762 253.823 58.1892 253.8 57.9035 253.818L57.5292 253.842Z" fill="#0A0000"/>
<path d="M56.7378 253.95C56.9986 253.895 57.2631 253.858 57.5292 253.842L57.9035 253.818C58.1892 253.8 58.4762 253.823 58.755 253.889C59.2869 254.013 59.7735 254.283 60.1597 254.67L60.2931 254.803C60.5054 255.015 60.6821 255.26 60.8164 255.529C61.0104 255.917 61.1114 256.345 61.1114 256.779V257.612V258.608V259.142C61.1114 259.445 61.0407 259.744 60.905 260.016C60.7159 260.394 60.4092 260.701 60.0309 260.89C59.7595 261.026 59.4602 261.096 59.1568 261.096H58.6227H57.6252C57.296 261.096 56.968 261.056 56.6487 260.976L56.1149 260.843C55.4867 260.686 54.9395 260.3 54.5803 259.761C54.2952 259.334 54.1431 258.831 54.1431 258.317V258.11V257.245C54.1431 256.829 54.2082 256.415 54.3362 256.018L54.4691 255.606C54.5819 255.257 54.7784 254.94 55.0416 254.684C55.276 254.456 55.5574 254.281 55.866 254.173L56.134 254.079L56.7378 253.95Z" fill="#D64B66"/>
<path fill-rule="evenodd" clip-rule="evenodd" d="M56.8413 252.795C56.2039 252.795 55.5926 253.048 55.1419 253.499L54.8503 253.79L53.8548 254.786L53.5633 255.077C53.1126 255.528 52.8594 256.139 52.8594 256.777V257.275V258.27V259.265V259.557C52.8594 260.008 53.0384 260.44 53.3571 260.759L53.8548 261.256L54.032 261.434C54.2443 261.646 54.4895 261.823 54.7581 261.957C55.1461 262.151 55.5739 262.252 56.0076 262.252H56.3435H57.8367H58.8322H59.3299C59.9673 262.252 60.5786 261.999 61.0293 261.548L61.0407 261.537C61.2263 261.351 61.3807 261.137 61.4981 260.902L61.8186 260.261C62.1459 259.606 62.3163 258.884 62.3163 258.153V257.772V256.279C62.3163 255.642 62.0631 255.03 61.6124 254.58L61.3209 254.288L60.646 253.613C60.4337 253.401 60.1885 253.224 59.9199 253.09C59.5319 252.896 59.1041 252.795 58.6704 252.795H57.8367H56.8413ZM57.5292 253.842C57.2631 253.858 56.9986 253.895 56.7378 253.95L56.134 254.079L55.866 254.173C55.5574 254.281 55.276 254.456 55.0416 254.684C54.7784 254.94 54.5819 255.257 54.4691 255.606L54.3362 256.018C54.2082 256.415 54.1431 256.829 54.1431 257.245V258.11V258.317C54.1431 258.831 54.2952 259.334 54.5803 259.761C54.9395 260.3 55.4867 260.686 56.1149 260.843L56.6487 260.976C56.968 261.056 57.296 261.096 57.6252 261.096H58.6227H59.1568C59.4602 261.096 59.7595 261.026 60.0309 260.89C60.4092 260.701 60.7159 260.394 60.905 260.016C61.0407 259.744 61.1114 259.445 61.1114 259.142V258.608V257.612V256.779C61.1114 256.345 61.0104 255.917 60.8164 255.529C60.6821 255.26 60.5054 255.015 60.2931 254.803L60.1597 254.67C59.7735 254.283 59.2869 254.013 58.755 253.889C58.4762 253.823 58.1892 253.8 57.9035 253.818L57.5292 253.842Z" stroke="black"/>
<path d="M56.7378 253.95C56.9986 253.895 57.2631 253.858 57.5292 253.842L57.9035 253.818C58.1892 253.8 58.4762 253.823 58.755 253.889C59.2869 254.013 59.7735 254.283 60.1597 254.67L60.2931 254.803C60.5054 255.015 60.6821 255.26 60.8164 255.529C61.0104 255.917 61.1114 256.345 61.1114 256.779V257.612V258.608V259.142C61.1114 259.445 61.0407 259.744 60.905 260.016C60.7159 260.394 60.4092 260.701 60.0309 260.89C59.7595 261.026 59.4602 261.096 59.1568 261.096H58.6227H57.6252C57.296 261.096 56.968 261.056 56.6487 260.976L56.1149 260.843C55.4867 260.686 54.9395 260.3 54.5803 259.761C54.2952 259.334 54.1431 258.831 54.1431 258.317V258.11V257.245C54.1431 256.829 54.2082 256.415 54.3362 256.018L54.4691 255.606C54.5819 255.257 54.7784 254.94 55.0416 254.684C55.276 254.456 55.5574 254.281 55.866 254.173L56.134 254.079L56.7378 253.95Z" stroke="black"/>
<path fill-rule="evenodd" clip-rule="evenodd" d="M302.72 214.964C302.083 214.964 301.471 215.218 301.021 215.668L300.729 215.96L299.734 216.955L299.442 217.247C298.991 217.698 298.738 218.309 298.738 218.946V219.444V220.439V221.435V221.726C298.738 222.177 298.917 222.609 299.236 222.928L299.734 223.426L299.911 223.603C300.123 223.815 300.368 223.992 300.637 224.126C301.025 224.32 301.453 224.421 301.887 224.421H302.222H303.716H304.711H305.209C305.846 224.421 306.458 224.168 306.908 223.717L306.92 223.706C307.105 223.52 307.26 223.306 307.377 223.071L307.698 222.43C308.025 221.776 308.195 221.054 308.195 220.322V219.942V218.449C308.195 217.811 307.942 217.2 307.491 216.749L307.2 216.458L306.525 215.783C306.313 215.57 306.067 215.394 305.799 215.259C305.411 215.065 304.983 214.964 304.549 214.964H303.716H302.72ZM303.408 216.011C303.142 216.028 302.878 216.064 302.617 216.12L302.013 216.248L301.745 216.342C301.436 216.451 301.155 216.625 300.921 216.853C300.657 217.11 300.461 217.426 300.348 217.776L300.215 218.188C300.087 218.584 300.022 218.998 300.022 219.415V220.279V220.487C300.022 221.001 300.174 221.503 300.459 221.931C300.818 222.469 301.366 222.855 301.994 223.012L302.528 223.146C302.847 223.225 303.175 223.266 303.504 223.266H304.502H305.036C305.339 223.266 305.638 223.195 305.91 223.059C306.288 222.87 306.595 222.564 306.784 222.185C306.92 221.914 306.99 221.615 306.99 221.311V220.777V219.782V218.948C306.99 218.514 306.889 218.086 306.695 217.699C306.561 217.43 306.384 217.185 306.172 216.972L306.039 216.839C305.652 216.453 305.166 216.182 304.634 216.058C304.355 215.993 304.068 215.969 303.782 215.987L303.408 216.011Z" fill="#0A0000"/>
<path d="M302.617 216.12C302.878 216.064 303.142 216.028 303.408 216.011L303.782 215.987C304.068 215.969 304.355 215.993 304.634 216.058C305.166 216.182 305.652 216.453 306.039 216.839L306.172 216.972C306.384 217.185 306.561 217.43 306.695 217.699C306.889 218.086 306.99 218.514 306.99 218.948V219.782V220.777V221.311C306.99 221.615 306.92 221.914 306.784 222.185C306.595 222.564 306.288 222.87 305.91 223.059C305.638 223.195 305.339 223.266 305.036 223.266H304.502H303.504C303.175 223.266 302.847 223.225 302.528 223.146L301.994 223.012C301.366 222.855 300.818 222.469 300.459 221.931C300.174 221.503 300.022 221.001 300.022 220.487V220.279V219.415C300.022 218.998 300.087 218.584 300.215 218.188L300.348 217.776C300.461 217.426 300.657 217.11 300.921 216.853C301.155 216.625 301.436 216.451 301.745 216.342L302.013 216.248L302.617 216.12Z" fill="#D64B66"/>
<path fill-rule="evenodd" clip-rule="evenodd" d="M302.72 214.964C302.083 214.964 301.471 215.218 301.021 215.668L300.729 215.96L299.734 216.955L299.442 217.247C298.991 217.698 298.738 218.309 298.738 218.946V219.444V220.439V221.435V221.726C298.738 222.177 298.917 222.609 299.236 222.928L299.734 223.426L299.911 223.603C300.123 223.815 300.368 223.992 300.637 224.126C301.025 224.32 301.453 224.421 301.887 224.421H302.222H303.716H304.711H305.209C305.846 224.421 306.458 224.168 306.908 223.717L306.92 223.706C307.105 223.52 307.26 223.306 307.377 223.071L307.698 222.43C308.025 221.776 308.195 221.054 308.195 220.322V219.942V218.449C308.195 217.811 307.942 217.2 307.491 216.749L307.2 216.458L306.525 215.783C306.313 215.57 306.067 215.394 305.799 215.259C305.411 215.065 304.983 214.964 304.549 214.964H303.716H302.72ZM303.408 216.011C303.142 216.028 302.878 216.064 302.617 216.12L302.013 216.248L301.745 216.342C301.436 216.451 301.155 216.625 300.921 216.853C300.657 217.11 300.461 217.426 300.348 217.776L300.215 218.188C300.087 218.584 300.022 218.998 300.022 219.415V220.279V220.487C300.022 221.001 300.174 221.503 300.459 221.931C300.818 222.469 301.366 222.855 301.994 223.012L302.528 223.146C302.847 223.225 303.175 223.266 303.504 223.266H304.502H305.036C305.339 223.266 305.638 223.195 305.91 223.059C306.288 222.87 306.595 222.564 306.784 222.185C306.92 221.914 306.99 221.615 306.99 221.311V220.777V219.782V218.948C306.99 218.514 306.889 218.086 306.695 217.699C306.561 217.43 306.384 217.185 306.172 216.972L306.039 216.839C305.652 216.453 305.166 216.182 304.634 216.058C304.355 215.993 304.068 215.969 303.782 215.987L303.408 216.011Z" stroke="black"/>
<path d="M302.617 216.12C302.878 216.064 303.142 216.028 303.408 216.011L303.782 215.987C304.068 215.969 304.355 215.993 304.634 216.058C305.166 216.182 305.652 216.453 306.039 216.839L306.172 216.972C306.384 217.185 306.561 217.43 306.695 217.699C306.889 218.086 306.99 218.514 306.99 218.948V219.782V220.777V221.311C306.99 221.615 306.92 221.914 306.784 222.185C306.595 222.564 306.288 222.87 305.91 223.059C305.638 223.195 305.339 223.266 305.036 223.266H304.502H303.504C303.175 223.266 302.847 223.225 302.528 223.146L301.994 223.012C301.366 222.855 300.818 222.469 300.459 221.931C300.174 221.503 300.022 221.001 300.022 220.487V220.279V219.415C300.022 218.998 300.087 218.584 300.215 218.188L300.348 217.776C300.461 217.426 300.657 217.11 300.921 216.853C301.155 216.625 301.436 216.451 301.745 216.342L302.013 216.248L302.617 216.12Z" stroke="black"/>
<path d="M250.094 83.1604C250.477 83.2883 250.879 83.3535 251.283 83.3535H251.877C254.037 83.3535 256.011 82.1331 256.977 80.2012L259.342 76.2608C261.437 73.6419 263.816 71.2632 266.434 69.1681L268.337 67.646C269.685 66.5677 271.213 65.7363 272.851 65.1905L273.052 65.1234C274.411 64.6705 275.833 64.4396 277.266 64.4396H277.71C279.112 64.4396 280.501 64.1721 281.802 63.6515C283.104 63.1309 284.492 62.8634 285.894 62.8634H286.925H287.104C289.073 62.8634 291.029 62.5459 292.897 61.9232C294.166 61.5005 295.384 60.9403 296.53 60.2525L298.746 58.923L301.09 57.2488C303.18 55.7557 304.922 53.8277 306.197 51.5974C307.005 50.1832 307.615 48.6647 308.01 47.0846L308.248 46.1345C308.741 44.1599 308.991 42.1322 308.991 40.0968V37.6448V35.4871C308.991 32.751 308.435 30.0434 307.357 27.5286C306.871 26.3943 306.282 25.307 305.598 24.2802L305.405 23.9906C304.124 22.0703 302.574 20.3448 300.801 18.8673L298.746 17.1547L298.1 16.6378C295.91 14.8858 293.541 13.37 291.032 12.1157C289.347 11.273 287.604 10.551 285.816 9.95513L283.772 9.27392L281.077 8.50393C279.205 7.96909 277.268 7.69775 275.321 7.69775H271.836C270.875 7.69775 269.927 7.92148 269.068 8.35121L268.522 8.62433C267.678 9.04598 266.995 9.72978 266.573 10.5731C266.481 10.7575 266.402 10.9483 266.337 11.1439L265.951 12.3006C265.749 12.9058 265.646 13.5395 265.646 14.1775C265.646 15.0989 265.861 16.0076 266.273 16.8317L266.3 16.8855C266.899 18.0834 267.87 19.0547 269.068 19.6536C269.927 20.0833 270.875 20.307 271.836 20.307H274.315H275.588C278.391 20.307 281.169 20.842 283.772 21.8832C285.87 22.9319 287.868 24.1671 289.744 25.574L290.077 25.8236L291.297 26.7385C292.579 27.6998 293.717 28.8385 294.679 30.1204L295.009 30.5609C295.398 31.0794 295.739 31.6318 296.029 32.2115C296.779 33.7115 297.17 35.3656 297.17 37.0428V37.6448V38.9625C297.17 40.6787 296.703 42.3626 295.82 43.8342C295.151 44.9498 294.259 45.9156 293.199 46.6711L291.485 47.8944C289.512 49.3011 287.296 50.3297 284.949 50.9279L281.408 51.8303L276.679 52.6184L269.587 54.1945L264.549 55.8738C263.183 56.3291 261.871 56.9325 260.637 57.6732C259.253 58.5033 257.977 59.4999 256.836 60.6407L253.037 64.4396L249.739 68.3977C249.311 68.9105 248.924 69.4555 248.581 70.0279L248.266 70.5517C247.263 72.2247 246.732 74.1391 246.732 76.0901V76.6157C246.732 77.4246 246.863 78.2282 247.119 78.9956L247.714 80.7805C248.088 81.9041 248.97 82.7859 250.094 83.1604Z" fill="#D64B66" stroke="black"/>
<path d="M180.654 56.2807C180.88 56.2128 181.093 56.1089 181.285 55.9731L181.568 55.7739C182.595 55.0487 183.125 53.8052 182.936 52.5618L182.738 49.8934C182.855 47.9441 183.188 46.0138 183.731 44.1378L184.125 42.775C184.404 41.8094 184.852 40.9009 185.448 40.0914L185.521 39.9919C186.016 39.3203 186.615 38.7328 187.296 38.252L187.508 38.1028C188.175 37.6322 188.746 37.0387 189.19 36.3541C189.634 35.6694 190.205 35.0759 190.872 34.6053L191.363 34.2594L191.448 34.1992C192.385 33.5381 193.209 32.7303 193.888 31.8069C194.35 31.18 194.741 30.5045 195.056 29.7925L195.664 28.4161L196.217 26.8327C196.71 25.4206 196.891 23.9184 196.749 22.4294C196.659 21.4853 196.439 20.5581 196.097 19.6737L195.891 19.142C195.463 18.0368 194.901 16.9883 194.217 16.02L193.394 14.8535L192.67 13.8269C191.751 12.5252 190.578 11.4237 189.221 10.5891C188.609 10.2127 187.963 9.89312 187.293 9.63444L187.104 9.56149C185.85 9.0777 184.533 8.77733 183.194 8.66965L181.641 8.54483L181.16 8.51584C179.53 8.41756 177.894 8.49177 176.279 8.73723C175.195 8.90214 174.123 9.14384 173.073 9.4605L171.872 9.82252L170.331 10.361C169.261 10.735 168.248 11.2563 167.322 11.9099L165.664 13.0799C165.207 13.4025 164.831 13.8271 164.566 14.3201L164.398 14.6334C164.138 15.1172 164.043 15.6721 164.125 16.2148C164.143 16.3335 164.17 16.4508 164.204 16.5657L164.409 17.2455C164.516 17.6011 164.68 17.9372 164.894 18.2407C165.204 18.679 165.611 19.0393 166.084 19.2931L166.114 19.3096C166.802 19.6784 167.59 19.8144 168.361 19.6972C168.914 19.6131 169.44 19.4014 169.897 19.0788L171.076 18.2465L171.682 17.8192C173.016 16.878 174.517 16.1999 176.105 15.8214C177.455 15.6162 178.82 15.5328 180.185 15.5724L180.427 15.5794L181.315 15.6051C182.247 15.6322 183.171 15.7916 184.059 16.0787L184.364 16.1773C184.723 16.2935 185.071 16.4416 185.403 16.6201C186.264 17.082 187.005 17.7378 187.568 18.5357L187.77 18.8221L188.213 19.449C188.789 20.2655 189.132 21.2232 189.206 22.2197C189.262 22.9752 189.162 23.7342 188.912 24.4493L188.506 25.607C188.041 26.9383 187.332 28.1716 186.416 29.2443L185.034 30.8624L183.049 32.8248L180.204 35.9559L178.371 38.4461C177.874 39.1212 177.452 39.8488 177.114 40.6156C176.734 41.475 176.461 42.3777 176.302 43.3034L175.77 46.3861L175.529 49.3765C175.498 49.764 175.497 50.1532 175.526 50.5408L175.552 50.8956C175.636 52.0285 176.027 53.1172 176.682 54.0454L176.858 54.2955C177.13 54.6803 177.461 55.0188 177.841 55.2981L178.723 55.9475C179.279 56.3563 179.994 56.4798 180.654 56.2807Z" fill="#D64B66" stroke="black"/>
<path d="M53.3759 141.363C53.5655 141.134 53.717 140.877 53.8245 140.6L53.9824 140.194C54.5568 138.716 54.2468 137.04 53.1817 135.865L51.114 133.199C49.879 131.069 48.8838 128.809 48.1466 126.459L47.611 124.753C47.2316 123.543 47.0691 122.277 47.1311 121.011L47.1387 120.855C47.1901 119.805 47.4105 118.77 47.7914 117.79L47.9095 117.486C48.2823 116.527 48.4686 115.505 48.4585 114.476C48.4484 113.447 48.6347 112.425 49.0075 111.466L49.2816 110.761L49.3292 110.638C49.8529 109.291 50.156 107.868 50.2267 106.424C50.2746 105.443 50.2152 104.461 50.0494 103.493L49.7289 101.624L49.2066 99.5743C48.7408 97.7468 47.8848 96.0418 46.6974 94.5764C45.9446 93.6473 45.0678 92.826 44.0915 92.1354L43.5045 91.7202C42.2846 90.8573 40.9634 90.1472 39.5705 89.6059L37.8926 88.9538L36.416 88.3799C34.5437 87.6523 32.543 87.3125 30.5354 87.3812C29.63 87.4122 28.7293 87.5261 27.8446 87.7215L27.5951 87.7766C25.9405 88.1419 24.3473 88.7441 22.8647 89.5644L21.1462 90.5153L20.6207 90.82C18.8393 91.8527 17.172 93.0708 15.6465 94.4538C14.6216 95.3831 13.664 96.3839 12.7808 97.4487L11.7711 98.666L10.5275 100.305C9.66362 101.444 8.9627 102.698 8.44493 104.03L7.51808 106.415C7.26252 107.073 7.16358 107.781 7.22907 108.483L7.2707 108.929C7.33497 109.619 7.62105 110.268 8.086 110.781C8.18768 110.893 8.29719 110.998 8.41371 111.095L9.10274 111.666C9.46323 111.965 9.86956 112.204 10.3061 112.374C10.9366 112.619 11.6156 112.714 12.2891 112.651L12.333 112.647C13.312 112.556 14.235 112.149 14.9635 111.489C15.4861 111.015 15.8913 110.426 16.1468 109.768L16.8062 108.072L17.1446 107.201C17.8902 105.282 18.995 103.524 20.3998 102.019C21.6752 100.863 23.052 99.8239 24.5137 98.9144L24.773 98.753L25.7235 98.1616C26.7223 97.5401 27.8043 97.0637 28.9372 96.7467L29.3265 96.6378C29.7847 96.5096 30.2535 96.4229 30.7273 96.3787C31.9533 96.2644 33.1891 96.4371 34.3368 96.8831L34.7488 97.0432L35.6505 97.3936C36.8249 97.8501 37.8531 98.6171 38.6254 99.6127C39.2108 100.367 39.6344 101.235 39.8697 102.161L40.2508 103.659C40.6889 105.383 40.8035 107.173 40.5885 108.939L40.2643 111.602L39.5461 115.047L38.7383 120.32L38.5477 124.214C38.496 125.27 38.56 126.328 38.7386 127.37C38.9387 128.537 39.2812 129.676 39.7585 130.76L41.3478 134.37L43.1792 137.68C43.4165 138.108 43.6865 138.518 43.9868 138.906L44.2617 139.26C45.1396 140.392 46.3086 141.264 47.6437 141.783L48.0034 141.922C48.5569 142.138 49.1415 142.262 49.7347 142.291L51.1144 142.359C51.9829 142.401 52.8208 142.032 53.3759 141.363Z" fill="#D64B66" stroke="black"/>
<path d="M50.4597 253.349C50.4839 253.125 50.4719 252.899 50.424 252.679L50.3538 252.356C50.0982 251.18 49.2004 250.25 48.0346 249.953L45.6103 249.132C43.9371 248.302 42.361 247.289 40.9108 246.111L39.8573 245.256C39.1109 244.65 38.4777 243.917 37.9868 243.09L37.9265 242.988C37.5192 242.303 37.2252 241.556 37.0557 240.776L37.0031 240.534C36.8373 239.771 36.5273 239.047 36.09 238.4C35.6527 237.754 35.3427 237.029 35.1769 236.266L35.0549 235.706L35.0337 235.608C34.8007 234.536 34.3965 233.509 33.8365 232.566C33.4564 231.926 33.0073 231.329 32.4974 230.787L31.5116 229.738L30.3231 228.661C29.2631 227.7 28.0076 226.98 26.643 226.55C25.7777 226.278 24.8791 226.125 23.9723 226.097L23.4271 226.08C22.294 226.045 21.1609 226.149 20.0532 226.39L18.7187 226.68L17.5444 226.936C16.0553 227.259 14.6474 227.882 13.4063 228.766C12.8465 229.165 12.3244 229.614 11.8466 230.108L11.7118 230.248C10.8182 231.172 10.0625 232.22 9.46821 233.36L8.77932 234.681L8.57446 235.094C7.88006 236.493 7.33542 237.962 6.94962 239.475C6.69042 240.492 6.50373 241.526 6.39095 242.57L6.26203 243.763L6.16186 245.32C6.09228 246.403 6.17385 247.489 6.40422 248.549L6.81661 250.445C6.93031 250.968 7.16422 251.458 7.4998 251.875L7.71308 252.14C8.04235 252.549 8.49542 252.84 9.00428 252.97C9.11557 252.998 9.22872 253.018 9.3429 253.031L10.0181 253.104C10.3713 253.142 10.7284 253.123 11.0756 253.047C11.5771 252.938 12.0463 252.714 12.446 252.392L12.4721 252.371C13.0532 251.904 13.4669 251.26 13.6511 250.537C13.7833 250.019 13.7929 249.476 13.6792 248.953L13.3858 247.604L13.2352 246.911C12.9035 245.386 12.8659 243.81 13.1246 242.271C13.4471 241.005 13.8829 239.771 14.4267 238.584L14.5231 238.373L14.8767 237.601C15.2482 236.789 15.7332 236.035 16.3171 235.36L16.5178 235.128C16.7539 234.855 17.0142 234.604 17.2954 234.378C18.023 233.792 18.8771 233.384 19.7898 233.185L20.1175 233.114L20.8347 232.958C21.7687 232.755 22.7403 232.81 23.6457 233.116C24.3321 233.348 24.9633 233.72 25.4998 234.207L26.3685 234.995C27.3675 235.902 28.1895 236.986 28.7928 238.193L29.703 240.014L30.6914 242.494L32.3885 246.168L33.8986 248.711C34.308 249.4 34.7916 250.043 35.3408 250.627C35.9563 251.282 36.6497 251.858 37.4056 252.344L39.9227 253.962L42.4672 255.289C42.7968 255.461 43.1393 255.607 43.4914 255.726L43.8137 255.836C44.843 256.184 45.9476 256.246 47.0094 256.015L47.2955 255.953C47.7357 255.857 48.1577 255.691 48.545 255.461L49.4461 254.926C50.0133 254.589 50.3888 254.005 50.4597 253.349Z" fill="#D64B66" stroke="black"/>
<path d="M309.913 214.01C310.073 214.169 310.257 214.301 310.458 214.402L310.754 214.549C311.831 215.086 313.118 214.969 314.08 214.246L316.238 212.869C317.933 212.085 319.71 211.49 321.536 211.097L322.862 210.811C323.802 210.608 324.77 210.574 325.722 210.709L325.839 210.725C326.629 210.837 327.396 211.076 328.11 211.432L328.331 211.542C329.03 211.89 329.788 212.102 330.567 212.166C331.345 212.23 332.103 212.442 332.802 212.79L333.316 213.047L333.405 213.091C334.387 213.58 335.441 213.908 336.526 214.062C337.264 214.167 338.01 214.19 338.752 214.132L340.187 214.02L341.771 213.768C343.184 213.544 344.532 213.016 345.722 212.221C346.476 211.717 347.157 211.111 347.747 210.422L348.101 210.007C348.838 209.146 349.467 208.197 349.972 207.183L350.582 205.96L351.118 204.885C351.798 203.521 352.194 202.034 352.282 200.512C352.321 199.826 352.298 199.138 352.212 198.456L352.188 198.263C352.027 196.988 351.683 195.743 351.166 194.566L350.567 193.201L350.374 192.783C349.718 191.365 348.914 190.021 347.975 188.773C347.344 187.934 346.655 187.141 345.912 186.399L345.063 185.552L343.911 184.498C343.111 183.767 342.212 183.15 341.242 182.666L339.505 181.8C339.026 181.561 338.498 181.437 337.963 181.438L337.623 181.438C337.097 181.439 336.587 181.609 336.167 181.925C336.075 181.994 335.988 182.069 335.907 182.151L335.428 182.632C335.177 182.883 334.968 183.173 334.809 183.491C334.58 183.951 334.461 184.457 334.462 184.97L334.462 185.004C334.463 185.749 334.706 186.475 335.154 187.071C335.475 187.499 335.892 187.846 336.371 188.085L337.607 188.701L338.241 189.017C339.639 189.714 340.89 190.671 341.929 191.837C342.714 192.881 343.403 193.993 343.988 195.161L344.092 195.368L344.473 196.127C344.873 196.925 345.157 197.775 345.318 198.653L345.373 198.955C345.438 199.31 345.471 199.67 345.471 200.031C345.473 200.965 345.256 201.887 344.839 202.723L344.69 203.023L344.362 203.679C343.936 204.535 343.285 205.258 342.479 205.772C341.868 206.162 341.183 206.422 340.468 206.535L339.309 206.719C337.976 206.93 336.616 206.892 335.297 206.606L333.308 206.176L330.755 205.394L326.828 204.417L323.9 204.002C323.106 203.889 322.302 203.864 321.503 203.926C320.607 203.996 319.723 204.176 318.871 204.461L316.033 205.41L313.405 206.563C313.065 206.713 312.736 206.888 312.423 207.088L312.136 207.271C311.22 207.856 310.48 208.678 309.995 209.651L309.865 209.913C309.664 210.316 309.529 210.749 309.466 211.195L309.319 212.232C309.226 212.885 309.446 213.544 309.913 214.01Z" fill="#D64B66" stroke="black"/>
<path d="M81.2227 260.676L105.653 275.65L125.355 284.319L167.123 295.352H199.435L250.66 277.226L240.415 285.895L227.018 292.199L212.832 297.716L199.435 301.656L186.037 303.233H167.123L149.786 300.08L120.627 289.835L101.713 279.59L88.3154 268.557L82.0107 263.041L81.2227 260.676Z" fill="#CFDFFA"/>
</svg>
