<svg width="26" height="24" viewBox="0 0 26 24" fill="none" xmlns="http://www.w3.org/2000/svg">
<path d="M3.92647 13.7913L5.73731 21.0346C5.78824 21.2384 5.8137 21.3402 5.84382 21.4292C6.13811 22.298 6.92051 22.9089 7.83476 22.9836C7.92835 22.9913 8.03334 22.9913 8.24332 22.9913C8.50627 22.9913 8.63774 22.9913 8.7485 22.9805C9.84321 22.8744 10.7095 22.008 10.8157 20.9133C10.8265 20.8026 10.8265 20.6711 10.8265 20.4081V4.01628M20.6015 13.2163C22.8244 13.2163 24.6265 11.4142 24.6265 9.19128C24.6265 6.96834 22.8244 5.16628 20.6015 5.16628M11.114 4.01628H6.80146C3.94339 4.01628 1.62646 6.33321 1.62646 9.19129C1.62647 12.0494 3.94339 14.3663 6.80146 14.3663H11.114C13.1454 14.3663 15.6303 15.4552 17.5474 16.5003C18.6658 17.11 19.225 17.4148 19.5913 17.3699C19.9309 17.3283 20.1877 17.1758 20.3868 16.8976C20.6015 16.5975 20.6015 15.997 20.6015 14.7961V3.58651C20.6015 2.38558 20.6015 1.78511 20.3868 1.485C20.1877 1.20672 19.9309 1.05423 19.5913 1.01263C19.225 0.96777 18.6658 1.27261 17.5474 1.88229C15.6303 2.92736 13.1454 4.01628 11.114 4.01628Z" stroke="#1E4391" stroke-width="2" stroke-linecap="round" stroke-linejoin="round"/>
</svg>
