<svg width="88" height="58" viewBox="0 0 88 58" fill="none" xmlns="http://www.w3.org/2000/svg">
<path fill-rule="evenodd" clip-rule="evenodd" d="M46.1159 0.718055C47.9116 0.778734 49.8994 0.859214 50.5332 0.896833C53.5802 1.07782 57.0289 1.32916 59.1757 1.52669C61.5219 1.74262 61.5597 1.75054 63.1449 2.35885C64.7571 2.97752 72.0991 6.30709 74.4762 7.4975C75.1804 7.85016 76.1899 8.34969 76.7193 8.60766C79.5501 9.98628 86.9452 13.7132 87.0663 13.8223C87.1746 13.9197 86.7924 14.3494 86.4023 14.5688C86.0314 14.7773 85.7699 14.8116 84.5761 14.8087C83.8098 14.8069 82.4626 14.7577 81.5823 14.6996C80.7021 14.6415 78.9879 14.5567 77.7732 14.5112L75.5645 14.4285V16.3024C75.5645 18.0018 75.5898 18.2153 75.8357 18.5944C76.1552 19.087 76.296 20.3042 76.0894 20.7875C75.9601 21.0898 75.9045 21.1115 75.3439 21.0786L74.7382 21.0431L74.6343 20.519C74.4856 19.7672 74.6338 18.8433 74.9648 18.4606C75.2195 18.1661 75.246 17.9931 75.2617 16.5232C75.2712 15.6356 75.2479 14.8014 75.21 14.6694C75.1429 14.4359 75.0849 14.4313 73.0801 14.498C71.9466 14.5357 70.5295 14.623 69.9309 14.6919C69.3323 14.7609 66.826 15.0269 64.3612 15.2832C61.8965 15.5394 58.6412 15.8798 57.1271 16.0396C55.6131 16.1992 53.5613 16.3631 52.5677 16.4037H50.8738L50.4437 16.2276L50.279 16.1701C49.9522 15.8962 46.1148 12.3286 46.1148 12.3812C46.1148 12.4336 48.9809 15.4144 49.6841 16.1701C50.279 16.6389 50.6031 16.7114 51.4687 16.7114C51.8594 16.7558 52.6587 16.6896 52.9014 16.6538C52.874 16.8259 52.9016 16.6098 52.9014 16.6538C52.9009 16.7365 52.7318 17.52 52.5252 18.4808C52.139 20.2765 51.4868 23.9573 51.502 24.254C51.5068 24.3456 51.7937 23.1628 52.1398 21.6254C52.4858 20.0881 52.9011 18.3329 53.0627 17.725L53.3564 16.6198L55.0817 16.4212C56.0306 16.312 58.1322 16.0903 59.7519 15.9287C61.3716 15.767 64.1605 15.476 65.9497 15.2817C67.7388 15.0874 69.3707 14.9286 69.5763 14.9286H69.9501L69.8697 16.0059C69.5926 19.7184 68.9363 22.3805 67.9029 23.9831C67.4819 24.6361 67.3363 24.7562 66.4739 25.1623C65.4369 25.6504 64.0997 26.0746 62.3767 26.4619C61.7781 26.5964 61.2019 26.7373 61.0963 26.7752C60.9907 26.813 60.8466 26.8546 60.7762 26.8676C60.3918 26.9386 60.072 27.0824 60.072 27.1842C60.072 27.2479 60.3551 27.7266 60.7012 28.2479C63.5935 32.6057 65.4163 37.0339 65.956 41.0142C66.1516 42.457 66.1202 45.3751 65.8942 46.7541C65.6342 48.3415 65.1405 50.0029 64.7203 50.7053C64.0769 51.7807 61.464 53.8457 56.9351 56.8583L56.1668 57.3693L56.5493 56.9092C56.7595 56.6562 57.7029 55.5868 58.6455 54.5329C59.5883 53.479 60.4583 52.4046 60.5791 52.1453C61.2826 50.6364 61.6603 44.1827 61.2407 40.8425C60.8727 37.9136 60.2918 35.4524 59.3437 32.8063C58.7832 31.2416 57.4613 28.2735 57.0188 27.5855L56.807 27.2565L53.9007 27.3216C51.2543 27.3808 50.9222 27.3662 50.1876 27.1588C47.621 26.4338 42.5331 22.7335 41.5273 20.8604C40.9846 19.8497 40.7805 18.5768 40.9811 17.4524C41.1585 16.4577 42.1777 12.4901 42.5166 11.4751L42.7558 10.7587L42.4193 10.5339C41.1295 9.67287 35.1306 6.02582 31.6476 3.98519C30.4152 3.26321 29.3018 2.58141 29.1733 2.47019C29.0447 2.35885 28.9079 2.05312 28.8692 1.79072C28.8056 1.35967 28.8281 1.30761 29.1029 1.25066C29.988 1.06734 33.9787 0.789333 37.2813 0.680902C39.678 0.602286 43.1162 0.616728 46.1159 0.718055ZM42.7763 1.229C42.7469 1.25299 41.6282 1.30994 40.2902 1.3556C38.9522 1.40125 37.7134 1.45355 37.5374 1.47183C37.3613 1.49012 36.7851 1.51597 36.257 1.52913C35.7288 1.54241 31.31 1.88501 31.4052 1.9196C31.5005 1.95407 37.3513 1.61497 39.4391 1.53717C41.5269 1.45925 45.7126 1.39088 48.7406 1.38506C52.1292 1.37866 53.7047 1.34395 52.8379 1.2948C51.3466 1.21036 42.8669 1.15492 42.7763 1.229ZM30.4233 1.98894C30.4624 2.04659 30.6894 2.19835 30.9275 2.32612C31.3603 2.55835 31.3604 2.55835 31.2936 2.32588C31.2561 2.19509 31.3049 2.04834 31.4052 1.99058C31.5228 1.92279 31.3736 1.88715 30.9679 1.88599C30.6292 1.88506 30.3841 1.93141 30.4233 1.98894ZM31.2936 2.50011C31.2936 2.52771 31.822 2.83671 32.1918 3.05241C32.5615 3.2681 33.4401 3.79279 34.1443 4.21825C34.8486 4.6437 36.0009 5.33831 36.7051 5.76178C38.1247 6.61549 38.0737 6.58393 41.7626 8.89685C45.8314 11.4479 49.0066 13.6304 50.4437 14.8637C50.7465 15.1235 51.0922 15.3714 51.2119 15.4144C51.5469 15.5347 53.7702 15.346 60.3921 14.6353C64.6811 14.1749 71.6411 13.5541 73.4519 13.4704C74.3674 13.4281 75.7353 13.3101 75.7685 13.2804C75.9656 13.104 74.6609 13.0988 72.8939 13.134C70.999 13.1719 69.4035 13.319 59.1117 14.4045C56.9287 14.6347 54.3621 14.8542 53.4084 14.8921L51.6742 14.9612L50.7836 14.2364C48.3047 12.2187 42.4861 8.63061 34.6565 4.29127C31.5411 2.56464 31.2936 2.44304 31.2936 2.50011ZM56.1755 6.67232C56.3912 6.98958 57.3436 7.26666 58.3314 7.29938C59.2514 7.32978 59.7758 7.45929 63.0016 8.45241C65.0003 9.06771 66.6567 9.57108 66.6827 9.57108C66.7087 9.57108 78.3174 13.4097 78.3174 13.3487C78.3174 13.2877 66.5428 9.29854 66.3138 9.2367C66.0849 9.17486 65.0766 8.86016 64.0732 8.5372C63.0697 8.21435 62.2477 7.98736 62.2467 8.03266C62.2456 8.07808 62.2024 8.05758 62.1507 7.98701C62.0989 7.91654 61.4804 7.6878 60.7762 7.47874C60.072 7.26969 59.4382 7.0364 59.3678 6.96046C59.2691 6.85401 59.1692 6.85483 58.9322 6.96419C58.5377 7.14635 57.5489 7.06505 56.7348 6.78378C56.3873 6.66359 56.1356 6.61351 56.1755 6.67232ZM11.3587 7.76957C12.2093 7.96838 13.7767 8.6284 14.1705 8.95357C14.571 9.28434 15.6218 10.4249 17.0461 12.0751C17.7647 12.9079 18.4843 13.6361 18.645 13.6934C18.8432 13.7642 19.6333 13.695 21.0992 13.4783C22.2883 13.3027 23.434 13.1357 23.6453 13.1074C23.8565 13.0791 22.8482 13.3937 21.4046 13.8064C19.961 14.2192 18.686 14.5913 18.5714 14.6333C18.3355 14.7197 16.3963 16.8766 15.0597 18.5391C14.3095 19.4721 12.8743 21.4306 11.7311 23.0813C10.5704 24.7571 8.71502 28.1613 7.71313 30.4534C4.85495 36.9918 4.06738 43.0987 5.1493 50.3346C5.46107 52.4191 5.22216 52.0096 7.83259 54.9351C8.86137 56.0881 9.75098 57.1035 9.80949 57.1915C9.95059 57.4037 4.38799 53.5906 3.48225 52.8541C1.9586 51.6155 1.16016 50.4663 0.679761 48.8205C0.184896 47.1254 0.0861759 46.2647 0.0919376 43.696C0.0966749 41.6347 0.147762 40.9409 0.380535 39.7729C1.11829 36.0725 2.77011 32.2623 5.27388 28.4857C5.7699 27.7376 6.15952 27.1138 6.13981 27.0995C6.12022 27.0851 5.50793 26.7966 4.77927 26.4582C2.16552 25.2449 0.803827 23.6369 0.201539 21.0524C-0.0718212 19.8794 -0.0654183 14.4587 0.210502 13.501C0.801267 11.4503 2.62953 9.72435 5.54136 8.46848C7.45898 7.64145 9.67288 7.37544 11.3587 7.76957ZM75.7685 13.2804C75.6982 13.3839 78.0624 13.5413 79.2776 13.5142C79.7422 13.5038 79.4154 13.4475 78.3174 13.3487C76.2753 13.165 75.8547 13.1537 75.7685 13.2804ZM75.9412 22.0622C75.9373 22.4626 75.8928 22.9998 75.8425 23.256C75.7656 23.6486 75.7013 23.7231 75.4338 23.7296C74.8514 23.7441 74.8327 23.7047 74.8464 22.4929L74.8594 21.3343H75.4041H75.9487L75.9412 22.0622ZM75.8707 24.2751C75.9047 24.4833 76.0821 28.1127 76.2648 32.3404C76.4476 36.5682 76.6532 41.3113 76.7216 42.8807C76.8861 46.6527 76.9736 53.8965 76.8607 54.411C76.7152 55.0744 76.5929 52.3178 76.5885 48.272C76.5863 46.2728 76.5315 44.5171 76.4667 44.3703C76.3729 44.1578 76.3471 44.2336 76.3397 44.7442C76.3143 46.4784 76.0762 53.0864 76.0047 54.0404C75.8526 56.0707 75.7636 54.9891 75.7782 51.2889L75.7928 47.5976L75.6266 50.6258C75.5352 52.2913 75.4551 53.9322 75.4485 54.2723C75.441 54.6568 75.3876 54.8631 75.3071 54.8178C75.2233 54.7707 75.1995 53.895 75.2397 52.336C75.4409 44.5252 75.4051 42.7894 75.1291 46.9571C74.856 51.0789 74.626 53.6765 74.5205 53.8286C74.4397 53.9453 74.4191 53.7783 74.4584 53.326C74.5014 52.8306 74.5624 52.5909 74.4378 52.5475C74.4162 52.5399 74.3778 52.4378 74.336 52.2951C74.2681 52.0633 74.1911 51.7244 74.1627 51.5101C74.0982 51.0245 74.1692 50.654 74.1627 49.0155C74.1403 43.3671 74.5912 24.222 74.7523 23.9839C74.7848 23.9358 75.0359 23.8965 75.3103 23.8965C75.7749 23.8965 75.8132 23.9224 75.8707 24.2751ZM26.2846 28.2053C27.2574 28.3688 27.6784 28.8011 27.6784 29.6368C27.6784 30.9649 26.664 33.2942 25.3849 34.9027C25.0283 35.3511 24.0136 36.6473 23.13 37.7832C21.3936 40.0153 20.797 40.5461 19.6886 40.8459C17.8855 41.3334 16.3209 40.2695 15.991 38.3315C15.731 36.8034 16.0632 35.958 17.9332 33.3886C19.4642 31.285 21.6184 29.341 23.287 28.5573C24.1523 28.1509 25.2169 28.0259 26.2846 28.2053ZM42.9185 28.6394C43.9881 29.1239 46.0803 30.8099 47.0894 32.0007C48.2624 33.385 49.5653 35.2335 49.8533 35.9219C50.5131 37.4991 50.2391 39.251 49.1815 40.2173C48.2763 41.0444 47.197 41.1863 45.9136 40.6473C45.0553 40.2867 44.4781 39.6756 42.0957 36.605C39.6611 33.4671 39.0966 32.5285 38.6762 30.9196C38.2545 29.3054 38.3304 28.8727 39.114 28.4274C39.4639 28.2284 39.7044 28.2002 40.8059 28.2297C41.9543 28.2605 42.1772 28.3037 42.9185 28.6394ZM31.9285 43.0744C32.8629 43.257 32.9891 43.2562 34.1364 43.0597C35.1534 42.8856 35.5065 42.8723 36.2853 42.9788C37.8081 43.1869 38.5124 43.4224 38.8314 43.83C39.1135 44.1903 39.1136 44.1929 38.8701 44.605C38.4184 45.3693 37.0009 46.5399 35.2967 47.5562C34.3812 48.102 33.4784 48.5836 33.2905 48.6263C32.4508 48.8167 28.6624 46.427 27.6188 45.0486C26.7677 43.9246 27.0927 43.4612 28.972 43.1192C30.496 42.8419 30.7218 42.8386 31.9285 43.0744ZM75.8307 45.7438C75.8369 45.8795 75.8672 45.9071 75.9081 45.8143C75.9451 45.7302 75.9405 45.6297 75.898 45.591C75.8554 45.5523 75.8252 45.6211 75.8307 45.7438ZM75.8307 46.2097C75.8369 46.3454 75.8672 46.373 75.9081 46.2802C75.9451 46.1961 75.9405 46.0955 75.898 46.0569C75.8554 46.0182 75.8252 46.0869 75.8307 46.2097ZM74.6254 47.3911C74.4783 49.7049 74.3748 52.5475 74.4378 52.5475C74.5204 52.5475 74.8454 46.264 74.7663 46.1922C74.7327 46.1616 74.6692 46.7011 74.6254 47.3911Z" fill="white"/>
<path d="M74.336 52.2951C74.2681 52.0633 74.1911 51.7244 74.1627 51.5101L73.8644 54.7588L74.1627 54.0404L74.336 52.2951Z" fill="white"/>
</svg>
