<svg width="42" height="43" viewBox="0 0 42 43" fill="none" xmlns="http://www.w3.org/2000/svg">
<ellipse cx="20.565" cy="21.8726" rx="20.565" ry="20.9683" fill="#0A8ECD"/>
<path d="M21.4999 28.5501C21.4999 28.9313 21.3485 29.2969 21.0789 29.5665C20.8093 29.8361 20.4437 29.9876 20.0624 29.9876C19.6812 29.9876 19.3156 29.8361 19.046 29.5665C18.7764 29.2969 18.6249 28.9313 18.6249 28.5501C18.6249 28.1688 18.7764 27.8032 19.046 27.5336C19.3156 27.264 19.6812 27.1126 20.0624 27.1126C20.4437 27.1126 20.8093 27.264 21.0789 27.5336C21.3485 27.8032 21.4999 28.1688 21.4999 28.5501ZM26.2916 28.5501C26.2916 28.9313 26.1402 29.2969 25.8706 29.5665C25.601 29.8361 25.2353 29.9876 24.8541 29.9876C24.4729 29.9876 24.1072 29.8361 23.8376 29.5665C23.5681 29.2969 23.4166 28.9313 23.4166 28.5501C23.4166 28.1688 23.5681 27.8032 23.8376 27.5336C24.1072 27.264 24.4729 27.1126 24.8541 27.1126C25.2353 27.1126 25.601 27.264 25.8706 27.5336C26.1402 27.8032 26.2916 28.1688 26.2916 28.5501ZM31.0833 28.5501C31.0833 28.9313 30.9318 29.2969 30.6622 29.5665C30.3927 29.8361 30.027 29.9876 29.6458 29.9876C29.2645 29.9876 28.8989 29.8361 28.6293 29.5665C28.3597 29.2969 28.2083 28.9313 28.2083 28.5501C28.2083 28.1688 28.3597 27.8032 28.6293 27.5336C28.8989 27.264 29.2645 27.1126 29.6458 27.1126C30.027 27.1126 30.3927 27.264 30.6622 27.5336C30.9318 27.8032 31.0833 28.1688 31.0833 28.5501ZM24.2858 26.2213L23.1684 23.4949H15.6397L13.9147 27.7594C13.8419 27.9415 13.7374 28.0949 13.5937 28.2003C13.4478 28.3065 13.271 28.3621 13.0906 28.3584C12.8376 28.3584 12.6114 28.2951 12.4514 28.1341C12.3026 27.9785 12.2151 27.7743 12.2051 27.5591L12.2041 27.5515V27.4719C12.2041 27.3704 12.2118 27.2736 12.2376 27.1959L12.2415 27.1835L18.5665 11.7083C18.6334 11.5268 18.7545 11.3702 18.9134 11.2598C19.0715 11.1544 19.2584 11.1084 19.4635 11.1084C19.6599 11.1084 19.8372 11.1669 19.9839 11.2886C20.1401 11.3892 20.257 11.5281 20.3336 11.7006L20.3356 11.7064L26.5206 26.8289C26.2303 26.5464 25.8728 26.3424 25.4818 26.2361C25.0908 26.1298 24.6793 26.1247 24.2858 26.2213ZM16.3441 21.698H22.4353L19.3686 14.2048L16.3441 21.698Z" fill="white"/>
</svg>
