<svg width="42" height="43" viewBox="0 0 42 43" fill="none" xmlns="http://www.w3.org/2000/svg">
<ellipse cx="20.565" cy="21.8726" rx="20.565" ry="20.9683" fill="#0A8ECD"/>
<path d="M11.875 26.1963H23.375C23.6193 26.1966 23.8542 26.2901 24.0318 26.4578C24.2094 26.6254 24.3163 26.8546 24.3306 27.0985C24.3449 27.3423 24.2656 27.5824 24.1088 27.7697C23.9521 27.957 23.7297 28.0774 23.4871 28.1062L23.375 28.113H11.875C11.6307 28.1127 11.3958 28.0192 11.2182 27.8515C11.0406 27.6838 10.9337 27.4546 10.9194 27.2108C10.9051 26.9669 10.9844 26.7268 11.1412 26.5395C11.2979 26.3522 11.5203 26.2318 11.7629 26.203L11.875 26.1963H23.375H11.875ZM11.875 20.4463H29.125C29.3693 20.4466 29.6042 20.5401 29.7818 20.7078C29.9594 20.8754 30.0663 21.1046 30.0806 21.3485C30.0949 21.5923 30.0156 21.8324 29.8588 22.0197C29.7021 22.207 29.4797 22.3274 29.2371 22.3562L29.125 22.363H11.875C11.6307 22.3627 11.3958 22.2692 11.2182 22.1015C11.0406 21.9338 10.9337 21.7046 10.9194 21.4608C10.9051 21.2169 10.9844 20.9768 11.1412 20.7895C11.2979 20.6022 11.5203 20.4818 11.7629 20.453L11.875 20.4463H29.125H11.875ZM11.875 14.6963H26.25C26.4943 14.6966 26.7292 14.7901 26.9068 14.9578C27.0844 15.1254 27.1913 15.3546 27.2056 15.5985C27.2199 15.8423 27.1406 16.0824 26.9838 16.2697C26.8271 16.457 26.6047 16.5774 26.3621 16.6062L26.25 16.613H11.875C11.6307 16.6127 11.3958 16.5192 11.2182 16.3515C11.0406 16.1838 10.9337 15.9546 10.9194 15.7108C10.9051 15.4669 10.9844 15.2268 11.1412 15.0395C11.2979 14.8522 11.5203 14.7318 11.7629 14.703L11.875 14.6963H26.25H11.875Z" fill="white"/>
</svg>
